<svg width="24" height="24" viewBox="0 0 24 24" fill="none" xmlns="http://www.w3.org/2000/svg">
<path fill-rule="evenodd" clip-rule="evenodd" d="M0.64556 0.64556C1.50631 -0.215187 2.90186 -0.215187 3.7626 0.64556L12 8.88296L20.2374 0.64556C21.0981 -0.215187 22.4937 -0.215187 23.3544 0.64556C24.2152 1.50631 24.2152 2.90186 23.3544 3.7626L15.117 12L23.3544 20.2374C24.2152 21.0981 24.2152 22.4937 23.3544 23.3544C22.4937 24.2152 21.0981 24.2152 20.2374 23.3544L12 15.117L3.7626 23.3544C2.90186 24.2152 1.50631 24.2152 0.64556 23.3544C-0.215187 22.4937 -0.215187 21.0981 0.64556 20.2374L8.88296 12L0.64556 3.7626C-0.215187 2.90186 -0.215187 1.50631 0.64556 0.64556Z" fill="#607998"/>
</svg>
