<svg width="24" height="24" viewBox="0 0 24 24" fill="none" xmlns="http://www.w3.org/2000/svg">
<path fill-rule="evenodd" clip-rule="evenodd" d="M4.54777 17.4667C6.95541 16.2667 7.22293 16.1333 7.22293 14.1333C6.73248 13.7778 5.75159 12.6667 5.75159 11.0667C5.52866 10.9778 4.81529 10.4267 4.81529 8.93333C4.81529 7.44 5.26115 7.06667 5.48408 7.06667C5.48408 6.81666 5.4815 6.56667 5.47912 6.31668C5.45063 3.30393 5.44835 0.074472 10.1656 0.00103469L10.8344 0.00103469C15.565 0.0746797 15.5493 3.20805 15.5206 6.31668C15.5183 6.56667 15.5159 6.81666 15.5159 7.06667C15.7389 7.06667 16.1847 7.44 16.1847 8.93333C16.1847 10.4267 15.4713 10.9778 15.2484 11.0667C15.2484 12.6667 14.2675 13.7778 13.7771 14.1333C13.7771 16.1333 14.0446 16.2667 16.4522 17.4667C18.8599 18.6667 21 19.8666 21 24H0C0 19.8666 2.14013 18.6667 4.54777 17.4667ZM7.66955 1.32795C9.12705 0.434081 11.886 0.445589 13.3377 1.31357C14.3879 1.94157 14.6795 3.06807 14.7542 4.60403C14.8062 5.67269 14.7659 6.74704 14.7659 7.81667C15.4881 7.81667 15.4347 8.2091 15.4347 8.93333C15.4347 9.77528 15.2287 10.2671 14.4984 10.5583C14.4984 11.8573 14.1288 12.952 13.0271 13.7507C13.0271 14.7243 12.9702 15.7963 13.64 16.5854C14.2607 17.3166 15.2588 17.7098 16.0957 18.127C17.158 18.6565 18.2719 19.2106 19.0617 20.1239C19.6618 20.8178 20.1108 21.7671 20.2229 23.25H0.777131C0.889165 21.7671 1.33823 20.8178 1.93831 20.1239C2.72816 19.2106 3.84195 18.6565 4.90426 18.127C5.74121 17.7098 6.73929 17.3166 7.36 16.5854C8.02983 15.7963 7.97293 14.7243 7.97293 13.7507C6.88747 12.9638 6.50159 11.8924 6.50159 10.5583C5.78283 10.2717 5.56529 9.81371 5.56529 8.93333C5.56529 8.2091 5.5119 7.81667 6.23408 7.81667C6.23408 6.76544 6.19431 5.71068 6.24578 4.66057C6.32052 3.13548 6.6187 1.97243 7.66955 1.32795Z" fill="#607998"/>
<path d="M20.625 9.625C20.8321 9.625 21 9.79289 21 10V12.625H23.625C23.8321 12.625 24 12.7929 24 13C24 13.2071 23.8321 13.375 23.625 13.375H21V16C21 16.2071 20.8321 16.375 20.625 16.375C20.4179 16.375 20.25 16.2071 20.25 16V13.375H17.625C17.4179 13.375 17.25 13.2071 17.25 13C17.25 12.7929 17.4179 12.625 17.625 12.625H20.25V10C20.25 9.79289 20.4179 9.625 20.625 9.625Z" fill="#607998"/>
</svg>
