<svg width="25" height="25" viewBox="0 0 25 25" fill="none" xmlns="http://www.w3.org/2000/svg">
<path d="M24.997 8.86353C24.7351 7.99458 24.3914 7.15986 23.9674 6.37573C20.8412 7.19387 18.1465 3.97665 18.9174 1.02815C18.1333 0.604095 17.2985 0.25741 16.4296 0C14.6152 3.0986 10.3815 3.09506 8.56594 0C7.69551 0.25741 6.86377 0.604095 6.07963 1.02815C6.85084 3.97767 4.15444 7.19315 1.02815 6.37573C0.604095 7.15986 0.258898 7.99458 0 8.86353C3.05448 10.6521 3.11426 14.6043 0 16.4311C0.260386 17.3 0.604095 18.1333 1.02815 18.9189C4.16626 18.0984 6.90253 20.8259 6.07963 23.9674C6.86377 24.3914 7.697 24.7381 8.56743 24.9985C10.3792 21.8949 14.6189 21.9002 16.4326 24.9985C17.3015 24.7366 18.1347 24.3914 18.9204 23.9674C18.1475 21.0168 20.8455 17.8077 23.9704 18.6198C24.3944 17.8357 24.7396 17.0039 25 16.132C21.9258 14.3343 21.921 10.6629 24.997 8.86353ZM12.4985 17.9324C9.49589 17.9324 7.06315 15.4996 7.06315 12.4985C7.06315 9.49589 9.49738 7.06166 12.4985 7.06166C15.5011 7.06166 17.9324 9.49738 17.9324 12.4985C17.9324 15.5011 15.5011 17.9324 12.4985 17.9324Z" fill="#607998"/>
</svg>
