<svg width="10" height="14" viewBox="0 0 10 14" fill="none" xmlns="http://www.w3.org/2000/svg">
<path d="M4.50055 2.10663V0.75C4.50055 0.335786 4.16476 0 3.75055 0C3.33634 0 3.00055 0.335786 3.00055 0.75V2.53615C2.46373 2.76358 1.99218 3.05274 1.58592 3.40363C1.07779 3.84688 0.686525 4.3752 0.412135 4.98858C0.137744 5.59749 0.000549316 6.26685 0.000549316 6.99664C0.000549316 7.71301 0.145366 8.37788 0.435001 8.99127C0.724635 9.60018 1.13622 10.1285 1.66976 10.5762C2.05711 10.898 2.50071 11.1703 3.00055 11.393V13.25C3.00055 13.6642 3.33634 14 3.75055 14C4.16476 14 4.50055 13.6642 4.50055 13.25V11.8588C4.9732 11.9479 5.4732 11.9948 6.00055 11.9996V13.25C6.00055 13.6642 6.33634 14 6.75055 14C7.16476 14 7.50055 13.6642 7.50055 13.25V11.8813C7.70417 11.846 7.90488 11.8027 8.10268 11.7515C8.74801 11.5859 9.35522 11.3195 9.92433 10.9523V6.82203H5.97616V8.07119C5.97616 8.1876 6.02189 8.28386 6.11335 8.35997C6.20482 8.43609 6.33185 8.47414 6.49445 8.47414H7.59201V9.95836C7.35319 10.0479 7.10675 10.1195 6.85268 10.1733C6.6037 10.227 6.32423 10.2539 6.01427 10.2539C5.51122 10.2539 5.05136 10.1822 4.6347 10.039C4.22311 9.8912 3.86742 9.67853 3.56762 9.40094C3.27291 9.12335 3.04425 8.78308 2.88165 8.38012C2.71905 7.97717 2.63774 7.51601 2.63774 6.99664C2.63774 6.52653 2.71142 6.10119 2.85878 5.72062C3.00614 5.33557 3.21447 5.00649 3.48378 4.73338C3.75817 4.46026 4.08846 4.24983 4.47463 4.10208C4.86081 3.94985 5.29526 3.87374 5.77799 3.87374C6.03713 3.87374 6.27087 3.88493 6.47921 3.90732C6.68754 3.92971 6.88571 3.96552 7.07372 4.01477C7.26173 4.06402 7.44465 4.12895 7.6225 4.20954C7.80543 4.28565 7.99852 4.37743 8.20177 4.48489C8.41518 4.6013 8.61335 4.64159 8.79628 4.60578C8.98429 4.56996 9.13673 4.4737 9.2536 4.31699L10.0005 3.31632C9.77697 3.12827 9.52291 2.95366 9.23835 2.79248C8.9538 2.6313 8.63876 2.4925 8.29323 2.37609C8.04637 2.29168 7.78214 2.22022 7.50055 2.1617V0.75C7.50055 0.335786 7.16476 0 6.75055 0C6.33634 0 6.00055 0.335786 6.00055 0.75V2.00091C5.9571 2.0003 5.9134 2 5.86945 2C5.38895 2 4.93265 2.03554 4.50055 2.10663Z" fill="#607998"/>
</svg>
