<svg width="93" height="107" viewBox="0 0 93 107" fill="none" xmlns="http://www.w3.org/2000/svg">
<path d="M0 107C0 88.5722 9.47771 83.2222 20.1401 77.8722C30.8025 72.5222 31.9873 71.9278 31.9873 63.0111C29.8153 61.4259 25.4713 56.4722 25.4713 49.3389C24.4841 48.9426 21.3248 46.4856 21.3248 39.8278C21.3248 33.17 23.2994 31.5056 24.2866 31.5056C24.2866 17.2389 22.3798 0.359426 45.0191 0.00461298L47.9809 0.00461298C70.6202 0.359426 68.7134 16.6444 68.7134 31.5056C69.7006 31.5056 71.6752 33.17 71.6752 39.8278C71.6752 46.4856 68.5159 48.9426 67.5287 49.3389C67.5287 56.4722 63.1847 61.4259 61.0127 63.0111C61.0127 71.9278 62.1975 72.5222 72.8599 77.8722C83.5223 83.2222 93 88.5722 93 107H0Z" fill="#E6F3FC"/>
</svg>
