<svg width="10" height="14" viewBox="0 0 10 14" fill="none" xmlns="http://www.w3.org/2000/svg">
<mask id="path-1-inside-1" fill="white">
<path fill-rule="evenodd" clip-rule="evenodd" d="M0 1C0 0.447715 0.447715 0 1 0H7C7.55228 0 8 0.447715 8 1V2H9C9.55229 2 10 2.44772 10 3V5C9.44771 5 9 4.55228 9 4V3H8V11C8 11.5523 7.55228 12 7 12H3V13H4.2C4.75229 13 5.2 13.4477 5.2 14H3C2.44772 14 2 13.5523 2 13V12H1C0.447715 12 0 11.5523 0 11V1ZM1 1H7V11H1V1Z"/>
<path d="M9 7C9 6.44772 9.44771 6 10 6V10C9.44771 10 9 9.55229 9 9V7Z"/>
<path d="M9 12C9 11.4477 9.44771 11 10 11V13C10 13.5523 9.55228 14 9 14H6.8C6.8 13.4477 7.24771 13 7.8 13H9V12Z"/>
</mask>
<path fill-rule="evenodd" clip-rule="evenodd" d="M0 1C0 0.447715 0.447715 0 1 0H7C7.55228 0 8 0.447715 8 1V2H9C9.55229 2 10 2.44772 10 3V5C9.44771 5 9 4.55228 9 4V3H8V11C8 11.5523 7.55228 12 7 12H3V13H4.2C4.75229 13 5.2 13.4477 5.2 14H3C2.44772 14 2 13.5523 2 13V12H1C0.447715 12 0 11.5523 0 11V1ZM1 1H7V11H1V1Z" fill="#607998"/>
<path d="M9 7C9 6.44772 9.44771 6 10 6V10C9.44771 10 9 9.55229 9 9V7Z" fill="#607998"/>
<path d="M9 12C9 11.4477 9.44771 11 10 11V13C10 13.5523 9.55228 14 9 14H6.8C6.8 13.4477 7.24771 13 7.8 13H9V12Z" fill="#607998"/>
<path d="M7 1H8V0H7V1ZM1 1V0H0V1H1ZM7 11V12H8V11H7ZM1 11H0V12H1V11ZM8 2H7V3H8V2ZM10 5V6H11V5H10ZM9 3H10V2H9V3ZM8 3V2H7V3H8ZM3 12V11H2V12H3ZM3 13H2V14H3V13ZM5.2 14V15H6.2V14H5.2ZM2 12H3V11H2V12ZM10 6H11V5H10V6ZM10 10V11H11V10H10ZM10 11H11V10H10V11ZM6.8 14H5.8V15H6.8V14ZM9 13V14H10V13H9ZM7 0H1V2H7V0ZM8 11V1H6V11H8ZM1 12H7V10H1V12ZM0 1V11H2V1H0ZM1 -1C-0.104569 -1 -1 -0.10457 -1 1H1V1V-1ZM7 -1H1V1H7V-1ZM9 1C9 -0.104569 8.10457 -1 7 -1V1H9ZM9 2V1H7V2H9ZM9 1H8V3H9V1ZM11 3C11 1.89544 10.1046 1 9 1V3H11ZM11 5V3H9V5H11ZM8 4C8 5.10457 8.89543 6 10 6V4H8ZM8 3V4H10V3H8ZM8 4H9V2H8V4ZM9 11V3H7V11H9ZM7 13C8.10457 13 9 12.1046 9 11H7V13ZM3 13H7V11H3V13ZM2 12V13H4V12H2ZM3 14H4.2V12H3V14ZM4.2 14H6.2C6.2 12.8954 5.30457 12 4.2 12V14ZM5.2 13H3V15H5.2V13ZM3 13H1C1 14.1046 1.89544 15 3 15V13ZM3 13V12H1V13H3ZM1 13H2V11H1V13ZM-1 11C-1 12.1046 -0.10457 13 1 13V11H-1ZM-1 1V11H1V1H-1ZM10 5C8.89543 5 8 5.89543 8 7H10V5ZM11 10V6H9V10H11ZM8 9C8 10.1046 8.89543 11 10 11V9H8ZM8 7V9H10V7H8ZM10 10C8.89543 10 8 10.8954 8 12H10V10ZM11 13V11H9V13H11ZM9 15C10.1046 15 11 14.1046 11 13H9V15ZM6.8 15H9V13H6.8V15ZM7.8 12C6.69543 12 5.8 12.8954 5.8 14H7.8V12ZM9 12H7.8V14H9V12ZM8 12V13H10V12H8Z" fill="#607998" mask="url(#path-1-inside-1)"/>
</svg>
