<svg width="14" height="14" viewBox="0 0 14 14" fill="none" xmlns="http://www.w3.org/2000/svg">
<path fill-rule="evenodd" clip-rule="evenodd" d="M3.28126 3.255C1.27517 5.27561 1.24102 8.52976 3.172 10.6059L5.14139 8.6228L5.15419 13.603L0.450532 13.3461L1.93675 11.8505C-0.678858 9.08293 -0.646419 4.71305 2.04175 2.00695C3.18992 0.850244 4.63858 0.181829 6.13675 0L6.19565 1.77305C5.12858 1.93439 4.10248 2.4278 3.28126 3.255ZM8.85907 5.3772L8.84626 0.396951L13.5499 0.653049L12.0637 2.15037C14.6793 4.91622 14.6469 9.2861 11.9596 11.9939C10.8105 13.1498 9.36187 13.8182 7.8637 14L7.8048 12.2278C8.87187 12.0665 9.89882 11.573 10.7192 10.7459C12.7253 8.72695 12.7594 5.47281 10.8285 3.395L8.85907 5.3772Z" fill="#607998"/>
</svg>
