<svg width="7" height="28" viewBox="0 0 7 28" fill="none" xmlns="http://www.w3.org/2000/svg">
<path fill-rule="evenodd" clip-rule="evenodd" d="M3.50151 6.80001C5.32401 6.80001 6.80001 5.32101 6.80001 3.50001C6.80001 1.67901 5.32401 0.200012 3.50151 0.200012C1.67901 0.200012 0.200012 1.67751 0.200012 3.50001C0.200012 5.32251 1.67901 6.80001 3.50151 6.80001ZM3.50151 10.7C1.67901 10.7 0.200012 12.1775 0.200012 14C0.200012 15.8225 1.67901 17.3 3.50151 17.3C5.32401 17.3 6.80001 15.8225 6.80001 14C6.80001 12.1775 5.32401 10.7 3.50151 10.7ZM0.200012 24.5C0.200012 22.6775 1.67901 21.2 3.50151 21.2C5.32401 21.2 6.80001 22.6775 6.80001 24.5C6.80001 26.3225 5.32401 27.8 3.50151 27.8C1.67901 27.8 0.200012 26.3225 0.200012 24.5Z" fill="#C1C2D0"/>
</svg>
