<svg width="24" height="24" viewBox="0 0 24 24" fill="none" xmlns="http://www.w3.org/2000/svg">
<path fill-rule="evenodd" clip-rule="evenodd" d="M6.99045 7.25142L7.53055 6.81792C8.80097 5.79826 10.3659 5.25 11.9902 5.25C13.1357 5.25 14.3042 5.57158 15.2059 6.24604C16.1274 6.93528 16.75 7.98356 16.75 9.33288C16.75 10.8402 16.054 11.8754 14.9313 12.7786L14.8624 12.8338C14.5751 13.0643 14.2876 13.2948 14.0162 13.5442C13.6358 13.9401 13.6719 15.7384 13.6719 15.7384H10.349C10.318 15.5208 10.2779 15.2965 10.2372 15.0683C10.0625 14.089 9.8752 13.0395 10.3331 12.1569C10.6688 11.4981 11.2288 11.0478 11.6199 10.7334C12.0021 10.426 12.8417 9.64132 12.287 9.17635C11.9636 8.89034 11.4304 8.98193 11.054 9.09147C10.8405 9.1566 10.6464 9.25806 10.4534 9.35891C10.1376 9.52399 9.82484 9.68746 9.43489 9.68746C8.68708 9.68746 8.21428 9.13226 7.9693 8.7886C7.77727 8.51922 7.60495 8.23566 7.43256 7.952C7.28904 7.71585 7.14546 7.47959 6.99045 7.25142ZM10.8403 8.37256C11.4408 8.1968 12.2824 8.17107 12.7764 8.60793C13.0385 8.82762 13.1695 9.12576 13.1695 9.50235C13.1695 10.4431 12.6236 10.8865 12.0489 11.3532C11.6585 11.6703 11.2549 11.9981 11 12.5C10.7064 13.0781 10.857 14.0563 10.962 14.7384C10.9758 14.8281 10.9889 14.9133 11 14.9913L13 15C13 14.5 13 13.5 13.5 13C13.7948 12.7284 14.0799 12.4999 14.3455 12.2871L14.4095 12.2358C15.3295 11.4992 16 10.9624 16 9.33288C16 7.14669 14.0211 6 11.9902 6C10.5362 6 9.13698 6.49026 8 7.40282C8.08548 7.52865 8.1679 7.68043 8.25397 7.83893C8.53303 8.35283 8.8505 8.93746 9.43489 8.93746C9.72394 8.93746 10.0132 8.77985 10.2966 8.62546C10.4809 8.52507 10.6627 8.42603 10.8403 8.37256Z" fill="#607998"/>
<path fill-rule="evenodd" clip-rule="evenodd" d="M13.75 18C13.75 18.9665 12.9665 19.75 12 19.75C11.0335 19.75 10.25 18.9665 10.25 18C10.25 17.0335 11.0335 16.25 12 16.25C12.9665 16.25 13.75 17.0335 13.75 18ZM12 19C12.5523 19 13 18.5523 13 18C13 17.4477 12.5523 17 12 17C11.4477 17 11 17.4477 11 18C11 18.5523 11.4477 19 12 19Z" fill="#607998"/>
<path fill-rule="evenodd" clip-rule="evenodd" d="M24 12C24 18.6274 18.6274 24 12 24C5.37258 24 0 18.6274 0 12C0 5.37258 5.37258 0 12 0C18.6274 0 24 5.37258 24 12ZM23.25 12C23.25 18.2132 18.2132 23.25 12 23.25C5.7868 23.25 0.75 18.2132 0.75 12C0.75 5.7868 5.7868 0.75 12 0.75C18.2132 0.75 23.25 5.7868 23.25 12Z" fill="#607998"/>
</svg>
