<svg width="97" height="115" viewBox="0 0 97 115" fill="none" xmlns="http://www.w3.org/2000/svg">
<path d="M31.5158 66.9071C31.4031 66.7568 31.3259 66.6509 31.2114 66.4907C30.807 65.925 30.4085 65.3399 30.1298 64.8936C29.9471 64.6211 29.9471 64.621 29.9102 64.5568C29.7259 64.2708 29.5057 63.9144 29.3178 63.5989C28.739 62.626 28.2635 61.7672 27.8102 60.8766C27.6945 60.6932 27.6164 60.5478 27.5503 60.3555C27.306 59.8551 27.069 59.3466 26.8319 58.8111C26.6238 58.3408 26.5455 58.1551 26.36 57.7076C26.2459 57.4218 26.2459 57.4218 26.225 57.3691C26.067 56.9714 25.9759 56.7384 25.8759 56.4676C25.6515 55.8669 25.436 55.2322 25.2156 54.5276L25.0975 54.1435C24.9278 53.5768 24.8149 53.1777 24.713 52.793C22.8019 51.1573 21.6772 48.7706 21.6772 46.22V38.3205C21.6772 36.3064 22.3783 34.3974 23.6449 32.8561V23.024L23.597 22.0023C23.3997 17.7969 24.4905 13.2039 27.9505 9.24301C32.2393 4.3307 39.0908 2 48.0446 2C56.9646 2 63.7977 4.31231 68.0887 9.18486C69.0057 10.2252 69.7733 11.3543 70.3999 12.5538C72.1693 15.9408 72.6572 19.3622 72.4735 22.2999C72.4472 22.6534 72.4471 32.8588 72.4471 32.8588C73.7101 34.3949 74.4121 36.3053 74.4121 38.3205V46.22C74.4121 49.5149 72.5496 52.4534 69.6842 53.9145C68.2514 58.0123 66.303 61.8225 63.8837 65.2482C63.4494 65.8661 63.0187 66.4435 62.6057 66.9605V73.3706C62.6057 75.0819 63.5341 76.5899 65.0503 77.3513L83.8481 86.7834C90.157 89.9493 94.0892 96.3352 94.0892 103.406V112.164H2V103.021C2 96.2189 5.69959 89.963 11.6547 86.7058L29.2073 77.0968C30.6302 76.3173 31.5158 74.8196 31.5158 73.1869V66.9071Z" stroke="#F6F6FA" stroke-width="4"/>
</svg>
