<svg width="71" height="84" viewBox="0 0 71 84" fill="none" xmlns="http://www.w3.org/2000/svg">
<path id="icon-contact" d="M23.4341 49.1351C23.3523 49.0259 23.2963 48.949 23.2131 48.8326C22.9194 48.4218 22.63 47.997 22.4277 47.6728C22.295 47.4749 22.295 47.4749 22.2682 47.4283C22.1343 47.2206 21.9744 46.9618 21.838 46.7326C21.4176 46.0262 21.0724 45.4025 20.7432 44.7557C20.6591 44.6225 20.6025 44.517 20.5545 44.3773C20.377 44.014 20.2049 43.6447 20.0328 43.2558C19.8816 42.9142 19.8248 42.7794 19.69 42.4544C19.6072 42.2469 19.6072 42.2469 19.592 42.2087C19.4773 41.9198 19.4111 41.7506 19.3385 41.5539C19.1755 41.1177 19.0191 40.6568 18.859 40.1451L18.7732 39.8662C18.65 39.4547 18.568 39.1649 18.494 38.8855C17.1062 37.6976 16.2894 35.9645 16.2894 34.1122V28.3757C16.2894 26.913 16.7986 25.5268 17.7184 24.4074V17.2675L17.6836 16.5255C17.5403 13.4716 18.3325 10.1362 20.845 7.25982C23.9596 3.69254 28.935 2 35.4373 2C41.9148 2 46.877 3.67918 49.9931 7.21759C50.659 7.9731 51.2164 8.79304 51.6715 9.66411C52.9564 12.1237 53.3107 14.6083 53.1774 16.7417C53.1583 16.9983 53.1582 24.4094 53.1582 24.4094C54.0753 25.5249 54.5851 26.9122 54.5851 28.3757V34.1122C54.5851 36.5049 53.2326 38.6389 51.1518 39.6999C50.1112 42.6757 48.6963 45.4427 46.9395 47.9304C46.6241 48.3791 46.3113 48.7984 46.0114 49.1739V53.8288C46.0114 55.0715 46.6856 56.1666 47.7867 56.7195L61.4375 63.569C66.0189 65.8681 68.8745 70.5055 68.8745 75.6406V82H2V75.3609C2 70.421 4.68661 65.878 9.01116 63.5127L21.7578 56.5347C22.791 55.9686 23.4341 54.881 23.4341 53.6954V49.1351Z" stroke="white" stroke-width="3"/>
</svg>
