<svg width="161" height="28" viewBox="0 0 161 28" fill="none" xmlns="http://www.w3.org/2000/svg">
<path d="M14.504 13.727H24.087V25.1045C22.7057 26.1158 21.2318 26.8497 19.6655 27.306C18.1115 27.7623 16.4835 27.9905 14.7815 27.9905C12.5615 27.9905 10.5388 27.6452 8.7135 26.9545C6.9005 26.2515 5.3465 25.2895 4.0515 24.0685C2.7565 22.8352 1.7575 21.3798 1.0545 19.7025C0.3515 18.0128 0 16.1813 0 14.208C0 12.1977 0.333 10.3538 0.999 8.6765C1.665 6.98683 2.61467 5.5315 3.848 4.3105C5.09367 3.0895 6.59217 2.13983 8.3435 1.4615C10.1072 0.783167 12.0743 0.444001 14.245 0.444001C15.3673 0.444001 16.4218 0.536501 17.4085 0.7215C18.3952 0.9065 19.3017 1.15933 20.128 1.48C20.9667 1.80067 21.7313 2.183 22.422 2.627C23.1127 3.071 23.7293 3.552 24.272 4.07L22.459 6.8265C22.1753 7.25817 21.8053 7.52333 21.349 7.622C20.905 7.72067 20.424 7.60967 19.906 7.289C19.4127 6.993 18.944 6.74017 18.5 6.5305C18.0683 6.3085 17.6243 6.12967 17.168 5.994C16.7117 5.85833 16.2307 5.75967 15.725 5.698C15.2193 5.63634 14.652 5.6055 14.023 5.6055C12.8513 5.6055 11.7968 5.81517 10.8595 6.2345C9.92217 6.6415 9.1205 7.22117 8.4545 7.9735C7.80083 8.72583 7.29517 9.63233 6.9375 10.693C6.57983 11.7413 6.401 12.913 6.401 14.208C6.401 15.6387 6.59833 16.909 6.993 18.019C7.38767 19.129 7.94267 20.0663 8.658 20.831C9.38567 21.5957 10.249 22.1815 11.248 22.5885C12.2593 22.9832 13.3755 23.1805 14.5965 23.1805C15.3488 23.1805 16.0272 23.1065 16.6315 22.9585C17.2482 22.8105 17.8463 22.6132 18.426 22.3665V18.278H15.762C15.3673 18.278 15.059 18.1732 14.837 17.9635C14.615 17.7538 14.504 17.4887 14.504 17.168V13.727Z" fill="white"/>
<path d="M36.2525 8.214C37.7078 8.214 39.0336 8.44217 40.23 8.8985C41.4263 9.35483 42.45 10.0085 43.301 10.8595C44.1643 11.7105 44.8303 12.7465 45.299 13.9675C45.78 15.1762 46.0205 16.539 46.0205 18.056C46.0205 19.5853 45.78 20.9667 45.299 22.2C44.8303 23.421 44.1643 24.4632 43.301 25.3265C42.45 26.1775 41.4263 26.8373 40.23 27.306C39.0336 27.7623 37.7078 27.9905 36.2525 27.9905C34.7848 27.9905 33.4467 27.7623 32.238 27.306C31.0417 26.8373 30.0057 26.1775 29.13 25.3265C28.2667 24.4632 27.5945 23.421 27.1135 22.2C26.6448 20.9667 26.4105 19.5853 26.4105 18.056C26.4105 16.539 26.6448 15.1762 27.1135 13.9675C27.5945 12.7465 28.2667 11.7105 29.13 10.8595C30.0057 10.0085 31.0417 9.35483 32.238 8.8985C33.4467 8.44217 34.7848 8.214 36.2525 8.214ZM36.2525 23.7355C37.5722 23.7355 38.5403 23.273 39.157 22.348C39.786 21.4107 40.1005 19.9923 40.1005 18.093C40.1005 16.1937 39.786 14.7815 39.157 13.8565C38.5403 12.9315 37.5722 12.469 36.2525 12.469C34.8958 12.469 33.903 12.9315 33.274 13.8565C32.645 14.7815 32.3305 16.1937 32.3305 18.093C32.3305 19.9923 32.645 21.4107 33.274 22.348C33.903 23.273 34.8958 23.7355 36.2525 23.7355Z" fill="white"/>
<path d="M57.7515 8.214C59.2068 8.214 60.5327 8.44217 61.729 8.8985C62.9253 9.35483 63.949 10.0085 64.8 10.8595C65.6633 11.7105 66.3293 12.7465 66.798 13.9675C67.279 15.1762 67.5195 16.539 67.5195 18.056C67.5195 19.5853 67.279 20.9667 66.798 22.2C66.3293 23.421 65.6633 24.4632 64.8 25.3265C63.949 26.1775 62.9253 26.8373 61.729 27.306C60.5327 27.7623 59.2068 27.9905 57.7515 27.9905C56.2838 27.9905 54.9457 27.7623 53.737 27.306C52.5407 26.8373 51.5047 26.1775 50.629 25.3265C49.7657 24.4632 49.0935 23.421 48.6125 22.2C48.1438 20.9667 47.9095 19.5853 47.9095 18.056C47.9095 16.539 48.1438 15.1762 48.6125 13.9675C49.0935 12.7465 49.7657 11.7105 50.629 10.8595C51.5047 10.0085 52.5407 9.35483 53.737 8.8985C54.9457 8.44217 56.2838 8.214 57.7515 8.214ZM57.7515 23.7355C59.0712 23.7355 60.0393 23.273 60.656 22.348C61.285 21.4107 61.5995 19.9923 61.5995 18.093C61.5995 16.1937 61.285 14.7815 60.656 13.8565C60.0393 12.9315 59.0712 12.469 57.7515 12.469C56.3948 12.469 55.402 12.9315 54.773 13.8565C54.144 14.7815 53.8295 16.1937 53.8295 18.093C53.8295 19.9923 54.144 21.4107 54.773 22.348C55.402 23.273 56.3948 23.7355 57.7515 23.7355Z" fill="white"/>
<path d="M82.044 13.653C81.6124 13.172 81.1437 12.839 80.638 12.654C80.1324 12.4567 79.602 12.358 79.047 12.358C78.5167 12.358 78.0295 12.4628 77.5855 12.6725C77.1415 12.8822 76.753 13.2213 76.42 13.69C76.0994 14.1463 75.8465 14.7445 75.6615 15.4845C75.4765 16.2245 75.384 17.1187 75.384 18.167C75.384 19.1783 75.458 20.0293 75.606 20.72C75.754 21.4107 75.9575 21.9718 76.2165 22.4035C76.4879 22.8228 76.8085 23.125 77.1785 23.31C77.5485 23.495 77.9617 23.5875 78.418 23.5875C78.8374 23.5875 79.2135 23.5505 79.5465 23.4765C79.8919 23.3902 80.2064 23.273 80.49 23.125C80.7737 22.977 81.0389 22.792 81.2855 22.57C81.5445 22.3357 81.7974 22.0705 82.044 21.7745V13.653ZM87.779 0V27.6945H84.227C83.5117 27.6945 83.043 27.3738 82.821 26.7325L82.377 25.271C81.9947 25.678 81.5939 26.048 81.1745 26.381C80.7552 26.714 80.2989 27.0038 79.8055 27.2505C79.3245 27.4848 78.8004 27.6637 78.233 27.787C77.678 27.9227 77.0737 27.9905 76.42 27.9905C75.421 27.9905 74.496 27.7685 73.645 27.3245C72.794 26.8805 72.0602 26.2392 71.4435 25.4005C70.8269 24.5618 70.3397 23.5382 69.982 22.3295C69.6367 21.1085 69.464 19.721 69.464 18.167C69.464 16.7363 69.6614 15.4105 70.056 14.1895C70.4507 12.9562 71.0057 11.8955 71.721 11.0075C72.4487 10.1072 73.3182 9.40417 74.3295 8.8985C75.3409 8.39283 76.457 8.14 77.678 8.14C78.677 8.14 79.5157 8.28183 80.194 8.5655C80.8724 8.84917 81.489 9.2315 82.044 9.7125V0H87.779Z" fill="white"/>
<path d="M112.466 23.2915C112.589 23.2915 112.694 23.3347 112.781 23.421L113.521 24.2165C112.978 24.7962 112.386 25.3203 111.745 25.789C111.116 26.2453 110.419 26.64 109.654 26.973C108.902 27.2937 108.069 27.5403 107.157 27.713C106.256 27.898 105.263 27.9905 104.178 27.9905C102.365 27.9905 100.7 27.676 99.1831 27.047C97.6785 26.4057 96.3835 25.5053 95.2981 24.346C94.2128 23.1743 93.368 21.7622 92.7636 20.1095C92.1716 18.4568 91.8756 16.6192 91.8756 14.5965C91.8756 12.6108 92.184 10.7978 92.8006 9.1575C93.4173 7.51717 94.2806 6.11117 95.3906 4.9395C96.5006 3.7555 97.8326 2.84283 99.3866 2.2015C100.941 1.54783 102.655 1.221 104.53 1.221C106.318 1.221 107.903 1.4985 109.284 2.0535C110.665 2.6085 111.923 3.39167 113.058 4.403L112.485 5.2355C112.386 5.3835 112.232 5.4575 112.022 5.4575C111.874 5.4575 111.634 5.32184 111.301 5.0505C110.968 4.77917 110.505 4.48317 109.913 4.1625C109.321 3.8295 108.581 3.52733 107.693 3.256C106.817 2.98467 105.763 2.849 104.53 2.849C102.951 2.849 101.502 3.12034 100.182 3.663C98.8748 4.20567 97.7463 4.98267 96.7966 5.994C95.8593 7.00533 95.1255 8.23867 94.5951 9.694C94.0648 11.1493 93.7996 12.7835 93.7996 14.5965C93.7996 16.4465 94.0648 18.0992 94.5951 19.5545C95.1378 21.0098 95.8778 22.2432 96.8151 23.2545C97.7525 24.2535 98.8563 25.0243 100.127 25.567C101.409 26.0973 102.791 26.3625 104.271 26.3625C105.208 26.3625 106.04 26.3008 106.768 26.1775C107.508 26.0542 108.186 25.8692 108.803 25.6225C109.42 25.3758 109.993 25.0737 110.524 24.716C111.054 24.3583 111.578 23.939 112.096 23.458C112.158 23.4087 112.219 23.3717 112.281 23.347C112.343 23.31 112.404 23.2915 112.466 23.2915Z" fill="white"/>
<path d="M124.677 8.991C125.996 8.991 127.174 9.21917 128.21 9.6755C129.259 10.1195 130.14 10.7547 130.856 11.581C131.571 12.4073 132.114 13.4063 132.484 14.578C132.866 15.7373 133.057 17.0385 133.057 18.4815C133.057 19.9245 132.866 21.2257 132.484 22.385C132.114 23.5443 131.571 24.5372 130.856 25.3635C130.14 26.1898 129.259 26.825 128.21 27.269C127.174 27.713 125.996 27.935 124.677 27.935C123.357 27.935 122.173 27.713 121.125 27.269C120.089 26.825 119.207 26.1898 118.479 25.3635C117.764 24.5372 117.215 23.5443 116.833 22.385C116.463 21.2257 116.278 19.9245 116.278 18.4815C116.278 17.0385 116.463 15.7373 116.833 14.578C117.215 13.4063 117.764 12.4073 118.479 11.581C119.207 10.7547 120.089 10.1195 121.125 9.6755C122.173 9.21917 123.357 8.991 124.677 8.991ZM124.677 26.5475C125.774 26.5475 126.73 26.3625 127.544 25.9925C128.371 25.6102 129.055 25.0675 129.598 24.3645C130.153 23.6615 130.566 22.8167 130.837 21.83C131.109 20.831 131.244 19.7148 131.244 18.4815C131.244 17.2605 131.109 16.1505 130.837 15.1515C130.566 14.1525 130.153 13.3015 129.598 12.5985C129.055 11.8832 128.371 11.3343 127.544 10.952C126.73 10.5697 125.774 10.3785 124.677 10.3785C123.579 10.3785 122.617 10.5697 121.791 10.952C120.977 11.3343 120.292 11.8832 119.737 12.5985C119.195 13.3015 118.781 14.1525 118.498 15.1515C118.226 16.1505 118.091 17.2605 118.091 18.4815C118.091 19.7148 118.226 20.831 118.498 21.83C118.781 22.8167 119.195 23.6615 119.737 24.3645C120.292 25.0675 120.977 25.6102 121.791 25.9925C122.617 26.3625 123.579 26.5475 124.677 26.5475Z" fill="white"/>
<path d="M139.981 9.287V27.6945H138.223V9.287H139.981ZM140.739 2.9415C140.739 3.1635 140.69 3.37317 140.591 3.5705C140.505 3.7555 140.388 3.922 140.24 4.07C140.092 4.218 139.919 4.33517 139.722 4.4215C139.524 4.50783 139.315 4.551 139.093 4.551C138.871 4.551 138.661 4.50783 138.464 4.4215C138.266 4.33517 138.094 4.218 137.946 4.07C137.798 3.922 137.68 3.7555 137.594 3.5705C137.508 3.37317 137.465 3.1635 137.465 2.9415C137.465 2.7195 137.508 2.50983 137.594 2.3125C137.68 2.10283 137.798 1.924 137.946 1.776C138.094 1.628 138.266 1.51083 138.464 1.4245C138.661 1.33817 138.871 1.295 139.093 1.295C139.315 1.295 139.524 1.33817 139.722 1.4245C139.919 1.51083 140.092 1.628 140.24 1.776C140.388 1.924 140.505 2.10283 140.591 2.3125C140.69 2.50983 140.739 2.7195 140.739 2.9415Z" fill="white"/>
<path d="M147.941 12.506C148.792 11.4453 149.773 10.5943 150.883 9.953C152.005 9.31167 153.251 8.991 154.62 8.991C155.631 8.991 156.519 9.15133 157.284 9.472C158.061 9.79267 158.702 10.2552 159.208 10.8595C159.713 11.4638 160.096 12.1915 160.355 13.0425C160.614 13.8935 160.743 14.8555 160.743 15.9285V27.6945H158.967V15.9285C158.967 14.2018 158.573 12.8513 157.783 11.877C156.994 10.8903 155.791 10.397 154.176 10.397C152.979 10.397 151.857 10.7053 150.809 11.322C149.773 11.9263 148.848 12.7712 148.034 13.8565V27.6945H146.258V9.287H147.238C147.547 9.287 147.725 9.44117 147.775 9.7495L147.941 12.506Z" fill="white"/>
</svg>
