<svg width="130" height="130" viewBox="0 0 130 130" fill="none" xmlns="http://www.w3.org/2000/svg">
<path d="M119.454 72.7781C119.594 71.7927 119.707 70.7989 119.794 69.7974C119.93 68.2164 120 66.6163 120 65C120 63.3836 119.93 61.7836 119.794 60.2026C119.707 59.2011 119.594 58.2073 119.454 57.2219C119.313 56.2264 119.146 55.2394 118.952 54.2618C115.817 54.703 113.54 57.527 113.816 60.7192C113.938 62.1285 114 63.5563 114 65C114 66.4437 113.938 67.8715 113.816 69.2808C113.54 72.473 115.817 75.2969 118.952 75.7382C119.146 74.7606 119.313 73.7736 119.454 72.7781Z" fill="white"/>
<path d="M117.096 82.6822C114.16 81.4995 110.778 82.8082 109.423 85.7104C108.21 88.3055 106.777 90.7779 105.146 93.1033C103.305 95.7265 103.858 99.312 106.35 101.267C107.01 100.515 107.65 99.7446 108.269 98.9572C108.886 98.1714 109.483 97.3684 110.058 96.549C111.888 93.9398 113.497 91.1643 114.859 88.2497C115.281 87.3455 115.68 86.428 116.053 85.4978C116.426 84.5715 116.773 83.6327 117.096 82.6822Z" fill="white"/>
<path d="M101.267 106.35C99.312 103.858 95.7265 103.305 93.1033 105.146C90.7779 106.777 88.3055 108.21 85.7104 109.423C82.8082 110.778 81.4995 114.16 82.6822 117.096C83.6327 116.773 84.5715 116.426 85.4978 116.053C86.428 115.68 87.3455 115.281 88.2497 114.859C91.1643 113.497 93.9398 111.888 96.549 110.058C97.3684 109.483 98.1714 108.886 98.9572 108.269C99.7446 107.65 100.515 107.01 101.267 106.35Z" fill="white"/>
<path d="M75.7382 118.952C75.2969 115.817 72.473 113.54 69.2808 113.816C67.8715 113.938 66.4437 114 65 114C63.5563 114 62.1285 113.938 60.7192 113.816C57.527 113.54 54.7031 115.817 54.2618 118.952C55.2394 119.146 56.2264 119.313 57.2219 119.454C58.2073 119.594 59.2011 119.707 60.2026 119.794C61.7836 119.93 63.3836 120 65 120C66.6163 120 68.2164 119.93 69.7974 119.794C70.7989 119.707 71.7927 119.594 72.7781 119.454C73.7736 119.313 74.7606 119.146 75.7382 118.952Z" fill="white"/>
<path d="M47.3178 117.096C48.5005 114.16 47.1918 110.778 44.2896 109.423C41.6945 108.21 39.2221 106.777 36.8967 105.146C34.2735 103.305 30.688 103.858 28.7334 106.35C29.4853 107.01 30.2554 107.65 31.0428 108.269C31.8286 108.886 32.6316 109.483 33.451 110.058C36.0602 111.888 38.8357 113.497 41.7503 114.859C42.6545 115.281 43.572 115.68 44.5022 116.053C45.4285 116.426 46.3673 116.773 47.3178 117.096Z" fill="white"/>
<path d="M23.6501 101.267C26.1415 99.312 26.6946 95.7265 24.8544 93.1033C23.2232 90.7779 21.7896 88.3055 20.5774 85.7104C19.2218 82.8082 15.84 81.4995 12.9041 82.6822C13.2266 83.6327 13.5744 84.5715 13.9466 85.4978C14.3204 86.428 14.7189 87.3455 15.1413 88.2497C16.5027 91.1643 18.1121 93.9398 19.9425 96.549C20.5173 97.3684 21.1139 98.1714 21.7315 98.9572C22.3503 99.7446 22.9901 100.515 23.6501 101.267Z" fill="white"/>
<path d="M11.0477 75.7382C14.1831 75.2969 16.4599 72.473 16.1841 69.2808C16.0623 67.8715 16 66.4437 16 65C16 63.5563 16.0623 62.1285 16.1841 60.7192C16.4599 57.527 14.1831 54.7031 11.0477 54.2618C10.8542 55.2394 10.6867 56.2264 10.5457 57.2219C10.4062 58.2073 10.2929 59.2011 10.2063 60.2026C10.0697 61.7836 10 63.3836 10 65C10 66.6163 10.0697 68.2164 10.2063 69.7974C10.2929 70.7989 10.4062 71.7927 10.5457 72.7781C10.6867 73.7736 10.8542 74.7606 11.0477 75.7382Z" fill="white"/>
<path d="M12.9041 47.3178C15.84 48.5005 19.2218 47.1918 20.5774 44.2896C21.7896 41.6945 23.2232 39.2221 24.8544 36.8967C26.6946 34.2735 26.1415 30.688 23.6501 28.7334C22.9901 29.4853 22.3503 30.2554 21.7315 31.0428C21.1139 31.8286 20.5173 32.6316 19.9425 33.451C18.1121 36.0602 16.5027 38.8357 15.1413 41.7503C14.7189 42.6545 14.3204 43.572 13.9466 44.5022C13.5744 45.4285 13.2266 46.3673 12.9041 47.3178Z" fill="white"/>
<path d="M28.7334 23.6501C30.688 26.1415 34.2735 26.6946 36.8967 24.8544C39.2221 23.2232 41.6945 21.7896 44.2896 20.5774C47.1918 19.2218 48.5005 15.84 47.3178 12.9041C46.3673 13.2266 45.4285 13.5744 44.5022 13.9466C43.572 14.3204 42.6545 14.7189 41.7503 15.1413C38.8357 16.5027 36.0602 18.1121 33.451 19.9425C32.6316 20.5173 31.8286 21.1139 31.0428 21.7315C30.2554 22.3503 29.4853 22.9901 28.7334 23.6501Z" fill="white"/>
<path d="M54.2618 11.0477C54.703 14.1831 57.527 16.4599 60.7192 16.1841C62.1285 16.0623 63.5563 16 65 16C66.4437 16 67.8715 16.0623 69.2808 16.1841C72.473 16.4599 75.2969 14.1831 75.7382 11.0477C74.7606 10.8542 73.7736 10.6867 72.7781 10.5457C71.7927 10.4062 70.7989 10.2929 69.7974 10.2063C68.2164 10.0697 66.6163 10 65 10C63.3836 10 61.7836 10.0697 60.2026 10.2063C59.2011 10.2929 58.2073 10.4062 57.2219 10.5457C56.2264 10.6867 55.2394 10.8542 54.2618 11.0477Z" fill="white"/>
<path d="M82.6822 12.9041C81.4995 15.84 82.8082 19.2218 85.7104 20.5774C88.3055 21.7896 90.7779 23.2232 93.1033 24.8544C95.7265 26.6946 99.312 26.1415 101.267 23.6501C100.515 22.9901 99.7446 22.3503 98.9572 21.7315C98.1714 21.1139 97.3684 20.5173 96.549 19.9425C93.9398 18.1122 91.1643 16.5027 88.2497 15.1413C87.3455 14.7189 86.428 14.3204 85.4978 13.9466C84.5715 13.5744 83.6327 13.2266 82.6822 12.9041Z" fill="white"/>
<path d="M106.35 28.7334C103.858 30.688 103.305 34.2735 105.146 36.8967C106.777 39.2221 108.21 41.6945 109.423 44.2896C110.778 47.1918 114.16 48.5005 117.096 47.3178C116.773 46.3673 116.426 45.4285 116.053 44.5022C115.68 43.572 115.281 42.6545 114.859 41.7503C113.497 38.8357 111.888 36.0602 110.058 33.451C109.483 32.6316 108.886 31.8286 108.269 31.0428C107.65 30.2554 107.01 29.4853 106.35 28.7334Z" fill="white"/>
<path d="M60 33C60 31.8954 59.1046 31 58 31C56.8954 31 56 31.8954 56 33V39.4902C55.5004 39.6504 55.009 39.8235 54.5258 40.0095C51.0454 41.3491 48.0782 43.2346 45.6244 45.6658C43.1956 48.097 41.3177 50.9995 39.9906 54.3735C38.6635 57.7474 38 61.4562 38 65.5C38 69.4941 38.6886 73.1782 40.0657 76.5521C41.4429 79.926 43.3959 82.8286 45.9249 85.2598C48.4789 87.691 51.5462 89.5889 55.1268 90.9533C55.4152 91.0625 55.7063 91.1673 56 91.2677V98C56 99.1046 56.8954 100 58 100C59.1046 100 60 99.1046 60 98L60 92.3336C62.2598 92.7779 64.6542 93 67.1831 93C67.4567 93 67.729 92.9973 68 92.9919V98C68 99.1046 68.8954 100 70 100C71.1046 100 72 99.1046 72 98V92.7019C73.789 92.4735 75.5136 92.1139 77.1737 91.6231C80.3036 90.6804 83.2457 89.2043 86 87.1949V65.4256H67.9718V71.0819C67.9718 71.6028 68.1471 72.0494 68.4977 72.4215C68.8732 72.7688 69.3866 72.9425 70.0376 72.9425H76.8732V82.6922C75.3709 83.4116 73.831 83.9822 72.2535 84.4039C70.6761 84.8257 68.8858 85.0365 66.8826 85.0365C64.0782 85.0365 61.5368 84.6024 59.2582 83.7341C56.9797 82.841 55.0266 81.5634 53.3991 79.9012C51.7966 78.2143 50.5446 76.1676 49.6432 73.7612C48.7668 71.3299 48.3286 68.5762 48.3286 65.5C48.3286 62.6222 48.7418 60.0174 49.5681 57.6854C50.3944 55.3534 51.5712 53.3563 53.0986 51.6942C54.626 50.032 56.4664 48.7544 58.6197 47.8613C60.7981 46.9682 63.2269 46.5216 65.9061 46.5216C67.5587 46.5216 69.011 46.6333 70.2629 46.8566C71.5399 47.0798 72.6792 47.3651 73.6808 47.7124C74.7074 48.0598 75.6338 48.4691 76.4601 48.9405L78.939 50.3545C79.7903 50.8755 80.579 51.0616 81.3052 50.9127C82.0313 50.7391 82.6197 50.2925 83.0704 49.5731L85.9624 45.0331C84.8357 43.9912 83.5962 43.0361 82.2441 42.1678C80.892 41.2995 79.3897 40.5677 77.7371 39.9723C76.1096 39.3521 74.3318 38.8683 72.4038 38.521C72.2699 38.4965 72.1353 38.473 72 38.4503V33C72 31.8954 71.1046 31 70 31C68.8954 31 68 31.8954 68 33V38.0382C67.4257 38.0127 66.8404 38 66.2441 38C64.0539 38 61.9726 38.1712 60 38.5137V33Z" fill="white"/>
<path fill-rule="evenodd" clip-rule="evenodd" d="M130 65C130 65.3292 129.998 65.6578 129.993 65.9858L127.993 65.9561C127.983 66.5923 127.965 67.2261 127.936 67.8576L129.934 67.9467C129.905 68.6034 129.866 69.2576 129.817 69.9091L127.823 69.7602C127.776 70.3938 127.719 71.0248 127.653 71.653L129.642 71.8618C129.574 72.5154 129.495 73.1661 129.407 73.8137L127.425 73.5451C127.34 74.1751 127.245 74.8022 127.141 75.4262L129.114 75.7547C129.007 76.4016 128.889 77.0453 128.763 77.6856L126.8 77.2974C126.677 77.9214 126.544 78.5422 126.402 79.1595L128.352 79.6073C128.206 80.2459 128.049 80.881 127.884 81.5123L125.949 81.0055C125.788 81.6207 125.618 82.2322 125.439 82.8398L127.357 83.4053C127.172 84.0343 126.978 84.6592 126.774 85.2801L124.873 84.6564C124.675 85.2597 124.468 85.8589 124.253 86.454L126.134 87.1352C125.91 87.7519 125.678 88.3643 125.437 88.9722L123.577 88.2341C123.343 88.8242 123.1 89.4099 122.849 89.991L124.685 90.7853C124.425 91.3869 124.155 91.9837 123.878 92.5757L122.067 91.726C121.797 92.301 121.519 92.8712 121.232 93.4365L123.017 94.3408C122.721 94.9249 122.416 95.504 122.103 96.0778L120.347 95.12C120.043 95.6777 119.731 96.2302 119.41 96.7775L121.137 97.788C120.806 98.3533 120.467 98.9131 120.119 99.4673L118.424 98.4052C118.087 98.943 117.742 99.4755 117.39 100.002L119.052 101.115C118.687 101.659 118.315 102.198 117.935 102.73L116.307 101.568C115.938 102.085 115.562 102.595 115.178 103.1L116.77 104.311C116.373 104.832 115.969 105.347 115.558 105.856L114.003 104.598C113.604 105.091 113.197 105.579 112.783 106.059L114.3 107.364C113.873 107.86 113.439 108.35 112.997 108.833L111.521 107.484C111.093 107.952 110.658 108.414 110.216 108.87L111.651 110.263C111.195 110.732 110.732 111.195 110.263 111.651L108.87 110.216C108.414 110.658 107.952 111.093 107.484 111.521L108.833 112.997C108.35 113.439 107.86 113.873 107.364 114.3L106.06 112.783C105.579 113.197 105.091 113.604 104.598 114.003L105.856 115.558C105.347 115.969 104.832 116.373 104.311 116.77L103.1 115.178C102.595 115.562 102.085 115.938 101.568 116.307L102.73 117.935C102.198 118.315 101.659 118.687 101.115 119.052L100.002 117.39C99.4755 117.742 98.943 118.087 98.4052 118.424L99.4673 120.119C98.9131 120.467 98.3533 120.806 97.788 121.137L96.7775 119.41C96.2302 119.731 95.6777 120.043 95.12 120.347L96.0778 122.103C95.504 122.416 94.9249 122.721 94.3407 123.017L93.4365 121.232C92.8712 121.519 92.3009 121.797 91.726 122.067L92.5756 123.878C91.9837 124.155 91.3868 124.425 90.7853 124.685L89.991 122.849C89.4098 123.1 88.8242 123.343 88.2341 123.577L88.9722 125.437C88.3643 125.678 87.7519 125.91 87.1351 126.134L86.4539 124.253C85.8589 124.468 85.2596 124.675 84.6564 124.873L85.28 126.774C84.6592 126.978 84.0342 127.172 83.4053 127.357L82.8398 125.439C82.2321 125.618 81.6206 125.788 81.0055 125.949L81.5122 127.884C80.8809 128.049 80.2459 128.206 79.6072 128.352L79.1595 126.402C78.5422 126.544 77.9214 126.677 77.2973 126.8L77.6855 128.763C77.0452 128.889 76.4016 129.007 75.7547 129.114L75.4262 127.141C74.8022 127.245 74.1751 127.34 73.545 127.425L73.8137 129.408C73.166 129.495 72.5153 129.574 71.8617 129.642L71.653 127.653C71.0248 127.719 70.3938 127.776 69.7601 127.823L69.9091 129.817C69.2576 129.866 68.6034 129.905 67.9467 129.934L67.8575 127.936C67.2261 127.965 66.5922 127.983 65.9561 127.993L65.9858 129.993C65.6578 129.998 65.3292 130 65 130C64.6708 130 64.3422 129.998 64.0142 129.993L64.0439 127.993C63.4077 127.983 62.7739 127.965 62.1424 127.936L62.0533 129.934C61.3966 129.905 60.7424 129.866 60.0909 129.817L60.2398 127.823C59.6062 127.776 58.9752 127.719 58.347 127.653L58.1382 129.642C57.4846 129.574 56.8339 129.495 56.1863 129.407L56.4549 127.425C55.8249 127.34 55.1978 127.245 54.5738 127.141L54.2453 129.114C53.5984 129.007 52.9547 128.889 52.3144 128.763L52.7026 126.8C52.0785 126.677 51.4578 126.544 50.8405 126.402L50.3927 128.352C49.7541 128.206 49.119 128.049 48.4877 127.884L48.9945 125.949C48.3793 125.788 47.7678 125.618 47.1602 125.439L46.5947 127.357C45.9657 127.172 45.3408 126.978 44.7199 126.774L45.3436 124.873C44.7403 124.675 44.1411 124.468 43.546 124.253L42.8648 126.134C42.2481 125.91 41.6357 125.678 41.0278 125.437L41.7659 123.577C41.1758 123.343 40.5901 123.1 40.009 122.849L39.2147 124.685C38.6131 124.425 38.0163 124.155 37.4243 123.878L38.274 122.067C37.699 121.797 37.1288 121.519 36.5635 121.232L35.6592 123.017C35.0751 122.721 34.496 122.416 33.9222 122.103L34.88 120.347C34.3223 120.043 33.7698 119.731 33.2225 119.41L32.212 121.137C31.6467 120.806 31.0869 120.467 30.5327 120.119L31.5948 118.424C31.057 118.087 30.5245 117.742 29.9977 117.39L28.885 119.052C28.3407 118.687 27.8021 118.315 27.2696 117.935L28.4319 116.307C27.9154 115.938 27.4046 115.562 26.8999 115.178L25.6891 116.77C25.1679 116.373 24.6529 115.969 24.1441 115.558L25.4022 114.003C24.9088 113.604 24.4215 113.197 23.9405 112.783L22.6363 114.3C22.14 113.873 21.6502 113.439 21.1671 112.997L22.5162 111.521C22.0477 111.093 21.5857 110.658 21.1303 110.216L19.7375 111.651C19.2678 111.195 18.8049 110.732 18.349 110.263L19.7843 108.87C19.3424 108.414 18.9074 107.952 18.4793 107.484L17.0028 108.833C16.5614 108.35 16.1271 107.86 15.7002 107.364L17.2166 106.06C16.8029 105.579 16.3964 105.091 15.9971 104.598L14.4423 105.856C14.0307 105.347 13.6266 104.832 13.2302 104.311L14.8222 103.1C14.4384 102.595 14.0619 102.085 13.6931 101.568L12.0654 102.73C11.6851 102.198 11.3127 101.659 10.9482 101.115L12.6104 100.002C12.2577 99.4755 11.9128 98.943 11.5757 98.4052L9.88077 99.4673C9.53347 98.9131 9.1943 98.3533 8.86342 97.788L10.5897 96.7775C10.2694 96.2302 9.95711 95.6777 9.65299 95.12L7.89682 96.0778C7.58386 95.504 7.27929 94.9249 6.98329 94.3407L8.7677 93.4365C8.48124 92.8712 8.20306 92.3009 7.93331 91.726L6.12225 92.5756C5.84452 91.9837 5.57546 91.3868 5.31523 90.7853L7.15129 89.991C6.89988 89.4098 6.65698 88.8242 6.42274 88.2341L4.56336 88.9722C4.32203 88.3643 4.0896 87.7519 3.86624 87.1351L5.74724 86.4539C5.53173 85.8589 5.32494 85.2596 5.12701 84.6564L3.22616 85.28C3.02247 84.6592 2.82787 84.0342 2.64253 83.4053L4.56146 82.8398C4.38238 82.2321 4.21221 81.6206 4.05111 81.0055L2.11587 81.5122C1.95055 80.8809 1.79449 80.2459 1.64783 79.6072L3.59753 79.1595C3.45575 78.5422 3.32305 77.9214 3.19956 77.2973L1.23721 77.6855C1.11055 77.0452 0.993282 76.4016 0.885572 75.7547L2.85872 75.4261C2.7548 74.8022 2.66005 74.1751 2.57461 73.545L0.592503 73.8137C0.504703 73.166 0.426443 72.5153 0.35787 71.8617L2.34711 71.653C2.28117 71.0248 2.22447 70.3938 2.17714 69.7602L0.182596 69.9091C0.133946 69.2576 0.094901 68.6034 0.0656007 67.9467L2.06365 67.8575C2.03546 67.2261 2.01657 66.5922 2.00711 65.956L0.00732334 65.9858C0.00244685 65.6578 0 65.3292 0 65C0 64.6708 0.00244718 64.3422 0.00732434 64.0142L2.00711 64.0439C2.01657 63.4077 2.03546 62.7739 2.06365 62.1424L0.0656033 62.0533C0.0949042 61.3966 0.13395 60.7424 0.1826 60.0909L2.17714 60.2398C2.22447 59.6062 2.28118 58.9752 2.34712 58.347L0.357875 58.1382C0.426449 57.4846 0.504709 56.8339 0.59251 56.1863L2.57462 56.455C2.66005 55.8249 2.7548 55.1978 2.85873 54.5738L0.88558 54.2453C0.99329 53.5984 1.11055 52.9547 1.23722 52.3144L3.19957 52.7026C3.32306 52.0786 3.45576 51.4578 3.59754 50.8405L1.64784 50.3927C1.79449 49.7541 1.95056 49.119 2.11588 48.4877L4.05111 48.9945C4.21222 48.3793 4.38239 47.7678 4.56147 47.1602L2.64254 46.5947C2.82788 45.9657 3.02248 45.3408 3.22617 44.7199L5.12702 45.3436C5.32495 44.7403 5.53174 44.1411 5.74724 43.546L3.86625 42.8648C4.08961 42.2481 4.32204 41.6357 4.56337 41.0278L6.42274 41.7659C6.65699 41.1758 6.89989 40.5901 7.15129 40.009L5.31523 39.2147C5.57547 38.6131 5.84453 38.0163 6.12226 37.4243L7.93332 38.274C8.20306 37.699 8.48125 37.1288 8.7677 36.5635L6.98329 35.6592C7.2793 35.0751 7.58386 34.496 7.89683 33.9222L9.653 34.88C9.95712 34.3223 10.2694 33.7698 10.5898 33.2225L8.86342 32.212C9.1943 31.6467 9.53347 31.0869 9.88077 30.5327L11.5757 31.5948C11.9128 31.057 12.2577 30.5245 12.6104 29.9977L10.9482 28.885C11.3127 28.3407 11.6851 27.8021 12.0654 27.2696L13.6931 28.4319C14.0619 27.9154 14.4384 27.4046 14.8222 26.8999L13.2302 25.6891C13.6266 25.1679 14.0307 24.6529 14.4423 24.1441L15.9971 25.4022C16.3964 24.9088 16.8029 24.4215 17.2166 23.9405L15.7002 22.6363C16.1271 22.14 16.5614 21.6502 17.0028 21.1671L18.4793 22.5162C18.9073 22.0477 19.3424 21.5857 19.7843 21.1303L18.349 19.7375C18.8049 19.2678 19.2678 18.8049 19.7375 18.349L21.1303 19.7843C21.5857 19.3424 22.0477 18.9074 22.5162 18.4793L21.1671 17.0028C21.6502 16.5614 22.14 16.1271 22.6363 15.7002L23.9405 17.2166C24.4215 16.8029 24.9088 16.3964 25.4022 15.9971L24.1441 14.4423C24.6529 14.0307 25.1679 13.6266 25.6891 13.2302L26.8999 14.8222C27.4046 14.4384 27.9154 14.0619 28.4319 13.6931L27.2696 12.0654C27.8021 11.6851 28.3406 11.3127 28.885 10.9482L29.9977 12.6104C30.5245 12.2577 31.057 11.9128 31.5948 11.5757L30.5327 9.88077C31.0869 9.53347 31.6467 9.1943 32.212 8.86342L33.2225 10.5897C33.7698 10.2694 34.3223 9.95712 34.88 9.65299L33.9222 7.89682C34.496 7.58386 35.0751 7.27929 35.6593 6.98329L36.5635 8.7677C37.1288 8.48124 37.6991 8.20306 38.274 7.93331L37.4244 6.12225C38.0163 5.84452 38.6132 5.57546 39.2147 5.31522L40.009 7.15129C40.5902 6.89988 41.1758 6.65698 41.7659 6.42274L41.0278 4.56336C41.6357 4.32203 42.2481 4.0896 42.8649 3.86624L43.5461 5.74724C44.1411 5.53173 44.7404 5.32494 45.3436 5.12701L44.72 3.22616C45.3408 3.02247 45.9658 2.82787 46.5947 2.64253L47.1602 4.56146C47.7679 4.38238 48.3794 4.21221 48.9945 4.0511L48.4878 2.11587C49.1191 1.95055 49.7541 1.79449 50.3928 1.64783L50.8405 3.59753C51.4578 3.45575 52.0786 3.32305 52.7027 3.19956L52.3145 1.23721C52.9548 1.11055 53.5984 0.993282 54.2453 0.885572L54.5738 2.85872C55.1978 2.7548 55.8249 2.66005 56.455 2.57461L56.1863 0.592503C56.834 0.504703 57.4847 0.426443 58.1383 0.35787L58.347 2.34711C58.9752 2.28117 59.6062 2.22447 60.2398 2.17714L60.0909 0.182596C60.7424 0.133947 61.3966 0.0949011 62.0533 0.0656008L62.1425 2.06365C62.7739 2.03546 63.4078 2.01657 64.0439 2.00711L64.0142 0.00732337C64.3422 0.00244686 64.6708 0 65 0C65.3292 0 65.6578 0.00244717 65.9858 0.00732431L65.9561 2.00711C66.5923 2.01657 67.2261 2.03546 67.8576 2.06365L67.9467 0.0656034C68.6034 0.0949043 69.2576 0.13395 69.9091 0.1826L69.7602 2.17714C70.3938 2.22447 71.0248 2.28118 71.653 2.34712L71.8618 0.357875C72.5154 0.426449 73.1661 0.504709 73.8137 0.592509L73.5451 2.57462C74.1751 2.66005 74.8022 2.7548 75.4262 2.85873L75.7547 0.88558C76.4016 0.99329 77.0453 1.11055 77.6856 1.23722L77.2974 3.19957C77.9214 3.32306 78.5422 3.45576 79.1595 3.59754L79.6073 1.64784C80.2459 1.79449 80.881 1.95056 81.5123 2.11588L81.0055 4.05111C81.6207 4.21221 82.2321 4.38239 82.8398 4.56147L83.4053 2.64254C84.0342 2.82788 84.6592 3.02248 85.2801 3.22617L84.6564 5.12702C85.2597 5.32495 85.8589 5.53174 86.454 5.74724L87.1352 3.86625C87.7519 4.08961 88.3643 4.32203 88.9722 4.56337L88.2341 6.42274C88.8242 6.65699 89.4099 6.89989 89.991 7.15129L90.7853 5.31523C91.3869 5.57547 91.9837 5.84453 92.5757 6.12226L91.726 7.93332C92.301 8.20306 92.8712 8.48125 93.4365 8.7677L94.3408 6.98329C94.9249 7.2793 95.504 7.58386 96.0778 7.89683L95.12 9.653C95.6777 9.95712 96.2302 10.2694 96.7775 10.5898L97.788 8.86342C98.3533 9.1943 98.9131 9.53347 99.4673 9.88077L98.4052 11.5757C98.943 11.9128 99.4755 12.2577 100.002 12.6104L101.115 10.9482C101.659 11.3127 102.198 11.6851 102.73 12.0654L101.568 13.6931C102.085 14.0619 102.595 14.4384 103.1 14.8222L104.311 13.2302C104.832 13.6266 105.347 14.0307 105.856 14.4423L104.598 15.9971C105.091 16.3964 105.579 16.8029 106.059 17.2166L107.364 15.7002C107.86 16.1271 108.35 16.5614 108.833 17.0028L107.484 18.4793C107.952 18.9074 108.414 19.3424 108.87 19.7843L110.263 18.349C110.732 18.8049 111.195 19.2678 111.651 19.7375L110.216 21.1303C110.658 21.5857 111.093 22.0477 111.521 22.5162L112.997 21.1671C113.439 21.6502 113.873 22.14 114.3 22.6363L112.783 23.9405C113.197 24.4215 113.604 24.9088 114.003 25.4022L115.558 24.1441C115.969 24.6529 116.373 25.1679 116.77 25.6891L115.178 26.8999C115.562 27.4046 115.938 27.9154 116.307 28.4319L117.935 27.2696C118.315 27.8021 118.687 28.3406 119.052 28.885L117.39 29.9977C117.742 30.5245 118.087 31.057 118.424 31.5948L120.119 30.5327C120.467 31.0869 120.806 31.6467 121.137 32.212L119.41 33.2225C119.731 33.7698 120.043 34.3223 120.347 34.88L122.103 33.9222C122.416 34.496 122.721 35.0751 123.017 35.6593L121.232 36.5635C121.519 37.1288 121.797 37.6991 122.067 38.274L123.878 37.4244C124.155 38.0163 124.425 38.6132 124.685 39.2147L122.849 40.009C123.1 40.5902 123.343 41.1758 123.577 41.7659L125.437 41.0278C125.678 41.6357 125.91 42.2481 126.134 42.8649L124.253 43.5461C124.468 44.1411 124.675 44.7404 124.873 45.3436L126.774 44.72C126.978 45.3408 127.172 45.9658 127.357 46.5947L125.439 47.1602C125.618 47.7679 125.788 48.3794 125.949 48.9945L127.884 48.4878C128.049 49.1191 128.206 49.7541 128.352 50.3928L126.402 50.8405C126.544 51.4578 126.677 52.0786 126.8 52.7027L128.763 52.3145C128.889 52.9548 129.007 53.5984 129.114 54.2453L127.141 54.5738C127.245 55.1978 127.34 55.8249 127.425 56.455L129.408 56.1863C129.495 56.834 129.574 57.4847 129.642 58.1383L127.653 58.347C127.719 58.9752 127.776 59.6062 127.823 60.2398L129.817 60.0909C129.866 60.7424 129.905 61.3966 129.934 62.0533L127.936 62.1425C127.965 62.7739 127.983 63.4078 127.993 64.0439L129.993 64.0142C129.998 64.3422 130 64.6708 130 65ZM121.994 64.1331C121.769 49.0459 115.682 35.3791 105.91 25.3088C105.51 24.8965 105.103 24.4903 104.691 24.0902C94.6209 14.318 80.9541 8.23138 65.8669 8.00644C65.5785 8.00215 65.2895 8 65 8C64.7105 8 64.4215 8.00215 64.1331 8.00644C49.0459 8.23136 35.3791 14.318 25.3088 24.0902C24.8965 24.4903 24.4903 24.8965 24.0902 25.3088C14.318 35.3791 8.23138 49.0459 8.00644 64.1331C8.00215 64.4215 8 64.7105 8 65C8 65.2895 8.00215 65.5785 8.00644 65.8669C8.23136 80.9541 14.318 94.6209 24.0902 104.691C24.4903 105.103 24.8965 105.51 25.3088 105.91C35.3791 115.682 49.0459 121.769 64.1331 121.994C64.4215 121.998 64.7105 122 65 122C65.2895 122 65.5785 121.998 65.8669 121.994C80.9541 121.769 94.6209 115.682 104.691 105.91C105.103 105.51 105.51 105.103 105.91 104.691C115.682 94.6209 121.769 80.9541 121.994 65.8669C121.998 65.5785 122 65.2895 122 65C122 64.7105 121.998 64.4215 121.994 64.1331Z" fill="white"/>
</svg>
