<svg width="18" height="18" viewBox="0 0 18 18" fill="none" xmlns="http://www.w3.org/2000/svg">
<path fill-rule="evenodd" clip-rule="evenodd" d="M9.91255 12.0332C8.92069 12.6462 7.75166 13 6.5 13C2.91015 13 0 10.0899 0 6.5C0 2.91015 2.91015 0 6.5 0C10.0899 0 13 2.91015 13 6.5C13 7.75166 12.6462 8.92069 12.0332 9.91255C12.0424 9.92134 12.0516 9.93027 12.0607 9.93934L17.5607 15.4393C18.1464 16.0251 18.1464 16.9749 17.5607 17.5607C16.9749 18.1464 16.0251 18.1464 15.4393 17.5607L9.93934 12.0607C9.93027 12.0516 9.92134 12.0424 9.91255 12.0332ZM11 6.5C11 8.98528 8.98528 11 6.5 11C4.01472 11 2 8.98528 2 6.5C2 4.01472 4.01472 2 6.5 2C8.98528 2 11 4.01472 11 6.5Z" fill="#C2C0D1"/>
</svg>
