<svg width="23" height="23" viewBox="0 0 23 23" fill="none" xmlns="http://www.w3.org/2000/svg">
<path fill-rule="evenodd" clip-rule="evenodd" d="M18.0811 0.0149855C18.0811 0.0149855 19.4964 -0.267312 21.3808 1.61859C23.2229 3.46084 22.9965 4.8535 22.9859 4.91881C22.9857 4.9204 22.9855 4.92121 22.9856 4.92121L15.0767 12.8308L6.22436 21.68L0 23L1.31988 16.7764L10.1722 7.92454L18.0811 0.0149855ZM3.73226 21.3899L5.85453 20.9324L6.47004 20.3208C6.47004 20.3208 6.44521 19.1642 5.14232 17.8624C3.83812 16.5581 2.6842 16.5346 2.6842 16.5346L2.06999 17.1476L1.61261 19.2687C1.99551 19.4752 2.3784 19.7196 2.83056 20.1718C3.28141 20.624 3.5284 21.0069 3.73226 21.3899Z" fill="#607998"/>
</svg>
