<svg width="135" height="32" viewBox="0 0 135 32" fill="none" xmlns="http://www.w3.org/2000/svg">
<path d="M39.3382 4.548C39.8662 4.548 40.2462 4.422 40.4782 4.17C40.7102 3.918 40.8262 3.566 40.8262 3.114C40.8262 2.914 40.7962 2.732 40.7362 2.568C40.6762 2.404 40.5842 2.264 40.4602 2.148C40.3402 2.028 40.1862 1.936 39.9982 1.872C39.8142 1.808 39.5942 1.776 39.3382 1.776H38.2822V4.548H39.3382ZM39.3382 0.258C39.9542 0.258 40.4822 0.332 40.9222 0.48C41.3662 0.624 41.7302 0.824 42.0142 1.08C42.3022 1.336 42.5142 1.638 42.6502 1.986C42.7862 2.334 42.8542 2.71 42.8542 3.114C42.8542 3.55 42.7842 3.95 42.6442 4.314C42.5042 4.678 42.2902 4.99 42.0022 5.25C41.7142 5.51 41.3482 5.714 40.9042 5.862C40.4642 6.006 39.9422 6.078 39.3382 6.078H38.2822V9H36.2542V0.258H39.3382ZM46.289 2.682C46.761 2.682 47.191 2.756 47.579 2.904C47.967 3.052 48.299 3.264 48.575 3.54C48.855 3.816 49.071 4.152 49.223 4.548C49.379 4.94 49.457 5.382 49.457 5.874C49.457 6.37 49.379 6.818 49.223 7.218C49.071 7.614 48.855 7.952 48.575 8.232C48.299 8.508 47.967 8.722 47.579 8.874C47.191 9.022 46.761 9.096 46.289 9.096C45.813 9.096 45.379 9.022 44.987 8.874C44.599 8.722 44.263 8.508 43.979 8.232C43.699 7.952 43.481 7.614 43.325 7.218C43.173 6.818 43.097 6.37 43.097 5.874C43.097 5.382 43.173 4.94 43.325 4.548C43.481 4.152 43.699 3.816 43.979 3.54C44.263 3.264 44.599 3.052 44.987 2.904C45.379 2.756 45.813 2.682 46.289 2.682ZM46.289 7.716C46.717 7.716 47.031 7.566 47.231 7.266C47.435 6.962 47.537 6.502 47.537 5.886C47.537 5.27 47.435 4.812 47.231 4.512C47.031 4.212 46.717 4.062 46.289 4.062C45.849 4.062 45.527 4.212 45.323 4.512C45.119 4.812 45.017 5.27 45.017 5.886C45.017 6.502 45.119 6.962 45.323 7.266C45.527 7.566 45.849 7.716 46.289 7.716ZM59.4325 2.778L57.5005 9H55.9885C55.9085 9 55.8405 8.976 55.7845 8.928C55.7285 8.88 55.6845 8.8 55.6525 8.688L54.7645 5.586C54.7205 5.446 54.6805 5.308 54.6445 5.172C54.6125 5.036 54.5825 4.898 54.5545 4.758C54.5265 4.898 54.4945 5.038 54.4585 5.178C54.4265 5.318 54.3885 5.458 54.3445 5.598L53.4445 8.688C53.3845 8.896 53.2525 9 53.0485 9H51.6085L49.6765 2.778H51.1645C51.2965 2.778 51.4065 2.81 51.4945 2.874C51.5865 2.934 51.6485 3.01 51.6805 3.102L52.3045 5.892C52.3565 6.104 52.4025 6.31 52.4425 6.51C52.4825 6.706 52.5185 6.904 52.5505 7.104C52.6025 6.904 52.6565 6.706 52.7125 6.51C52.7725 6.31 52.8365 6.104 52.9045 5.892L53.6845 3.096C53.7165 3.004 53.7765 2.928 53.8645 2.868C53.9525 2.804 54.0565 2.772 54.1765 2.772H55.0045C55.1365 2.772 55.2465 2.804 55.3345 2.868C55.4265 2.928 55.4885 3.004 55.5205 3.096L56.2645 5.892C56.3245 6.104 56.3825 6.31 56.4385 6.51C56.4985 6.71 56.5525 6.912 56.6005 7.116C56.6325 6.916 56.6705 6.716 56.7145 6.516C56.7585 6.316 56.8085 6.108 56.8645 5.892L57.5245 3.102C57.5565 3.01 57.6165 2.934 57.7045 2.874C57.7925 2.81 57.8965 2.778 58.0165 2.778H59.4325ZM63.8496 5.142C63.8496 4.994 63.8296 4.85 63.7896 4.71C63.7536 4.57 63.6916 4.446 63.6036 4.338C63.5196 4.226 63.4076 4.136 63.2676 4.068C63.1276 4 62.9576 3.966 62.7576 3.966C62.4056 3.966 62.1296 4.068 61.9296 4.272C61.7296 4.472 61.5976 4.762 61.5336 5.142H63.8496ZM61.5096 6.222C61.5696 6.742 61.7276 7.12 61.9836 7.356C62.2396 7.588 62.5696 7.704 62.9736 7.704C63.1896 7.704 63.3756 7.678 63.5316 7.626C63.6876 7.574 63.8256 7.516 63.9456 7.452C64.0696 7.388 64.1816 7.33 64.2816 7.278C64.3856 7.226 64.4936 7.2 64.6056 7.2C64.7536 7.2 64.8656 7.254 64.9416 7.362L65.4816 8.028C65.2896 8.248 65.0816 8.428 64.8576 8.568C64.6376 8.704 64.4096 8.812 64.1736 8.892C63.9416 8.968 63.7076 9.02 63.4716 9.048C63.2396 9.08 63.0176 9.096 62.8056 9.096C62.3696 9.096 61.9596 9.026 61.5756 8.886C61.1956 8.742 60.8616 8.53 60.5736 8.25C60.2896 7.97 60.0636 7.622 59.8956 7.206C59.7316 6.79 59.6496 6.306 59.6496 5.754C59.6496 5.338 59.7196 4.944 59.8596 4.572C60.0036 4.2 60.2076 3.874 60.4716 3.594C60.7396 3.314 61.0616 3.092 61.4376 2.928C61.8176 2.764 62.2456 2.682 62.7216 2.682C63.1336 2.682 63.5096 2.746 63.8496 2.874C64.1936 3.002 64.4876 3.188 64.7316 3.432C64.9796 3.676 65.1716 3.976 65.3076 4.332C65.4476 4.684 65.5176 5.084 65.5176 5.532C65.5176 5.672 65.5116 5.786 65.4996 5.874C65.4876 5.962 65.4656 6.032 65.4336 6.084C65.4016 6.136 65.3576 6.172 65.3016 6.192C65.2496 6.212 65.1816 6.222 65.0976 6.222H61.5096ZM68.1884 3.738C68.3804 3.402 68.6004 3.138 68.8484 2.946C69.1004 2.754 69.3884 2.658 69.7124 2.658C69.9924 2.658 70.2204 2.724 70.3964 2.856L70.2764 4.224C70.2564 4.312 70.2224 4.372 70.1744 4.404C70.1304 4.436 70.0684 4.452 69.9884 4.452C69.9564 4.452 69.9144 4.45 69.8624 4.446C69.8104 4.442 69.7564 4.438 69.7004 4.434C69.6444 4.426 69.5864 4.42 69.5264 4.416C69.4704 4.408 69.4184 4.404 69.3704 4.404C69.0984 4.404 68.8804 4.476 68.7164 4.62C68.5564 4.764 68.4204 4.964 68.3084 5.22V9H66.4484V2.778H67.5524C67.6444 2.778 67.7204 2.786 67.7804 2.802C67.8444 2.818 67.8964 2.844 67.9364 2.88C67.9804 2.912 68.0124 2.956 68.0324 3.012C68.0564 3.068 68.0764 3.136 68.0924 3.216L68.1884 3.738ZM74.7949 5.142C74.7949 4.994 74.7749 4.85 74.7349 4.71C74.6989 4.57 74.6369 4.446 74.5489 4.338C74.4649 4.226 74.3529 4.136 74.2129 4.068C74.0729 4 73.9029 3.966 73.7029 3.966C73.3509 3.966 73.0749 4.068 72.8749 4.272C72.6749 4.472 72.5429 4.762 72.4789 5.142H74.7949ZM72.4549 6.222C72.5149 6.742 72.6729 7.12 72.9289 7.356C73.1849 7.588 73.5149 7.704 73.9189 7.704C74.1349 7.704 74.3209 7.678 74.4769 7.626C74.6329 7.574 74.7709 7.516 74.8909 7.452C75.0149 7.388 75.1269 7.33 75.2269 7.278C75.3309 7.226 75.4389 7.2 75.5509 7.2C75.6989 7.2 75.8109 7.254 75.8869 7.362L76.4269 8.028C76.2349 8.248 76.0269 8.428 75.8029 8.568C75.5829 8.704 75.3549 8.812 75.1189 8.892C74.8869 8.968 74.6529 9.02 74.4169 9.048C74.1849 9.08 73.9629 9.096 73.7509 9.096C73.3149 9.096 72.9049 9.026 72.5209 8.886C72.1409 8.742 71.8069 8.53 71.5189 8.25C71.2349 7.97 71.0089 7.622 70.8409 7.206C70.6769 6.79 70.5949 6.306 70.5949 5.754C70.5949 5.338 70.6649 4.944 70.8049 4.572C70.9489 4.2 71.1529 3.874 71.4169 3.594C71.6849 3.314 72.0069 3.092 72.3829 2.928C72.7629 2.764 73.1909 2.682 73.6669 2.682C74.0789 2.682 74.4549 2.746 74.7949 2.874C75.1389 3.002 75.4329 3.188 75.6769 3.432C75.9249 3.676 76.1169 3.976 76.2529 4.332C76.3929 4.684 76.4629 5.084 76.4629 5.532C76.4629 5.672 76.4569 5.786 76.4449 5.874C76.4329 5.962 76.4109 6.032 76.3789 6.084C76.3469 6.136 76.3029 6.172 76.2469 6.192C76.1949 6.212 76.1269 6.222 76.0429 6.222H72.4549ZM81.1677 4.446C81.0277 4.29 80.8757 4.182 80.7117 4.122C80.5477 4.058 80.3757 4.026 80.1957 4.026C80.0237 4.026 79.8657 4.06 79.7217 4.128C79.5777 4.196 79.4517 4.306 79.3437 4.458C79.2397 4.606 79.1577 4.8 79.0977 5.04C79.0377 5.28 79.0077 5.57 79.0077 5.91C79.0077 6.238 79.0317 6.514 79.0797 6.738C79.1277 6.962 79.1937 7.144 79.2777 7.284C79.3657 7.42 79.4697 7.518 79.5897 7.578C79.7097 7.638 79.8437 7.668 79.9917 7.668C80.1277 7.668 80.2497 7.656 80.3577 7.632C80.4697 7.604 80.5717 7.566 80.6637 7.518C80.7557 7.47 80.8417 7.41 80.9217 7.338C81.0057 7.262 81.0877 7.176 81.1677 7.08V4.446ZM83.0277 0.0179994V9H81.8757C81.6437 9 81.4917 8.896 81.4197 8.688L81.2757 8.214C81.1517 8.346 81.0217 8.466 80.8857 8.574C80.7497 8.682 80.6017 8.776 80.4417 8.856C80.2857 8.932 80.1157 8.99 79.9317 9.03C79.7517 9.074 79.5557 9.096 79.3437 9.096C79.0197 9.096 78.7197 9.024 78.4437 8.88C78.1677 8.736 77.9297 8.528 77.7297 8.256C77.5297 7.984 77.3717 7.652 77.2557 7.26C77.1437 6.864 77.0877 6.414 77.0877 5.91C77.0877 5.446 77.1517 5.016 77.2797 4.62C77.4077 4.22 77.5877 3.876 77.8197 3.588C78.0557 3.296 78.3377 3.068 78.6657 2.904C78.9937 2.74 79.3557 2.658 79.7517 2.658C80.0757 2.658 80.3477 2.704 80.5677 2.796C80.7877 2.888 80.9877 3.012 81.1677 3.168V0.0179994H83.0277ZM88.9216 7.308C89.0616 7.46 89.2136 7.568 89.3776 7.632C89.5416 7.696 89.7076 7.728 89.8756 7.728C90.0516 7.728 90.2136 7.696 90.3616 7.632C90.5096 7.564 90.6356 7.456 90.7396 7.308C90.8476 7.156 90.9316 6.958 90.9916 6.714C91.0516 6.466 91.0816 6.162 91.0816 5.802C91.0816 5.49 91.0576 5.226 91.0096 5.01C90.9656 4.79 90.8976 4.612 90.8056 4.476C90.7176 4.336 90.6056 4.236 90.4696 4.176C90.3376 4.112 90.1856 4.08 90.0136 4.08C89.7856 4.08 89.5876 4.13 89.4196 4.23C89.2516 4.33 89.0856 4.476 88.9216 4.668V7.308ZM88.9216 3.438C89.1616 3.21 89.4236 3.028 89.7076 2.892C89.9956 2.752 90.3156 2.682 90.6676 2.682C91.0196 2.682 91.3396 2.754 91.6276 2.898C91.9156 3.042 92.1616 3.248 92.3656 3.516C92.5696 3.78 92.7256 4.1 92.8336 4.476C92.9456 4.852 93.0016 5.272 93.0016 5.736C93.0016 6.24 92.9376 6.698 92.8096 7.11C92.6816 7.522 92.4996 7.876 92.2636 8.172C92.0316 8.464 91.7536 8.692 91.4296 8.856C91.1056 9.016 90.7476 9.096 90.3556 9.096C90.1676 9.096 89.9996 9.078 89.8516 9.042C89.7036 9.006 89.5676 8.956 89.4436 8.892C89.3196 8.824 89.2056 8.744 89.1016 8.652C89.0016 8.56 88.9036 8.46 88.8076 8.352L88.7416 8.664C88.7096 8.792 88.6576 8.88 88.5856 8.928C88.5136 8.976 88.4176 9 88.2976 9H87.0616V0.0179994H88.9216V3.438ZM99.6748 2.778L96.3508 10.614C96.2948 10.738 96.2268 10.828 96.1468 10.884C96.0668 10.944 95.9388 10.974 95.7628 10.974H94.3708L95.5708 8.454L93.0868 2.778H94.7308C94.8748 2.778 94.9848 2.81 95.0608 2.874C95.1408 2.938 95.1988 3.014 95.2348 3.102L96.2548 5.784C96.3508 6.028 96.4288 6.278 96.4888 6.534C96.5328 6.406 96.5768 6.278 96.6208 6.15C96.6648 6.022 96.7108 5.896 96.7588 5.772L97.6828 3.102C97.7188 3.01 97.7828 2.934 97.8748 2.874C97.9668 2.81 98.0668 2.778 98.1748 2.778H99.6748ZM7.54451 30.488L6.41051 29.368L5.45851 30.32C5.40251 30.376 5.34651 30.404 5.26251 30.404H2.95251C2.86851 30.404 2.81251 30.376 2.75651 30.32L2.21051 29.774C2.15451 29.718 2.12651 29.648 2.12651 29.578V25.084C2.12651 25.014 2.15451 24.944 2.21051 24.888L2.75651 24.342C2.81251 24.286 2.86851 24.258 2.95251 24.258H5.26251C5.34651 24.258 5.40251 24.286 5.45851 24.342L6.41051 25.294L7.54451 24.174L6.32651 22.956C6.13051 22.76 5.89251 22.662 5.62651 22.662H2.58851C2.32251 22.662 2.08451 22.76 1.88851 22.956L0.740508 24.104C0.544508 24.3 0.446508 24.538 0.446508 24.804V29.858C0.446508 30.124 0.544508 30.362 0.740508 30.558L1.88851 31.706C2.08451 31.902 2.32251 32 2.58851 32H5.62651C5.89251 32 6.13051 31.902 6.32651 31.706L7.54451 30.488ZM17.4539 32L14.5699 28.318H14.9059C15.1719 28.318 15.3959 28.22 15.5779 28.038L16.5019 27.114C16.6979 26.918 16.7959 26.694 16.7959 26.414V24.566C16.7959 24.286 16.6979 24.062 16.5019 23.866L15.5779 22.942C15.3959 22.76 15.1719 22.662 14.9059 22.662H9.69788V32H11.3779V28.318H12.3999C12.4979 28.318 12.5819 28.36 12.6379 28.444L15.3959 32H17.4539ZM15.1159 26.134C15.1159 26.218 15.0879 26.274 15.0319 26.33L14.7239 26.638C14.6679 26.694 14.6119 26.722 14.5279 26.722H11.3779V24.258H14.5279C14.6119 24.258 14.6679 24.286 14.7239 24.342L15.0319 24.65C15.0879 24.706 15.1159 24.762 15.1159 24.846V26.134ZM25.6441 22.662H23.8381L21.6681 26.288L19.4841 22.662H17.6501L20.8141 27.87V32H22.4941V27.87L25.6441 22.662ZM34.501 26.414V24.566C34.501 24.286 34.403 24.062 34.207 23.866L33.283 22.942C33.101 22.76 32.877 22.662 32.611 22.662H27.403V32H29.083V28.318H32.611C32.877 28.318 33.101 28.22 33.283 28.038L34.207 27.114C34.403 26.918 34.501 26.694 34.501 26.414ZM32.821 26.134C32.821 26.218 32.793 26.274 32.737 26.33L32.429 26.638C32.373 26.694 32.317 26.722 32.233 26.722H29.083V24.258H32.233C32.317 24.258 32.373 24.286 32.429 24.342L32.737 24.65C32.793 24.706 32.821 24.762 32.821 24.846V26.134ZM42.6625 24.258V22.662H35.5785V24.258H38.2805V32H39.9605V24.258H42.6625ZM51.9704 29.858V24.804C51.9704 24.538 51.8724 24.3 51.6764 24.104L50.5284 22.956C50.3324 22.76 50.0944 22.662 49.8284 22.662H46.1744C45.9084 22.662 45.6704 22.76 45.4744 22.956L44.3264 24.104C44.1304 24.3 44.0324 24.538 44.0324 24.804V29.858C44.0324 30.124 44.1304 30.362 44.3264 30.558L45.4744 31.706C45.6704 31.902 45.9084 32 46.1744 32H49.8284C50.0944 32 50.3324 31.902 50.5284 31.706L51.6764 30.558C51.8724 30.362 51.9704 30.124 51.9704 29.858ZM50.2904 29.578C50.2904 29.648 50.2624 29.718 50.2064 29.774L49.6604 30.32C49.6044 30.376 49.5484 30.404 49.4644 30.404H46.5384C46.4544 30.404 46.3984 30.376 46.3424 30.32L45.7964 29.774C45.7404 29.718 45.7124 29.648 45.7124 29.578V25.084C45.7124 25.014 45.7404 24.944 45.7964 24.888L46.3424 24.342C46.3984 24.286 46.4544 24.258 46.5384 24.258H49.4644C49.5484 24.258 49.6044 24.286 49.6604 24.342L50.2064 24.888C50.2624 24.944 50.2904 25.014 50.2904 25.084V29.578ZM66.0693 26.414V24.566C66.0693 24.286 65.9713 24.062 65.7753 23.866L64.8513 22.942C64.6693 22.76 64.4453 22.662 64.1793 22.662H58.9713V32H60.6513V28.318H64.1793C64.4453 28.318 64.6693 28.22 64.8513 28.038L65.7753 27.114C65.9713 26.918 66.0693 26.694 66.0693 26.414ZM64.3893 26.134C64.3893 26.218 64.3613 26.274 64.3053 26.33L63.9973 26.638C63.9413 26.694 63.8853 26.722 63.8013 26.722H60.6513V24.258H63.8013C63.8853 24.258 63.9413 24.286 63.9973 24.342L64.3053 24.65C64.3613 24.706 64.3893 24.762 64.3893 24.846V26.134ZM74.8471 32L71.4171 22.662H69.4291L65.9711 32H67.6511L68.5331 29.662H72.2571L73.1391 32H74.8471ZM71.6831 28.164H69.1071L70.3951 24.468L71.6831 28.164ZM84.5691 32L81.6851 28.318H82.0211C82.2871 28.318 82.5111 28.22 82.6931 28.038L83.6171 27.114C83.8131 26.918 83.9111 26.694 83.9111 26.414V24.566C83.9111 24.286 83.8131 24.062 83.6171 23.866L82.6931 22.942C82.5111 22.76 82.2871 22.662 82.0211 22.662H76.8131V32H78.4931V28.318H79.5151C79.6131 28.318 79.6971 28.36 79.7531 28.444L82.5111 32H84.5691ZM82.2311 26.134C82.2311 26.218 82.2031 26.274 82.1471 26.33L81.8391 26.638C81.7831 26.694 81.7271 26.722 81.6431 26.722H78.4931V24.258H81.6431C81.7271 24.258 81.7831 24.286 81.8391 24.342L82.1471 24.65C82.2031 24.706 82.2311 24.762 82.2311 24.846V26.134ZM92.6332 24.258V22.662H85.5492V24.258H88.2512V32H89.9312V24.258H92.6332ZM98.6466 32V30.516H96.9666V24.146H98.6466V22.662H93.6066V24.146H95.2866V30.516H93.6066V32H98.6466ZM107.513 30.488L106.379 29.368L105.427 30.32C105.371 30.376 105.315 30.404 105.231 30.404H102.921C102.837 30.404 102.781 30.376 102.725 30.32L102.179 29.774C102.123 29.718 102.095 29.648 102.095 29.578V25.084C102.095 25.014 102.123 24.944 102.179 24.888L102.725 24.342C102.781 24.286 102.837 24.258 102.921 24.258H105.231C105.315 24.258 105.371 24.286 105.427 24.342L106.379 25.294L107.513 24.174L106.295 22.956C106.099 22.76 105.861 22.662 105.595 22.662H102.557C102.291 22.662 102.053 22.76 101.857 22.956L100.709 24.104C100.513 24.3 100.415 24.538 100.415 24.804V29.858C100.415 30.124 100.513 30.362 100.709 30.558L101.857 31.706C102.053 31.902 102.291 32 102.557 32H105.595C105.861 32 106.099 31.902 106.295 31.706L107.513 30.488ZM115.925 32V30.404H111.347V22.662H109.667V32H115.925ZM124.046 32V30.404H119.468V28.122H124.046V26.526H119.468V24.258H124.046V22.662H117.788V32H124.046ZM125.832 21.969H129.234V22.704H127.974V26.113H127.099V22.704H125.832V21.969ZM134.631 21.969V26.113H133.868V23.558L133.924 23.04L132.643 25.385C132.587 25.5157 132.486 25.581 132.342 25.581H132.216C132.071 25.581 131.968 25.5157 131.908 25.385L130.62 23.04L130.683 23.558V26.113H129.906V21.969H130.648C130.727 21.969 130.783 21.9783 130.816 21.997C130.853 22.0157 130.897 22.0553 130.949 22.116L132.132 24.237C132.192 24.363 132.239 24.4843 132.272 24.601C132.309 24.4703 132.358 24.349 132.419 24.237L133.602 22.116C133.648 22.0553 133.688 22.0157 133.721 21.997C133.758 21.9783 133.816 21.969 133.896 21.969H134.631Z" fill="white"/>
</svg>
