<svg width="162" height="86" viewBox="0 0 162 86" fill="none" xmlns="http://www.w3.org/2000/svg">
<path d="M71.8149 10.869C72.177 13.4881 74.5335 15.3917 77.1978 15.1615C78.4345 15.0546 79.6873 15 80.9541 15C82.2209 15 83.4737 15.0546 84.7104 15.1615C87.3747 15.3917 89.7312 13.4881 90.0933 10.869C89.2778 10.7118 88.4549 10.5752 87.6252 10.4599C86.8036 10.3456 85.9753 10.2522 85.1409 10.1801C83.7612 10.0609 82.3647 10 80.9541 10C79.5435 10 78.147 10.0609 76.7673 10.1801C75.9329 10.2522 75.1046 10.3456 74.283 10.4599C73.4533 10.5752 72.6304 10.7118 71.8149 10.869Z" fill="#F6F6FA"/>
<path d="M49.4816 21.7571C51.1087 23.8415 54.1024 24.3062 56.2919 22.7704C58.3325 21.3389 60.5022 20.0808 62.7795 19.0171C65.2018 17.8856 66.292 15.0604 65.2984 12.6111C64.5078 12.8837 63.7267 13.1764 62.9555 13.4886C62.1812 13.8019 61.417 14.1349 60.6634 14.4869C58.1198 15.6751 55.6976 17.0797 53.4205 18.6771C52.7376 19.1561 52.0678 19.6524 51.4118 20.1654C50.7544 20.6794 50.1108 21.2102 49.4816 21.7571Z" fill="#F6F6FA"/>
<path d="M35.5652 42.3443C38.0145 43.3379 40.8397 42.2477 41.9712 39.8254C43.0349 37.5481 44.293 35.3784 45.7245 33.3378C47.2603 31.1483 46.7956 28.1546 44.7112 26.5275C44.1643 27.1567 43.6335 27.8003 43.1195 28.4577C42.6065 29.1137 42.1102 29.7835 41.6312 30.4664C40.0338 32.7435 38.6292 35.1657 37.441 37.7093C37.089 38.4629 36.756 39.2271 36.4427 40.0014C36.1305 40.7726 35.8378 41.5537 35.5652 42.3443Z" fill="#F6F6FA"/>
<path d="M33.8231 67.1392C36.4422 66.7771 38.3458 64.4206 38.1156 61.7564C38.0087 60.5196 37.9541 59.2668 37.9541 58C37.9541 56.7332 38.0087 55.4804 38.1156 54.2436C38.3458 51.5794 36.4422 49.2229 33.8231 48.8608C33.6659 49.6763 33.5293 50.4992 33.414 51.3289C33.2997 52.1505 33.2063 52.9788 33.1342 53.8132C33.015 55.1929 32.9541 56.5894 32.9541 58C32.9541 59.4106 33.015 60.8071 33.1342 62.1868C33.2063 63.0212 33.2997 63.8495 33.414 64.6711C33.5293 65.5008 33.6659 66.3237 33.8231 67.1392Z" fill="#F6F6FA"/>
<path d="M128.494 64.6711C128.608 63.8495 128.702 63.0212 128.774 62.1868C128.893 60.8071 128.954 59.4106 128.954 58C128.954 56.5894 128.893 55.1929 128.774 53.8132C128.702 52.9788 128.608 52.1505 128.494 51.3289C128.379 50.4992 128.242 49.6763 128.085 48.8608C125.466 49.2229 123.562 51.5794 123.793 54.2436C123.899 55.4804 123.954 56.7332 123.954 58C123.954 59.2668 123.899 60.5196 123.793 61.7564C123.562 64.4206 125.466 66.7771 128.085 67.1392C128.242 66.3237 128.379 65.5008 128.494 64.6711Z" fill="#F6F6FA"/>
<path d="M96.6098 12.6111C95.6162 15.0604 96.7064 17.8856 99.1287 19.0171C101.406 20.0808 103.576 21.3389 105.616 22.7704C107.806 24.3062 110.8 23.8415 112.427 21.7571C111.797 21.2102 111.154 20.6794 110.496 20.1654C109.84 19.6524 109.171 19.1561 108.488 18.6771C106.211 17.0797 103.788 15.6751 101.245 14.4869C100.491 14.1349 99.727 13.8019 98.9527 13.4886C98.1815 13.1764 97.4004 12.8837 96.6098 12.6111Z" fill="#F6F6FA"/>
<path d="M117.197 26.5275C115.113 28.1546 114.648 31.1483 116.184 33.3378C117.615 35.3784 118.873 37.5481 119.937 39.8254C121.069 42.2477 123.894 43.3379 126.343 42.3443C126.07 41.5537 125.778 40.7726 125.466 40.0014C125.152 39.2271 124.819 38.4629 124.467 37.7093C123.279 35.1657 121.874 32.7435 120.277 30.4664C119.798 29.7835 119.302 29.1137 118.789 28.4577C118.275 27.8003 117.744 27.1567 117.197 26.5275Z" fill="#F6F6FA"/>
<path d="M99.7825 55.1716C101.345 56.7337 101.345 59.2663 99.7825 60.8284L84.7825 75.8284C83.2204 77.3905 80.6878 77.3905 79.1257 75.8284L64.1257 60.8284C62.5636 59.2663 62.5636 56.7337 64.1257 55.1716C65.6878 53.6095 68.2204 53.6095 69.7825 55.1716L77.9541 63.3431V37C77.9541 34.7909 79.745 33 81.9541 33C84.1632 33 85.9541 34.7909 85.9541 37V63.3431L94.1257 55.1716C95.6878 53.6095 98.2204 53.6095 99.7825 55.1716Z" fill="#F6F6FA"/>
<path fill-rule="evenodd" clip-rule="evenodd" d="M138.946 57H150.308L161.908 86H0L11.6 57H22.9625C23.4963 25.4288 49.2556 0 80.9541 0C112.653 0 138.412 25.4288 138.946 57ZM133.771 82H141.377L146.417 61H138.878C138.498 68.459 136.709 75.546 133.771 82ZM23.0303 61H15.4909L20.5309 82H28.137C25.1996 75.546 23.4104 68.459 23.0303 61ZM33.6868 82C30.0208 74.7944 27.9541 66.6385 27.9541 58C27.9541 28.7289 51.683 5 80.9541 5C110.225 5 133.954 28.7289 133.954 58C133.954 66.6385 131.887 74.7944 128.221 82H122.533C123.229 80.7957 123.875 79.5582 124.467 78.2907C124.819 77.5371 125.152 76.7729 125.466 75.9986C125.778 75.2274 126.07 74.4463 126.343 73.6557C123.894 72.6621 121.069 73.7523 119.937 76.1746C118.988 78.2072 117.883 80.1541 116.639 82H45.2691C44.0249 80.1541 42.9206 78.2072 41.9712 76.1746C40.8397 73.7523 38.0145 72.6621 35.5652 73.6557C35.8378 74.4463 36.1305 75.2274 36.4427 75.9986C36.756 76.7729 37.089 77.5371 37.441 78.2907C38.0331 79.5582 38.679 80.7957 39.3756 82H33.6868ZM149.432 65.5795L156 82H145.491L149.432 65.5795ZM16.4173 82L12.4763 65.5795L5.90813 82H16.4173Z" fill="#F6F6FA"/>
</svg>
