<svg width="158" height="116" viewBox="0 0 158 116" fill="none" xmlns="http://www.w3.org/2000/svg">
<path d="M96.2436 15.1615C93.5793 15.3917 91.2228 13.4881 90.8607 10.869C91.6763 10.7118 92.4992 10.5752 93.3289 10.4599C94.1505 10.3456 94.9788 10.2522 95.8132 10.1801C97.1929 10.0609 98.5893 10 100 10C101.411 10 102.807 10.0609 104.187 10.1801C105.021 10.2522 105.849 10.3456 106.671 10.4599C107.501 10.5752 108.324 10.7118 109.139 10.869C108.777 13.4881 106.421 15.3917 103.756 15.1615C102.52 15.0546 101.267 15 100 15C98.7332 15 97.4804 15.0546 96.2436 15.1615Z" fill="#F6F6FA"/>
<path d="M68.5274 21.7571C70.1545 23.8415 73.1483 24.3062 75.3377 22.7704C77.3783 21.3389 79.548 20.0808 81.8254 19.0171C84.2477 17.8856 85.3379 15.0604 84.3442 12.6111C83.5537 12.8837 82.7725 13.1764 82.0013 13.4886C81.2271 13.8019 80.4629 14.1349 79.7093 14.4869C77.1657 15.6751 74.7435 17.0797 72.4663 18.6771C71.7835 19.1561 71.1137 19.6524 70.4576 20.1654C69.8003 20.6794 69.1567 21.2102 68.5274 21.7571Z" fill="#F6F6FA"/>
<path d="M147.82 62.1868C147.748 63.0212 147.654 63.8495 147.54 64.6711C147.425 65.5008 147.288 66.3237 147.131 67.1392C144.512 66.7771 142.608 64.4206 142.838 61.7564C142.945 60.5196 143 59.2668 143 58C143 56.7332 142.945 55.4804 142.838 54.2436C142.608 51.5794 144.512 49.2229 147.131 48.8608C147.288 49.6763 147.425 50.4992 147.54 51.3289C147.654 52.1505 147.748 52.9788 147.82 53.8132C147.939 55.1929 148 56.5894 148 58C148 59.4106 147.939 60.8071 147.82 62.1868Z" fill="#F6F6FA"/>
<path d="M138.983 76.1746C140.114 73.7523 142.94 72.6621 145.389 73.6557C145.116 74.4463 144.824 75.2274 144.511 75.9986C144.198 76.7729 143.865 77.5371 143.513 78.2907C142.325 80.8343 140.92 83.2565 139.323 85.5336C138.844 86.2165 138.348 86.8862 137.835 87.5423C137.321 88.1997 136.79 88.8433 136.243 89.4725C134.158 87.8454 133.694 84.8517 135.23 82.6622C136.661 80.6216 137.919 78.4519 138.983 76.1746Z" fill="#F6F6FA"/>
<path d="M131.473 94.2429C129.845 92.1585 126.852 91.6938 124.662 93.2296C122.622 94.6611 120.452 95.9192 118.175 96.9829C115.752 98.1144 114.662 100.94 115.656 103.389C116.446 103.116 117.227 102.824 117.999 102.511C118.773 102.198 119.537 101.865 120.291 101.513C122.834 100.325 125.256 98.9203 127.534 97.3229C128.216 96.8439 128.886 96.3476 129.542 95.8346C130.2 95.3206 130.843 94.7898 131.473 94.2429Z" fill="#F6F6FA"/>
<path d="M103.756 100.838C106.421 100.608 108.777 102.512 109.139 105.131C108.324 105.288 107.501 105.425 106.671 105.54C105.849 105.654 105.021 105.748 104.187 105.82C102.807 105.939 101.411 106 100 106C98.5893 106 97.1929 105.939 95.8132 105.82C94.9788 105.748 94.1505 105.654 93.3289 105.54C92.4992 105.425 91.6763 105.288 90.8607 105.131C91.2228 102.512 93.5793 100.608 96.2436 100.838C97.4804 100.945 98.7332 101 100 101C101.267 101 102.52 100.945 103.756 100.838Z" fill="#F6F6FA"/>
<path d="M84.3442 103.389C85.3379 100.94 84.2477 98.1144 81.8254 96.9829C79.548 95.9192 77.3783 94.6611 75.3377 93.2296C73.1483 91.6938 70.1545 92.1585 68.5274 94.2429C69.1567 94.7898 69.8003 95.3206 70.4576 95.8346C71.1137 96.3476 71.7835 96.8439 72.4663 97.3229C74.7435 98.9203 77.1657 100.325 79.7093 101.513C80.4629 101.865 81.2271 102.198 82.0013 102.511C82.7725 102.824 83.5537 103.116 84.3442 103.389Z" fill="#F6F6FA"/>
<path d="M115.656 12.6111C114.662 15.0604 115.752 17.8856 118.175 19.0171C120.452 20.0808 122.622 21.3389 124.662 22.7704C126.852 24.3062 129.845 23.8415 131.472 21.7571C130.843 21.2102 130.2 20.6794 129.542 20.1654C128.886 19.6524 128.216 19.1561 127.534 18.6771C125.256 17.0797 122.834 15.6751 120.291 14.4869C119.537 14.1349 118.773 13.8019 117.999 13.4886C117.227 13.1764 116.446 12.8837 115.656 12.6111Z" fill="#F6F6FA"/>
<path d="M135.23 33.3378C133.694 31.1483 134.158 28.1546 136.243 26.5275C136.79 27.1567 137.321 27.8003 137.835 28.4577C138.348 29.1137 138.844 29.7835 139.323 30.4664C140.92 32.7435 142.325 35.1657 143.513 37.7093C143.865 38.4629 144.198 39.2271 144.511 40.0014C144.824 40.7726 145.116 41.5537 145.389 42.3443C142.94 43.3379 140.114 42.2477 138.983 39.8254C137.919 37.5481 136.661 35.3784 135.23 33.3378Z" fill="#F6F6FA"/>
<path d="M116.828 40.1716C115.266 38.6095 112.734 38.6095 111.172 40.1716C109.609 41.7337 109.609 44.2663 111.172 45.8284L119.343 54H93C90.7909 54 89 55.7909 89 58C89 60.2091 90.7909 62 93 62H119.343L111.172 70.1716C109.609 71.7337 109.609 74.2663 111.172 75.8284C112.734 77.3905 115.266 77.3905 116.828 75.8284L131.828 60.8284C133.391 59.2663 133.391 56.7337 131.828 55.1716L116.828 40.1716Z" fill="#F6F6FA"/>
<path fill-rule="evenodd" clip-rule="evenodd" d="M100 116C132.032 116 158 90.0325 158 58C158 25.9675 132.032 0 100 0C75.7545 0 54.9837 14.8768 46.3178 36H43C39.6863 36 37 38.6863 37 42C37 45.2666 39.6105 47.9235 42.8591 47.9984C42.6298 49.3175 42.4451 50.6519 42.3065 52H27C23.6863 52 21 54.6863 21 58C21 61.3137 23.6863 64 27 64H42.3065C42.4451 65.3481 42.6298 66.6825 42.8591 68.0016C39.6105 68.0765 37 70.7334 37 74C37 77.3137 39.6863 80 43 80H46.3178C54.9837 101.123 75.7545 116 100 116ZM100 5C78.5775 5 60.1237 17.7097 51.7675 36H57.3272C58.3212 34.076 59.4415 32.2277 60.6771 30.4664C61.156 29.7835 61.6524 29.1137 62.1654 28.4577C62.6794 27.8003 63.2102 27.1567 63.757 26.5275C65.8415 28.1546 66.3062 31.1483 64.7703 33.3378C64.1637 34.2025 63.5882 35.0905 63.0455 36H91C94.3137 36 97 38.6863 97 42C97 45.3137 94.3137 48 91 48H47.942C47.6906 49.3167 47.4879 50.6507 47.3358 52H52.3713C52.3993 51.7758 52.4288 51.5521 52.4598 51.3289C52.5752 50.4992 52.7118 49.6763 52.869 48.8608C54.7119 49.1156 56.2006 50.3579 56.8409 52H75C78.3137 52 81 54.6863 81 58C81 61.3137 78.3137 64 75 64H56.8409C56.2006 65.6422 54.7119 66.8844 52.869 67.1392C52.7118 66.3237 52.5752 65.5008 52.4598 64.6711C52.4288 64.4479 52.3993 64.2242 52.3713 64H47.3358C47.4879 65.3493 47.6906 66.6833 47.942 68H91C94.3137 68 97 70.6863 97 74C97 77.3137 94.3137 80 91 80H63.0455C63.5882 80.9095 64.1637 81.7975 64.7703 82.6622C66.3062 84.8517 65.8415 87.8454 63.757 89.4725C63.2102 88.8433 62.6794 88.1997 62.1654 87.5424C61.6524 86.8863 61.156 86.2165 60.6771 85.5336C59.4415 83.7722 58.3212 81.924 57.3272 80H51.7675C60.1237 98.2903 78.5775 111 100 111C129.271 111 153 87.2711 153 58C153 28.7289 129.271 5 100 5ZM43 40C41.8954 40 41 40.8954 41 42C41 43.1046 41.8954 44 43 44H91C92.1046 44 93 43.1046 93 42C93 40.8954 92.1046 40 91 40H43ZM25 58C25 56.8954 25.8954 56 27 56H75C76.1046 56 77 56.8954 77 58C77 59.1046 76.1046 60 75 60H27C25.8954 60 25 59.1046 25 58ZM41 74C41 72.8954 41.8954 72 43 72H91C92.1046 72 93 72.8954 93 74C93 75.1046 92.1046 76 91 76H43C41.8954 76 41 75.1046 41 74Z" fill="#F6F6FA"/>
<path fill-rule="evenodd" clip-rule="evenodd" d="M6 52C2.68629 52 0 54.6863 0 58C0 61.3137 2.68629 64 6 64H10C13.3137 64 16 61.3137 16 58C16 54.6863 13.3137 52 10 52H6ZM4 58C4 56.8954 4.89543 56 6 56H10C11.1046 56 12 56.8954 12 58C12 59.1046 11.1046 60 10 60H6C4.89543 60 4 59.1046 4 58Z" fill="#F6F6FA"/>
<path fill-rule="evenodd" clip-rule="evenodd" d="M16 42C16 38.6863 18.6863 36 22 36H26C29.3137 36 32 38.6863 32 42C32 45.3137 29.3137 48 26 48H22C18.6863 48 16 45.3137 16 42ZM22 40C20.8954 40 20 40.8954 20 42C20 43.1046 20.8954 44 22 44H26C27.1046 44 28 43.1046 28 42C28 40.8954 27.1046 40 26 40H22Z" fill="#F6F6FA"/>
<path fill-rule="evenodd" clip-rule="evenodd" d="M22 68C18.6863 68 16 70.6863 16 74C16 77.3137 18.6863 80 22 80H26C29.3137 80 32 77.3137 32 74C32 70.6863 29.3137 68 26 68H22ZM20 74C20 72.8954 20.8954 72 22 72H26C27.1046 72 28 72.8954 28 74C28 75.1046 27.1046 76 26 76H22C20.8954 76 20 75.1046 20 74Z" fill="#F6F6FA"/>
</svg>
