<svg width="114" height="114" viewBox="0 0 114 114" fill="none" xmlns="http://www.w3.org/2000/svg">
<path fill-rule="evenodd" clip-rule="evenodd" d="M61.4869 67.8322C67.4693 65.3542 70.3102 58.4956 67.8322 52.5131C65.3542 46.5307 58.4956 43.6897 52.5131 46.1678C46.5307 48.6458 43.6897 55.5044 46.1678 61.4869C48.6458 67.4693 55.5044 70.3102 61.4869 67.8322ZM59.9912 64.2215C63.9795 62.5695 65.8735 57.9971 64.2215 54.0088C62.5695 50.0204 57.9971 48.1265 54.0088 49.7785C50.0204 51.4305 48.1265 56.0029 49.7785 59.9912C51.4305 63.9796 56.0029 65.8735 59.9912 64.2215Z" fill="#C1C2D0"/>
<path fill-rule="evenodd" clip-rule="evenodd" d="M66.3476 79.5672C78.8111 74.4046 84.7297 60.1159 79.5671 47.6524C74.4046 35.1889 60.1159 29.2703 47.6524 34.4329C35.1889 39.5954 29.2703 53.8841 34.4328 66.3476C39.5954 78.8111 53.8841 84.7297 66.3476 79.5672ZM64.852 75.9564C75.3213 71.6199 80.2929 59.6173 75.9564 49.148C71.6199 38.6787 59.6173 33.7071 49.148 38.0436C38.6787 42.3801 33.707 54.3827 38.0436 64.852C42.3801 75.3213 54.3827 80.2929 64.852 75.9564Z" fill="#C1C2D0"/>
<path fill-rule="evenodd" clip-rule="evenodd" d="M23.853 13.0621C23.5307 12.6471 23.0549 12.3795 22.533 12.3195C22.0111 12.2595 21.4869 12.4121 21.0789 12.7431C17.9891 15.2488 15.2026 18.0492 12.7439 21.084C12.4134 21.492 12.261 22.0159 12.321 22.5376C12.3811 23.0593 12.6486 23.5349 13.0633 23.8571C17.8719 27.5939 19.7635 34.2292 17.2685 40.0941C17.1604 40.3484 17.0547 40.6036 16.9514 40.8599C14.5685 46.7712 8.53903 50.1256 2.49644 49.3676C1.9754 49.3023 1.44997 49.4494 1.0386 49.7758C0.627241 50.1022 0.364563 50.5804 0.309782 51.1027C-0.0976589 54.9871 -0.107393 58.9377 0.305552 62.8943C0.360089 63.4169 0.622736 63.8954 1.03424 64.2221C1.44574 64.5487 1.97143 64.6959 2.49271 64.6304C8.53572 63.8711 14.5663 67.225 16.9499 73.1366C17.054 73.3949 17.161 73.6532 17.27 73.9094C19.7647 79.775 17.872 86.4108 13.062 90.147C12.6471 90.4693 12.3795 90.9451 12.3195 91.467C12.2594 91.9889 12.4121 92.5131 12.7431 92.9211C15.2488 96.0109 18.0492 98.7974 21.084 101.256C21.492 101.587 22.0159 101.739 22.5376 101.679C23.0593 101.619 23.5348 101.351 23.8571 100.937C27.5939 96.1281 34.2292 94.2365 40.0941 96.7315C40.3484 96.8396 40.6036 96.9453 40.8599 97.0486C46.7712 99.4315 50.1256 105.461 49.3676 111.504C49.3023 112.025 49.4494 112.55 49.7758 112.961C50.1022 113.373 50.5804 113.635 51.1027 113.69C54.9871 114.098 58.9377 114.107 62.8943 113.694C63.4169 113.64 63.8954 113.377 64.2221 112.966C64.5487 112.554 64.6958 112.029 64.6303 111.507C63.8711 105.464 67.225 99.4337 73.1366 97.0501C73.3946 96.9461 73.6504 96.8402 73.9096 96.7299C79.7752 94.2354 86.4109 96.1281 90.147 100.938C90.4693 101.353 90.9451 101.621 91.467 101.681C91.9889 101.741 92.5131 101.588 92.9211 101.257C96.0109 98.7512 98.7974 95.9508 101.256 92.916C101.587 92.508 101.739 91.9841 101.679 91.4624C101.619 90.9407 101.351 90.4652 100.937 90.1429C96.1281 86.4061 94.2365 79.7708 96.7315 73.9059C96.8396 73.6516 96.9454 73.3964 97.0486 73.1401C99.4315 67.2288 105.461 63.8745 111.504 64.6324C112.025 64.6977 112.55 64.5506 112.961 64.2242C113.373 63.8978 113.635 63.4196 113.69 62.8973C114.098 59.0129 114.107 55.0623 113.694 51.1057C113.64 50.5831 113.377 50.1046 112.966 49.7779C112.554 49.4513 112.029 49.3042 111.507 49.3696C105.464 50.1289 99.4337 46.775 97.0501 40.8635C96.946 40.6052 96.839 40.3468 96.73 40.0906C94.2353 34.225 96.128 27.5892 100.938 23.853C101.353 23.5307 101.621 23.0549 101.681 22.533C101.741 22.0111 101.588 21.4869 101.257 21.0789C98.7512 17.9891 95.9508 15.2026 92.916 12.7439C92.508 12.4134 91.9841 12.261 91.4624 12.321C90.9407 12.3811 90.4651 12.6486 90.1429 13.0633C86.4061 17.8719 79.7708 19.7635 73.9059 17.2685C73.6516 17.1604 73.3963 17.0546 73.1401 16.9514C67.2288 14.5685 63.8745 8.53903 64.6324 2.49644C64.6977 1.97539 64.5506 1.44997 64.2242 1.0386C63.8978 0.627239 63.4196 0.364561 62.8973 0.309782C59.0129 -0.0976594 55.0623 -0.107392 51.1057 0.305551C50.5831 0.360087 50.1046 0.622735 49.7779 1.03424C49.4513 1.44574 49.3042 1.97143 49.3696 2.49271C50.1289 8.53572 46.775 14.5663 40.8634 16.9499C40.6052 17.054 40.3468 17.161 40.0906 17.27C34.225 19.7647 27.5892 17.872 23.853 13.0621ZM20.8649 41.6241C23.7922 34.743 22.0172 27.0454 16.9884 22.1064C18.5648 20.2958 20.2718 18.5843 22.1026 16.988C27.0412 22.0174 34.7387 23.7932 41.6202 20.8665C41.8538 20.7671 42.0895 20.6695 42.3249 20.5746C49.2603 17.7781 53.4477 11.0795 53.3834 4.03102C55.8068 3.86525 58.224 3.86842 60.619 4.03398C60.5555 11.0824 64.7434 17.7804 71.679 20.5762C71.9122 20.6702 72.1445 20.7664 72.3759 20.8649C79.257 23.7922 86.9546 22.0172 91.8937 16.9884C93.7043 18.5648 95.4157 20.2718 97.0121 22.1026C91.9826 27.0412 90.2068 34.7387 93.1335 41.6202C93.2329 41.8539 93.3305 42.0895 93.4254 42.3248C96.2219 49.2603 102.92 53.4477 109.969 53.3834C110.135 55.8068 110.132 58.2239 109.966 60.6189C102.918 60.5555 96.2196 64.7434 93.4238 71.679C93.3298 71.9122 93.2336 72.1445 93.1351 72.3759C90.2078 79.257 91.9828 86.9546 97.0116 91.8937C95.4352 93.7042 93.7282 95.4157 91.8974 97.0121C86.9588 91.9826 79.261 90.2069 72.3796 93.1336C72.149 93.2317 71.9106 93.3304 71.6751 93.4254C64.7397 96.2219 60.5523 102.92 60.6166 109.969C58.1932 110.135 55.7761 110.132 53.381 109.966C53.4445 102.918 49.2566 96.2196 42.321 93.4238C42.0878 93.3298 41.8555 93.2336 41.6241 93.1351C34.743 90.2078 27.0454 91.9828 22.1063 97.0116C20.2958 95.4352 18.5843 93.7282 16.9879 91.8974C22.0174 86.9588 23.7932 79.2613 20.8665 72.3798C20.7671 72.1462 20.6695 71.9105 20.5746 71.6751C17.7781 64.7397 11.0795 60.5523 4.03102 60.6166C3.86525 58.1932 3.86842 55.7761 4.03398 53.3811C11.0824 53.4445 17.7804 49.2566 20.5762 42.321C20.6702 42.0878 20.7664 41.8555 20.8649 41.6241Z" fill="#C1C2D0"/>
</svg>
