<svg width="24" height="24" viewBox="0 0 24 24" fill="none" xmlns="http://www.w3.org/2000/svg">
<path fill-rule="evenodd" clip-rule="evenodd" d="M1 0.625C0.792893 0.625 0.625 0.792893 0.625 1V20.25C0.625 20.4188 0.737797 20.5668 0.900566 20.6116L10.9006 23.3616C11.0134 23.3926 11.1342 23.3692 11.2273 23.2983C11.3204 23.2273 11.375 23.117 11.375 23V20.375H16C16.2071 20.375 16.375 20.2071 16.375 20V13C16.375 12.7929 16.2071 12.625 16 12.625C15.7929 12.625 15.625 12.7929 15.625 13V19.625H11.375V3.75C11.375 3.58119 11.2622 3.43318 11.0994 3.38842L3.7779 1.375H15.625V9C15.625 9.20711 15.7929 9.375 16 9.375C16.2071 9.375 16.375 9.20711 16.375 9V1C16.375 0.792893 16.2071 0.625 16 0.625H1ZM1.375 19.9642V1.49205L10.625 4.0358V22.508L1.375 19.9642Z" fill="#607998"/>
<path d="M19.2652 6.73484C19.1187 6.58839 18.8813 6.58839 18.7348 6.73484C18.5884 6.88128 18.5884 7.11872 18.7348 7.26516L22.0947 10.625H14C13.7929 10.625 13.625 10.7929 13.625 11C13.625 11.2071 13.7929 11.375 14 11.375H22.0947L18.7348 14.7348C18.5884 14.8813 18.5884 15.1187 18.7348 15.2652C18.8813 15.4116 19.1187 15.4116 19.2652 15.2652L23.5303 11L19.2652 6.73484Z" fill="#607998"/>
</svg>
