<svg width="97" height="90" viewBox="0 0 97 90" fill="none" xmlns="http://www.w3.org/2000/svg">
<path fill-rule="evenodd" clip-rule="evenodd" d="M38.7844 14.7049C40.8843 10.7303 45.2794 4.85952 53.6936 2.10143C66.0145 -1.93227 76.9144 1.08193 76.9144 1.08193L96.8779 63.1093C97.4884 65.0153 95.7059 66.8672 93.8258 66.2072C89.7872 64.7839 83.2922 63.8185 74.5068 66.6997C66.1903 69.4234 62.9917 75.3976 61.761 79.4707C61.2727 81.0861 59.3681 81.815 58.0398 80.7906C54.6898 78.2098 48.5806 75.1956 40.1908 77.9439C31.4153 80.8202 26.7223 85.4449 24.2854 88.9861C23.1525 90.6311 20.6131 90.1878 19.9977 88.2818L0 26.2889C0 26.2889 7.06147 17.3891 19.3824 13.3505C27.7966 10.5924 34.7702 12.7348 38.7844 14.7049ZM51.4032 20.7481L53.5812 27.5005C55.3832 25.9441 57.6589 24.5503 60.6183 23.585C63.4995 22.6393 66.0438 22.1074 68.3439 21.802L66.244 15.2861C63.9195 15.6259 61.3557 16.1726 58.5282 17.0985C55.7056 18.0245 53.3761 19.3148 51.4032 20.7481ZM55.9302 34.8094L58.1082 41.5618C59.9102 40.0054 62.1859 38.6116 65.1453 37.6463C68.0265 36.7006 70.5708 36.1687 72.8709 35.8634L70.771 29.3474C68.4465 29.6872 65.8827 30.2339 63.0551 31.1598C60.2325 32.0808 57.908 33.3712 55.9302 34.8094ZM62.6401 55.6182L60.462 48.8658C62.435 47.4325 64.7595 46.1372 67.587 45.2162C70.4145 44.2903 72.9783 43.7436 75.3028 43.4038L77.4027 49.9198C75.1026 50.2251 72.5583 50.757 69.6771 51.7027C66.7177 52.668 64.442 54.0618 62.6401 55.6182ZM25.9751 59.5632L28.075 66.0792C30.1114 64.9661 32.4798 63.8875 35.3611 62.9468C38.3205 61.9765 40.9722 61.7549 43.3358 61.947L41.1577 55.1946C38.7209 55.2044 36.0887 55.5393 33.271 56.4604C30.4434 57.3863 28.0506 58.46 25.9751 59.5632ZM19.0162 37.9615L16.9163 31.4455C18.9918 30.3423 21.3846 29.2686 24.2122 28.3426C27.0348 27.4167 29.667 27.0867 32.1038 27.072L34.277 33.8293C31.9134 33.6372 29.2617 33.8588 26.3023 34.8291C23.421 35.7747 21.0526 36.8484 19.0162 37.9615ZM21.4432 45.5068L23.5431 52.0228C25.5795 50.9097 27.948 49.8311 30.8292 48.8904C33.7886 47.9201 36.4403 47.6985 38.8039 47.8906L36.6308 41.1333C34.1939 41.1431 31.5618 41.478 28.744 42.399C25.9165 43.325 23.5187 44.4036 21.4432 45.5068ZM53.1417 70.2951C49.1422 69.0934 43.8583 68.5319 37.8028 70.5118C31.6936 72.5114 27.4157 75.1858 24.6224 77.4267L8.77557 28.2638C10.5238 26.5006 14.5722 23.1318 21.7753 20.7727C28.5584 18.5514 34.1207 20.4526 37.7882 22.6344L53.1417 70.2951ZM72.1091 59.2726C78.2183 57.2681 83.2385 56.8938 86.8083 57.0514L70.9663 7.88356C68.5246 7.49448 63.2847 7.16942 56.0865 9.52856C49.2985 11.7498 45.9093 16.5863 44.2197 20.5264L59.5732 68.1871C62.1078 64.8479 66.0536 61.2575 72.1091 59.2726Z" fill="white"/>
</svg>
