<svg width="30" height="24" viewBox="0 0 30 24" fill="none" xmlns="http://www.w3.org/2000/svg">
<path fill-rule="evenodd" clip-rule="evenodd" d="M18.5 2.25C18.7761 2.25 19 2.02614 19 1.75C19 1.47386 18.7761 1.25 18.5 1.25C18.2239 1.25 18 1.47386 18 1.75C18 2.02614 18.2239 2.25 18.5 2.25ZM18.5 5.25C18.7761 5.25 19 5.02614 19 4.75C19 4.47386 18.7761 4.25 18.5 4.25C18.2239 4.25 18 4.47386 18 4.75C18 5.02614 18.2239 5.25 18.5 5.25ZM20.5 3.25C20.5 3.52614 20.2761 3.75 20 3.75C19.7239 3.75 19.5 3.52614 19.5 3.25C19.5 2.97386 19.7239 2.75 20 2.75C20.2761 2.75 20.5 2.97386 20.5 3.25ZM20 6.75C20.2761 6.75 20.5 6.52614 20.5 6.25C20.5 5.97386 20.2761 5.75 20 5.75C19.7239 5.75 19.5 5.97386 19.5 6.25C19.5 6.52614 19.7239 6.75 20 6.75ZM17.5 3.25C17.5 3.52614 17.2761 3.75 17 3.75C16.7239 3.75 16.5 3.52614 16.5 3.25C16.5 2.97386 16.7239 2.75 17 2.75C17.2761 2.75 17.5 2.97386 17.5 3.25ZM17 6.75C17.2761 6.75 17.5 6.52614 17.5 6.25C17.5 5.97386 17.2761 5.75 17 5.75C16.7239 5.75 16.5 5.97386 16.5 6.25C16.5 6.52614 16.7239 6.75 17 6.75ZM19 7.75C19 8.02614 18.7761 8.25 18.5 8.25C18.2239 8.25 18 8.02614 18 7.75C18 7.47386 18.2239 7.25 18.5 7.25C18.7761 7.25 19 7.47386 19 7.75ZM18.5 11.25C18.7761 11.25 19 11.0261 19 10.75C19 10.4739 18.7761 10.25 18.5 10.25C18.2239 10.25 18 10.4739 18 10.75C18 11.0261 18.2239 11.25 18.5 11.25ZM20.5 9.25C20.5 9.52614 20.2761 9.75 20 9.75C19.7239 9.75 19.5 9.52614 19.5 9.25C19.5 8.97386 19.7239 8.75 20 8.75C20.2761 8.75 20.5 8.97386 20.5 9.25ZM20 12.75C20.2761 12.75 20.5 12.5261 20.5 12.25C20.5 11.9739 20.2761 11.75 20 11.75C19.7239 11.75 19.5 11.9739 19.5 12.25C19.5 12.5261 19.7239 12.75 20 12.75ZM17.5 9.25C17.5 9.52614 17.2761 9.75 17 9.75C16.7239 9.75 16.5 9.52614 16.5 9.25C16.5 8.97386 16.7239 8.75 17 8.75C17.2761 8.75 17.5 8.97386 17.5 9.25ZM17 12.75C17.2761 12.75 17.5 12.5261 17.5 12.25C17.5 11.9739 17.2761 11.75 17 11.75C16.7239 11.75 16.5 11.9739 16.5 12.25C16.5 12.5261 16.7239 12.75 17 12.75ZM19 13.75C19 14.0261 18.7761 14.25 18.5 14.25C18.2239 14.25 18 14.0261 18 13.75C18 13.4739 18.2239 13.25 18.5 13.25C18.7761 13.25 19 13.4739 19 13.75ZM18.5 17.25C18.7761 17.25 19 17.0261 19 16.75C19 16.4739 18.7761 16.25 18.5 16.25C18.2239 16.25 18 16.4739 18 16.75C18 17.0261 18.2239 17.25 18.5 17.25ZM20.5 15.25C20.5 15.5261 20.2761 15.75 20 15.75C19.7239 15.75 19.5 15.5261 19.5 15.25C19.5 14.9739 19.7239 14.75 20 14.75C20.2761 14.75 20.5 14.9739 20.5 15.25ZM20 18.75C20.2761 18.75 20.5 18.5261 20.5 18.25C20.5 17.9739 20.2761 17.75 20 17.75C19.7239 17.75 19.5 17.9739 19.5 18.25C19.5 18.5261 19.7239 18.75 20 18.75ZM17.5 15.25C17.5 15.5261 17.2761 15.75 17 15.75C16.7239 15.75 16.5 15.5261 16.5 15.25C16.5 14.9739 16.7239 14.75 17 14.75C17.2761 14.75 17.5 14.9739 17.5 15.25ZM17 18.75C17.2761 18.75 17.5 18.5261 17.5 18.25C17.5 17.9739 17.2761 17.75 17 17.75C16.7239 17.75 16.5 17.9739 16.5 18.25C16.5 18.5261 16.7239 18.75 17 18.75ZM19 19.75C19 20.0261 18.7761 20.25 18.5 20.25C18.2239 20.25 18 20.0261 18 19.75C18 19.4739 18.2239 19.25 18.5 19.25C18.7761 19.25 19 19.4739 19 19.75ZM20 21.75C20.2761 21.75 20.5 21.5261 20.5 21.25C20.5 20.9739 20.2761 20.75 20 20.75C19.7239 20.75 19.5 20.9739 19.5 21.25C19.5 21.5261 19.7239 21.75 20 21.75ZM17.5 21.25C17.5 21.5261 17.2761 21.75 17 21.75C16.7239 21.75 16.5 21.5261 16.5 21.25C16.5 20.9739 16.7239 20.75 17 20.75C17.2761 20.75 17.5 20.9739 17.5 21.25Z" fill="#F9F8FC"/>
<path fill-rule="evenodd" clip-rule="evenodd" d="M29.5 22.75H29V4.25H23V22.75H21.5V0.25H15.5V22.75H14V15.75H8V22.75H6.5V11.25H0.5V22.75C0.224 22.75 0 22.9735 0 23.25C0 23.5265 0.224 23.75 0.5 23.75H6.5H8H14H15.5H21.5H23H29H29.5C29.776 23.75 30 23.5265 30 23.25C30 22.9735 29.776 22.75 29.5 22.75ZM1.5 22.75V12.25H5.5V22.75H1.5ZM9 16.75V22.75H13V16.75H9ZM19 22.75C19 22.474 18.776 22.25 18.5 22.25C18.224 22.25 18 22.474 18 22.75H16.5V21.25V18.25V15.25V12.25V9.25V6.25V3.25V1.25H18.5H20.5V3.25V6.25V9.25V12.25V15.25V18.25V21.25V22.75H19ZM24 5.25V22.75H28V5.25H24Z" fill="#F9F8FC"/>
</svg>
