<svg width="14" height="12" viewBox="0 0 14 12" fill="none" xmlns="http://www.w3.org/2000/svg">
<path fill-rule="evenodd" clip-rule="evenodd" d="M0 6C0 4.34315 1.34315 3 3 3C3.04199 3 3.08378 3.00086 3.12536 3.00257C3.5685 1.27604 5.13523 0 7 0C8.86477 0 10.4315 1.27604 10.8746 3.00257C10.9162 3.00086 10.958 3 11 3C12.6569 3 14 4.34315 14 6C14 7.10457 13.1046 8 12 8H8.5V10.5C8.5 11.3284 7.82843 12 7 12C6.17157 12 5.5 11.3284 5.5 10.5V8H2C0.89543 8 0 7.10457 0 6ZM7.5 4.20712L9.14603 5.85315C9.34129 6.04841 9.65829 6.04883 9.85355 5.85357C9.87796 5.82916 9.89932 5.80286 9.91762 5.77513C10.0458 5.58106 10.0244 5.31732 9.85355 5.14646L7 2.29291L4.14663 5.14628C3.95136 5.34154 3.95118 5.6583 4.14645 5.85357C4.34171 6.04883 4.65829 6.04883 4.85355 5.85357L6.5 4.20712V10.5C6.5 10.7761 6.72386 11 7 11C7.27614 11 7.5 10.7761 7.5 10.5V4.20712Z" fill="#607998"/>
</svg>
