<svg width="78" height="90" viewBox="0 0 78 90" fill="none" xmlns="http://www.w3.org/2000/svg">
<path d="M0 90C0 74.5 7.94904 70 16.8917 65.5C25.8344 61 26.828 60.5 26.828 53C25.0064 51.6667 21.3631 47.5 21.3631 41.5C20.535 41.1667 17.8854 39.1 17.8854 33.5C17.8854 27.9 19.5414 26.5 20.3694 26.5C20.3694 14.5 18.7702 0.302321 37.758 0.00388008L40.242 0.00388008C59.2298 0.302321 57.6306 14 57.6306 26.5C58.4586 26.5 60.1147 27.9 60.1147 33.5C60.1147 39.1 57.465 41.1667 56.6369 41.5C56.6369 47.5 52.9936 51.6667 51.172 53C51.172 60.5 52.1656 61 61.1083 65.5C70.051 70 78 74.5 78 90H0Z" fill="#E6F3FC"/>
</svg>
