<svg width="24" height="24" viewBox="0 0 24 24" fill="none" xmlns="http://www.w3.org/2000/svg">
<path fill-rule="evenodd" clip-rule="evenodd" d="M24 12C24 18.6274 18.6274 24 12 24C5.37258 24 0 18.6274 0 12C0 5.37258 5.37258 0 12 0C18.6274 0 24 5.37258 24 12ZM19.1132 20.7162C17.1748 22.3 14.6984 23.25 12 23.25C9.15153 23.25 6.55032 22.1914 4.56835 20.4461C5.23293 19.7526 6.10843 19.3094 6.95698 18.8852C8.58597 18.0707 9.37503 17.5013 9.37503 15.5868C8.50959 14.9574 8.15281 14.0044 8.15281 12.9683C7.53191 12.7196 7.37503 12.0866 7.37503 11.4444C7.37503 10.9388 7.32553 10.2639 7.93058 10.2639C7.93058 8.9108 7.75272 7.39725 8.25688 6.10614C8.45291 5.60412 8.75854 5.19057 9.24182 4.89323C10.529 4.10131 12.923 4.11002 14.2063 4.87979C14.689 5.16934 14.9931 5.57256 15.1882 6.06594C15.7016 7.36462 15.5139 8.90173 15.5139 10.2639C16.119 10.2639 16.0695 10.9388 16.0695 11.4444C16.0695 12.0714 15.9161 12.7186 15.2917 12.9683C15.2917 14.0044 14.9349 14.9574 14.0695 15.5868C14.0695 17.5013 14.8585 18.0707 16.4875 18.8852C17.4411 19.3618 18.4337 19.8673 19.1132 20.7162ZM19.6784 20.2223C18.9225 19.2916 17.8686 18.7372 16.8344 18.2201C15.676 17.6409 14.839 17.3526 14.8206 15.9558C15.2871 15.5462 15.9637 14.6597 16.0355 13.4353C16.3872 13.1661 16.8195 12.5516 16.8195 11.4444C16.8195 10.8644 16.783 10.0344 16.2647 9.6459C16.2726 8.36965 16.3644 7.00115 15.8857 5.7902C15.6393 5.16709 15.2367 4.62328 14.5921 4.23663C13.0713 3.32439 10.3705 3.31821 8.84881 4.25445C8.20481 4.65066 7.80363 5.20497 7.55826 5.83333C7.08925 7.0344 7.17144 8.38126 7.17971 9.64594C6.66148 10.0345 6.62503 10.8644 6.62503 11.4444C6.62503 12.5516 7.05732 13.1661 7.40903 13.4353C7.48078 14.6597 8.15743 15.5462 8.62393 15.9558C8.60553 17.3526 7.76854 17.6409 6.6101 18.2201C5.68794 18.6812 4.75156 19.1696 4.02223 19.9321C1.9998 17.8981 0.75 15.095 0.75 12C0.75 5.7868 5.7868 0.75 12 0.75C18.2132 0.75 23.25 5.7868 23.25 12C23.25 15.245 21.8761 18.169 19.6784 20.2223Z" fill="#607998"/>
</svg>
