<svg width="130" height="104" viewBox="0 0 130 104" fill="none" xmlns="http://www.w3.org/2000/svg">
<path fill-rule="evenodd" clip-rule="evenodd" d="M110.19 61.9048C104.046 61.9048 99.0476 57.1838 99.0476 51.381C99.0476 45.5781 104.046 40.8571 110.19 40.8571C116.335 40.8571 121.333 45.5781 121.333 51.381C121.333 57.1838 116.335 61.9048 110.19 61.9048ZM110.19 57.6952C113.877 57.6952 116.876 54.8622 116.876 51.381C116.876 47.8997 113.877 45.0667 110.19 45.0667C106.504 45.0667 103.505 47.8997 103.505 51.381C103.505 54.8622 106.504 57.6952 110.19 57.6952Z" fill="#F6F6FA"/>
<path fill-rule="evenodd" clip-rule="evenodd" d="M122.469 0H109.469H7.53133C3.37783 0 0 3.38 0 7.53133V96.4708C0 100.62 3.37783 104 7.53133 104H109.471H122.471C126.62 104 130 100.62 130 96.4687V71.5V67.1667V36.8333V32.5V7.53133C130 3.38 126.62 0 122.469 0ZM7.53133 99.6667C5.76767 99.6667 4.33333 98.2323 4.33333 96.4687V7.53133C4.33333 5.76767 5.76767 4.33333 7.53133 4.33333H109.471C111.232 4.33333 112.667 5.76767 112.667 7.53133V32.5H110.5C99.749 32.5 91 41.2468 91 52C91 62.7532 99.749 71.5 110.5 71.5H112.667V96.4687C112.667 98.2323 111.232 99.6667 109.469 99.6667H7.53133ZM122.469 99.6667C124.232 99.6667 125.667 98.2323 125.667 96.4687V71.5H117V96.4687C117 97.0168 116.935 97.5477 116.82 98.0612C116.798 98.1656 116.764 98.2637 116.73 98.3617C116.708 98.4264 116.685 98.491 116.666 98.5573C116.571 98.8932 116.471 99.2225 116.331 99.5367C116.321 99.5573 116.314 99.5795 116.308 99.6017C116.305 99.6095 116.303 99.6174 116.301 99.6251C116.299 99.6304 116.297 99.6357 116.295 99.6409C116.292 99.6497 116.289 99.6583 116.285 99.6667H122.469ZM125.667 67.1667H117H112.667H110.5C102.139 67.1667 95.3333 60.3612 95.3333 52C95.3333 43.6388 102.139 36.8333 110.5 36.8333H112.667H117H125.667V67.1667ZM117 7.53133V32.5H125.667V7.53133C125.667 5.76767 124.232 4.33333 122.471 4.33333H116.287C116.297 4.35392 116.303 4.37613 116.31 4.39833C116.316 4.42054 116.323 4.44275 116.333 4.46333C116.471 4.7775 116.571 5.109 116.669 5.44267C116.688 5.50939 116.71 5.57473 116.733 5.64007C116.766 5.7381 116.8 5.83612 116.822 5.93883C116.935 6.45233 117 6.98317 117 7.53133Z" fill="#F6F6FA"/>
<path fill-rule="evenodd" clip-rule="evenodd" d="M90.4886 10.8333C90.4886 12.03 89.5245 13 88.3354 13C87.1462 13 86.1822 12.03 86.1822 10.8333C86.1822 9.63672 87.1462 8.66667 88.3354 8.66667C89.5245 8.66667 90.4886 9.63672 90.4886 10.8333ZM9.29106 9.29501C8.90348 9.70451 8.66663 10.2462 8.66663 10.8333C8.66663 11.3967 8.90348 11.96 9.29106 12.35C9.70017 12.7617 10.2385 13 10.8198 13C11.3797 13 11.9395 12.7617 12.3486 12.3717C12.7362 11.96 12.973 11.3967 12.973 10.8333C12.973 10.27 12.7362 9.70451 12.3486 9.29501C11.5304 8.49334 10.0877 8.49334 9.29106 9.29501ZM12.973 19.0667C12.973 20.2633 12.009 21.2333 10.8198 21.2333C9.63065 21.2333 8.66663 20.2633 8.66663 19.0667C8.66663 17.8701 9.63065 16.9 10.8198 16.9C12.009 16.9 12.973 17.8701 12.973 19.0667ZM104.032 76.115C103.643 76.505 103.408 77.0662 103.408 77.6317C103.408 78.2167 103.643 78.7583 104.032 79.17C104.439 79.5795 105.001 79.7983 105.561 79.7983C106.121 79.7983 106.681 79.5795 107.09 79.17C107.477 78.7583 107.714 78.2167 107.714 77.6317C107.714 77.0662 107.477 76.5028 107.09 76.115C106.272 75.2917 104.829 75.2917 104.032 76.115ZM105.561 83.2433C104.377 83.2433 103.408 84.1945 103.408 85.41C103.408 86.6017 104.377 87.5767 105.561 87.5767C106.745 87.5767 107.714 86.6017 107.714 85.41C107.714 84.1945 106.745 83.2433 105.561 83.2433ZM103.408 93.1667C103.408 92.6033 103.643 92.0378 104.032 91.6283C104.829 90.8267 106.272 90.8267 107.09 91.6283C107.477 92.0378 107.714 92.6033 107.714 93.1667C107.714 93.73 107.477 94.2933 107.09 94.705C106.681 95.095 106.121 95.3333 105.561 95.3333C104.978 95.3333 104.439 95.095 104.032 94.6833C103.643 94.2933 103.408 93.73 103.408 93.1667ZM53.884 95.3333C55.0732 95.3333 56.0372 94.3633 56.0372 93.1667C56.0372 91.9701 55.0732 91 53.884 91C52.6948 91 51.7308 91.9701 51.7308 93.1667C51.7308 94.3633 52.6948 95.3333 53.884 95.3333ZM47.4244 93.1667C47.4244 94.3633 46.4604 95.3333 45.2712 95.3333C44.082 95.3333 43.118 94.3633 43.118 93.1667C43.118 91.9701 44.082 91 45.2712 91C46.4604 91 47.4244 91.9701 47.4244 93.1667ZM62.4969 95.3333C63.686 95.3333 64.6501 94.3633 64.6501 93.1667C64.6501 91.9701 63.686 91 62.4969 91C61.3077 91 60.3436 91.9701 60.3436 93.1667C60.3436 94.3633 61.3077 95.3333 62.4969 95.3333ZM30.1987 93.1667C30.1987 94.3633 29.2347 95.3333 28.0455 95.3333C26.8563 95.3333 25.8923 94.3633 25.8923 93.1667C25.8923 91.9701 26.8563 91 28.0455 91C29.2347 91 30.1987 91.9701 30.1987 93.1667ZM19.4327 95.3333C20.6219 95.3333 21.5859 94.3633 21.5859 93.1667C21.5859 91.9701 20.6219 91 19.4327 91C18.2435 91 17.2795 91.9701 17.2795 93.1667C17.2795 94.3633 18.2435 95.3333 19.4327 95.3333ZM38.8116 93.1667C38.8116 94.3633 37.8475 95.3333 36.6583 95.3333C35.4692 95.3333 34.5051 94.3633 34.5051 93.1667C34.5051 91.9701 35.4692 91 36.6583 91C37.8475 91 38.8116 91.9701 38.8116 93.1667ZM88.3354 95.3333C89.5245 95.3333 90.4886 94.3633 90.4886 93.1667C90.4886 91.9701 89.5245 91 88.3354 91C87.1462 91 86.1822 91.9701 86.1822 93.1667C86.1822 94.3633 87.1462 95.3333 88.3354 95.3333ZM73.2629 93.1667C73.2629 94.3633 72.2989 95.3333 71.1097 95.3333C69.9205 95.3333 68.9565 94.3633 68.9565 93.1667C68.9565 91.9701 69.9205 91 71.1097 91C72.2989 91 73.2629 91.9701 73.2629 93.1667ZM96.9482 95.3333C98.1374 95.3333 99.1014 94.3633 99.1014 93.1667C99.1014 91.9701 98.1374 91 96.9482 91C95.759 91 94.795 91.9701 94.795 93.1667C94.795 94.3633 95.759 95.3333 96.9482 95.3333ZM81.8757 93.1667C81.8757 94.3633 80.9117 95.3333 79.7225 95.3333C78.5333 95.3333 77.5693 94.3633 77.5693 93.1667C77.5693 91.9701 78.5333 91 79.7225 91C80.9117 91 81.8757 91.9701 81.8757 93.1667ZM9.29106 91.6283C8.90348 92.0378 8.66663 92.6033 8.66663 93.1667C8.66663 93.73 8.90348 94.2933 9.29106 94.705C9.70017 95.095 10.26 95.3333 10.8198 95.3333C11.3797 95.3333 11.9395 95.095 12.3486 94.705C12.7362 94.2933 12.973 93.73 12.973 93.1667C12.973 92.6033 12.7362 92.0378 12.3486 91.6283C11.5304 90.8267 10.1093 90.8267 9.29106 91.6283ZM10.8198 29.4667C12.009 29.4667 12.973 28.4966 12.973 27.3C12.973 26.1034 12.009 25.1333 10.8198 25.1333C9.63065 25.1333 8.66663 26.1034 8.66663 27.3C8.66663 28.4966 9.63065 29.4667 10.8198 29.4667ZM12.973 60.2333C12.973 61.43 12.009 62.4 10.8198 62.4C9.63065 62.4 8.66663 61.43 8.66663 60.2333C8.66663 59.0367 9.63065 58.0667 10.8198 58.0667C12.009 58.0667 12.973 59.0367 12.973 60.2333ZM10.8198 45.9333C12.009 45.9333 12.973 44.9633 12.973 43.7667C12.973 42.5701 12.009 41.6 10.8198 41.6C9.63065 41.6 8.66663 42.5701 8.66663 43.7667C8.66663 44.9633 9.63065 45.9333 10.8198 45.9333ZM12.973 35.5312C12.973 36.7278 12.009 37.6978 10.8198 37.6978C9.63065 37.6978 8.66663 36.7278 8.66663 35.5312C8.66663 34.3346 9.63065 33.3645 10.8198 33.3645C12.009 33.3645 12.973 34.3346 12.973 35.5312ZM10.8198 70.6333C12.009 70.6333 12.973 69.6633 12.973 68.4667C12.973 67.2701 12.009 66.3 10.8198 66.3C9.63065 66.3 8.66663 67.2701 8.66663 68.4667C8.66663 69.6633 9.63065 70.6333 10.8198 70.6333ZM12.973 52C12.973 53.1966 12.009 54.1667 10.8198 54.1667C9.63065 54.1667 8.66663 53.1966 8.66663 52C8.66663 50.8034 9.63065 49.8333 10.8198 49.8333C12.009 49.8333 12.973 50.8034 12.973 52ZM10.8198 78.8645C12.009 78.8645 12.973 77.8945 12.973 76.6978C12.973 75.5012 12.009 74.5312 10.8198 74.5312C9.63065 74.5312 8.66663 75.5012 8.66663 76.6978C8.66663 77.8945 9.63065 78.8645 10.8198 78.8645ZM12.973 84.9333C12.973 86.13 12.009 87.1 10.8198 87.1C9.63065 87.1 8.66663 86.13 8.66663 84.9333C8.66663 83.7367 9.63065 82.7667 10.8198 82.7667C12.009 82.7667 12.973 83.7367 12.973 84.9333ZM96.9482 13C98.1374 13 99.1014 12.03 99.1014 10.8333C99.1014 9.63672 98.1374 8.66667 96.9482 8.66667C95.759 8.66667 94.795 9.63672 94.795 10.8333C94.795 12.03 95.759 13 96.9482 13ZM64.6501 10.8333C64.6501 12.03 63.686 13 62.4969 13C61.3077 13 60.3436 12.03 60.3436 10.8333C60.3436 9.63672 61.3077 8.66667 62.4969 8.66667C63.686 8.66667 64.6501 9.63672 64.6501 10.8333ZM71.1097 13C72.2989 13 73.2629 12.03 73.2629 10.8333C73.2629 9.63672 72.2989 8.66667 71.1097 8.66667C69.9205 8.66667 68.9565 9.63672 68.9565 10.8333C68.9565 12.03 69.9205 13 71.1097 13ZM56.0372 10.8333C56.0372 12.03 55.0732 13 53.884 13C52.6948 13 51.7308 12.03 51.7308 10.8333C51.7308 9.63672 52.6948 8.66667 53.884 8.66667C55.0732 8.66667 56.0372 9.63672 56.0372 10.8333ZM79.7225 13C80.9117 13 81.8757 12.03 81.8757 10.8333C81.8757 9.63672 80.9117 8.66667 79.7225 8.66667C78.5333 8.66667 77.5693 9.63672 77.5693 10.8333C77.5693 12.03 78.5333 13 79.7225 13ZM38.8116 10.8333C38.8116 12.03 37.8475 13 36.6583 13C35.4692 13 34.5051 12.03 34.5051 10.8333C34.5051 9.63672 35.4692 8.66667 36.6583 8.66667C37.8475 8.66667 38.8116 9.63672 38.8116 10.8333ZM28.0455 13C29.2347 13 30.1987 12.03 30.1987 10.8333C30.1987 9.63672 29.2347 8.66667 28.0455 8.66667C26.8563 8.66667 25.8923 9.63672 25.8923 10.8333C25.8923 12.03 26.8563 13 28.0455 13ZM21.5859 10.8333C21.5859 12.03 20.6219 13 19.4327 13C18.2435 13 17.2795 12.03 17.2795 10.8333C17.2795 9.63672 18.2435 8.66667 19.4327 8.66667C20.6219 8.66667 21.5859 9.63672 21.5859 10.8333ZM45.2712 13C46.4604 13 47.4244 12.03 47.4244 10.8333C47.4244 9.63672 46.4604 8.66667 45.2712 8.66667C44.082 8.66667 43.118 9.63672 43.118 10.8333C43.118 12.03 44.082 13 45.2712 13ZM107.09 12.3717C106.681 12.7617 106.121 13 105.561 13C104.978 13 104.439 12.7617 104.032 12.35C103.643 11.96 103.408 11.3967 103.408 10.8333C103.408 10.27 103.643 9.70451 104.032 9.29501C104.829 8.49334 106.272 8.49334 107.09 9.29501C107.477 9.70451 107.714 10.2462 107.714 10.8333C107.714 11.3967 107.477 11.96 107.09 12.3717ZM105.561 20.7567C106.745 20.7567 107.714 19.8033 107.714 18.59C107.714 17.3983 106.745 16.445 105.561 16.445C104.377 16.445 103.408 17.3983 103.408 18.59C103.408 19.8033 104.377 20.7567 105.561 20.7567ZM107.09 27.885C106.681 28.2967 106.142 28.535 105.561 28.535C104.978 28.535 104.439 28.2967 104.032 27.885C103.643 27.495 103.408 26.9533 103.408 26.3683C103.408 25.7812 103.645 25.22 104.054 24.83C104.829 24.0283 106.293 24.0283 107.09 24.83C107.477 25.2395 107.714 25.7812 107.714 26.3683C107.714 26.9317 107.477 27.4928 107.09 27.885Z" fill="#F6F6FA"/>
</svg>
