<svg width="251" height="261" viewBox="0 0 251 261" fill="none" xmlns="http://www.w3.org/2000/svg">
<rect width="251" height="261" fill="url(#paint0_linear)"/>
<path d="M180.454 115.778C180.594 114.793 180.707 113.799 180.794 112.797C180.93 111.216 181 109.616 181 108C181 106.384 180.93 104.784 180.794 103.203C180.707 102.201 180.594 101.207 180.454 100.222C180.313 99.2264 180.146 98.2394 179.952 97.2618C176.817 97.703 174.54 100.527 174.816 103.719C174.938 105.129 175 106.556 175 108C175 109.444 174.938 110.871 174.816 112.281C174.54 115.473 176.817 118.297 179.952 118.738C180.146 117.761 180.313 116.774 180.454 115.778Z" fill="white"/>
<path d="M178.096 125.682C175.16 124.5 171.778 125.808 170.423 128.71C169.21 131.305 167.777 133.778 166.146 136.103C164.305 138.727 164.858 142.312 167.35 144.267C168.01 143.515 168.65 142.745 169.269 141.957C169.886 141.171 170.483 140.368 171.058 139.549C172.888 136.94 174.497 134.164 175.859 131.25C176.281 130.346 176.68 129.428 177.053 128.498C177.426 127.572 177.773 126.633 178.096 125.682Z" fill="white"/>
<path d="M162.267 149.35C160.312 146.858 156.727 146.305 154.103 148.146C151.778 149.777 149.305 151.21 146.71 152.423C143.808 153.778 142.5 157.16 143.682 160.096C144.633 159.773 145.571 159.426 146.498 159.053C147.428 158.68 148.346 158.281 149.25 157.859C152.164 156.497 154.94 154.888 157.549 153.058C158.368 152.483 159.171 151.886 159.957 151.269C160.745 150.65 161.515 150.01 162.267 149.35Z" fill="white"/>
<path d="M136.738 161.952C136.297 158.817 133.473 156.54 130.281 156.816C128.871 156.938 127.444 157 126 157C124.556 157 123.129 156.938 121.719 156.816C118.527 156.54 115.703 158.817 115.262 161.952C116.239 162.146 117.226 162.313 118.222 162.454C119.207 162.594 120.201 162.707 121.203 162.794C122.784 162.93 124.384 163 126 163C127.616 163 129.216 162.93 130.797 162.794C131.799 162.707 132.793 162.594 133.778 162.454C134.774 162.313 135.761 162.146 136.738 161.952Z" fill="white"/>
<path d="M108.318 160.096C109.5 157.16 108.192 153.778 105.29 152.423C102.695 151.21 100.222 149.777 97.8967 148.146C95.2735 146.305 91.688 146.858 89.7334 149.35C90.4853 150.01 91.2554 150.65 92.0428 151.269C92.8286 151.886 93.6316 152.483 94.451 153.058C97.0602 154.888 99.8357 156.497 102.75 157.859C103.654 158.281 104.572 158.68 105.502 159.053C106.429 159.426 107.367 159.773 108.318 160.096Z" fill="white"/>
<path d="M84.6501 144.267C87.1415 142.312 87.6946 138.727 85.8544 136.103C84.2232 133.778 82.7896 131.305 81.5774 128.71C80.2218 125.808 76.84 124.5 73.9041 125.682C74.2266 126.633 74.5744 127.571 74.9466 128.498C75.3204 129.428 75.7189 130.346 76.1413 131.25C77.5027 134.164 79.1121 136.94 80.9425 139.549C81.5173 140.368 82.1139 141.171 82.7315 141.957C83.3503 142.745 83.9901 143.515 84.6501 144.267Z" fill="white"/>
<path d="M72.0477 118.738C75.1831 118.297 77.4599 115.473 77.1841 112.281C77.0623 110.871 77 109.444 77 108C77 106.556 77.0623 105.129 77.1841 103.719C77.4599 100.527 75.1831 97.7031 72.0477 97.2618C71.8542 98.2394 71.6867 99.2264 71.5457 100.222C71.4062 101.207 71.2929 102.201 71.2063 103.203C71.0697 104.784 71 106.384 71 108C71 109.616 71.0697 111.216 71.2063 112.797C71.2929 113.799 71.4062 114.793 71.5457 115.778C71.6867 116.774 71.8542 117.761 72.0477 118.738Z" fill="white"/>
<path d="M73.9041 90.3178C76.84 91.5005 80.2218 90.1918 81.5774 87.2896C82.7896 84.6945 84.2232 82.2221 85.8544 79.8967C87.6946 77.2735 87.1415 73.688 84.6501 71.7334C83.9901 72.4853 83.3503 73.2554 82.7315 74.0428C82.1139 74.8286 81.5173 75.6316 80.9425 76.451C79.1121 79.0602 77.5027 81.8357 76.1413 84.7503C75.7189 85.6545 75.3204 86.572 74.9466 87.5022C74.5744 88.4285 74.2266 89.3673 73.9041 90.3178Z" fill="white"/>
<path d="M89.7334 66.6501C91.688 69.1415 95.2735 69.6946 97.8967 67.8544C100.222 66.2232 102.695 64.7896 105.29 63.5774C108.192 62.2218 109.5 58.84 108.318 55.9041C107.367 56.2266 106.429 56.5744 105.502 56.9466C104.572 57.3204 103.654 57.7189 102.75 58.1413C99.8357 59.5027 97.0602 61.1121 94.451 62.9425C93.6316 63.5173 92.8286 64.1139 92.0428 64.7315C91.2554 65.3503 90.4853 65.9901 89.7334 66.6501Z" fill="white"/>
<path d="M115.262 54.0477C115.703 57.1831 118.527 59.4599 121.719 59.1841C123.129 59.0623 124.556 59 126 59C127.444 59 128.871 59.0623 130.281 59.1841C133.473 59.4599 136.297 57.1831 136.738 54.0477C135.761 53.8542 134.774 53.6867 133.778 53.5457C132.793 53.4062 131.799 53.2929 130.797 53.2063C129.216 53.0697 127.616 53 126 53C124.384 53 122.784 53.0697 121.203 53.2063C120.201 53.2929 119.207 53.4062 118.222 53.5457C117.226 53.6867 116.239 53.8542 115.262 54.0477Z" fill="white"/>
<path d="M143.682 55.9041C142.5 58.84 143.808 62.2218 146.71 63.5774C149.305 64.7896 151.778 66.2232 154.103 67.8544C156.727 69.6946 160.312 69.1415 162.267 66.6501C161.515 65.9901 160.745 65.3503 159.957 64.7315C159.171 64.1139 158.368 63.5173 157.549 62.9425C154.94 61.1122 152.164 59.5027 149.25 58.1413C148.346 57.7189 147.428 57.3204 146.498 56.9466C145.572 56.5744 144.633 56.2266 143.682 55.9041Z" fill="white"/>
<path d="M167.35 71.7334C164.858 73.688 164.305 77.2735 166.146 79.8967C167.777 82.2221 169.21 84.6945 170.423 87.2896C171.778 90.1918 175.16 91.5005 178.096 90.3178C177.773 89.3673 177.426 88.4285 177.053 87.5022C176.68 86.572 176.281 85.6545 175.859 84.7503C174.497 81.8357 172.888 79.0602 171.058 76.451C170.483 75.6316 169.886 74.8286 169.269 74.0428C168.65 73.2554 168.01 72.4853 167.35 71.7334Z" fill="white"/>
<path d="M121 76C121 74.8954 120.105 74 119 74C117.895 74 117 74.8954 117 76V82.4902C116.5 82.6504 116.009 82.8235 115.526 83.0095C112.045 84.3491 109.078 86.2346 106.624 88.6658C104.196 91.097 102.318 93.9995 100.991 97.3735C99.6635 100.747 99 104.456 99 108.5C99 112.494 99.6886 116.178 101.066 119.552C102.443 122.926 104.396 125.829 106.925 128.26C109.479 130.691 112.546 132.589 116.127 133.953C116.415 134.062 116.706 134.167 117 134.268V141C117 142.105 117.895 143 119 143C120.105 143 121 142.105 121 141L121 135.334C123.26 135.778 125.654 136 128.183 136C128.457 136 128.729 135.997 129 135.992V141C129 142.105 129.895 143 131 143C132.105 143 133 142.105 133 141V135.702C134.789 135.474 136.514 135.114 138.174 134.623C141.304 133.68 144.246 132.204 147 130.195V108.426H128.972V114.082C128.972 114.603 129.147 115.049 129.498 115.422C129.873 115.769 130.387 115.942 131.038 115.942H137.873V125.692C136.371 126.412 134.831 126.982 133.254 127.404C131.676 127.826 129.886 128.037 127.883 128.037C125.078 128.037 122.537 127.602 120.258 126.734C117.98 125.841 116.027 124.563 114.399 122.901C112.797 121.214 111.545 119.168 110.643 116.761C109.767 114.33 109.329 111.576 109.329 108.5C109.329 105.622 109.742 103.017 110.568 100.685C111.394 98.3534 112.571 96.3563 114.099 94.6942C115.626 93.032 117.466 91.7544 119.62 90.8613C121.798 89.9682 124.227 89.5216 126.906 89.5216C128.559 89.5216 130.011 89.6333 131.263 89.8566C132.54 90.0798 133.679 90.3651 134.681 90.7124C135.707 91.0598 136.634 91.4691 137.46 91.9405L139.939 93.3545C140.79 93.8755 141.579 94.0616 142.305 93.9127C143.031 93.7391 143.62 93.2925 144.07 92.5731L146.962 88.0331C145.836 86.9912 144.596 86.0361 143.244 85.1678C141.892 84.2995 140.39 83.5677 138.737 82.9723C137.11 82.3521 135.332 81.8683 133.404 81.521C133.27 81.4965 133.135 81.473 133 81.4503V76C133 74.8954 132.105 74 131 74C129.895 74 129 74.8954 129 76V81.0382C128.426 81.0127 127.84 81 127.244 81C125.054 81 122.973 81.1712 121 81.5137V76Z" fill="white"/>
<path fill-rule="evenodd" clip-rule="evenodd" d="M191 108C191 108.329 190.998 108.658 190.993 108.986L188.993 108.956C188.983 109.592 188.965 110.226 188.936 110.858L190.934 110.947C190.905 111.603 190.866 112.258 190.817 112.909L188.823 112.76C188.776 113.394 188.719 114.025 188.653 114.653L190.642 114.862C190.574 115.515 190.495 116.166 190.407 116.814L188.425 116.545C188.34 117.175 188.245 117.802 188.141 118.426L190.114 118.755C190.007 119.402 189.889 120.045 189.763 120.686L187.8 120.297C187.677 120.921 187.544 121.542 187.402 122.16L189.352 122.607C189.206 123.246 189.049 123.881 188.884 124.512L186.949 124.006C186.788 124.621 186.618 125.232 186.439 125.84L188.357 126.405C188.172 127.034 187.978 127.659 187.774 128.28L185.873 127.656C185.675 128.26 185.468 128.859 185.253 129.454L187.134 130.135C186.91 130.752 186.678 131.364 186.437 131.972L184.577 131.234C184.343 131.824 184.1 132.41 183.849 132.991L185.685 133.785C185.425 134.387 185.155 134.984 184.878 135.576L183.067 134.726C182.797 135.301 182.519 135.871 182.232 136.437L184.017 137.341C183.721 137.925 183.416 138.504 183.103 139.078L181.347 138.12C181.043 138.678 180.731 139.23 180.41 139.778L182.137 140.788C181.806 141.353 181.467 141.913 181.119 142.467L179.424 141.405C179.087 141.943 178.742 142.475 178.39 143.002L180.052 144.115C179.687 144.659 179.315 145.198 178.935 145.73L177.307 144.568C176.938 145.085 176.562 145.595 176.178 146.1L177.77 147.311C177.373 147.832 176.969 148.347 176.558 148.856L175.003 147.598C174.604 148.091 174.197 148.579 173.783 149.059L175.3 150.364C174.873 150.86 174.439 151.35 173.997 151.833L172.521 150.484C172.093 150.952 171.658 151.414 171.216 151.87L172.651 153.263C172.195 153.732 171.732 154.195 171.263 154.651L169.87 153.216C169.414 153.658 168.952 154.093 168.484 154.521L169.833 155.997C169.35 156.439 168.86 156.873 168.364 157.3L167.06 155.783C166.579 156.197 166.091 156.604 165.598 157.003L166.856 158.558C166.347 158.969 165.832 159.373 165.311 159.77L164.1 158.178C163.595 158.562 163.085 158.938 162.568 159.307L163.73 160.935C163.198 161.315 162.659 161.687 162.115 162.052L161.002 160.39C160.475 160.742 159.943 161.087 159.405 161.424L160.467 163.119C159.913 163.467 159.353 163.806 158.788 164.137L157.777 162.41C157.23 162.731 156.678 163.043 156.12 163.347L157.078 165.103C156.504 165.416 155.925 165.721 155.341 166.017L154.437 164.232C153.871 164.519 153.301 164.797 152.726 165.067L153.576 166.878C152.984 167.155 152.387 167.425 151.785 167.685L150.991 165.849C150.41 166.1 149.824 166.343 149.234 166.577L149.972 168.437C149.364 168.678 148.752 168.91 148.135 169.134L147.454 167.253C146.859 167.468 146.26 167.675 145.656 167.873L146.28 169.774C145.659 169.978 145.034 170.172 144.405 170.357L143.84 168.439C143.232 168.618 142.621 168.788 142.005 168.949L142.512 170.884C141.881 171.049 141.246 171.206 140.607 171.352L140.16 169.402C139.542 169.544 138.921 169.677 138.297 169.8L138.686 171.763C138.045 171.889 137.402 172.007 136.755 172.114L136.426 170.141C135.802 170.245 135.175 170.34 134.545 170.425L134.814 172.408C134.166 172.495 133.515 172.574 132.862 172.642L132.653 170.653C132.025 170.719 131.394 170.776 130.76 170.823L130.909 172.817C130.258 172.866 129.603 172.905 128.947 172.934L128.858 170.936C128.226 170.965 127.592 170.983 126.956 170.993L126.986 172.993C126.658 172.998 126.329 173 126 173C125.671 173 125.342 172.998 125.014 172.993L125.044 170.993C124.408 170.983 123.774 170.965 123.142 170.936L123.053 172.934C122.397 172.905 121.742 172.866 121.091 172.817L121.24 170.823C120.606 170.776 119.975 170.719 119.347 170.653L119.138 172.642C118.485 172.574 117.834 172.495 117.186 172.407L117.455 170.425C116.825 170.34 116.198 170.245 115.574 170.141L115.245 172.114C114.598 172.007 113.955 171.889 113.314 171.763L113.703 169.8C113.079 169.677 112.458 169.544 111.84 169.402L111.393 171.352C110.754 171.206 110.119 171.049 109.488 170.884L109.994 168.949C109.379 168.788 108.768 168.618 108.16 168.439L107.595 170.357C106.966 170.172 106.341 169.978 105.72 169.774L106.344 167.873C105.74 167.675 105.141 167.468 104.546 167.253L103.865 169.134C103.248 168.91 102.636 168.678 102.028 168.437L102.766 166.577C102.176 166.343 101.59 166.1 101.009 165.849L100.215 167.685C99.6131 167.425 99.0163 167.155 98.4243 166.878L99.274 165.067C98.699 164.797 98.1288 164.519 97.5635 164.232L96.6592 166.017C96.0751 165.721 95.496 165.416 94.9222 165.103L95.88 163.347C95.3223 163.043 94.7698 162.731 94.2225 162.41L93.212 164.137C92.6467 163.806 92.0869 163.467 91.5327 163.119L92.5948 161.424C92.057 161.087 91.5245 160.742 90.9977 160.39L89.885 162.052C89.3407 161.687 88.8021 161.315 88.2696 160.935L89.4319 159.307C88.9154 158.938 88.4046 158.562 87.8999 158.178L86.6891 159.77C86.1679 159.373 85.6529 158.969 85.1441 158.558L86.4022 157.003C85.9088 156.604 85.4215 156.197 84.9405 155.783L83.6363 157.3C83.14 156.873 82.6502 156.439 82.1671 155.997L83.5162 154.521C83.0477 154.093 82.5857 153.658 82.1303 153.216L80.7375 154.651C80.2678 154.195 79.8049 153.732 79.349 153.263L80.7843 151.87C80.3424 151.414 79.9074 150.952 79.4793 150.484L78.0028 151.833C77.5614 151.35 77.1271 150.86 76.7002 150.364L78.2166 149.06C77.8029 148.579 77.3964 148.091 76.9971 147.598L75.4423 148.856C75.0307 148.347 74.6266 147.832 74.2302 147.311L75.8222 146.1C75.4384 145.595 75.0619 145.085 74.6931 144.568L73.0654 145.73C72.6851 145.198 72.3127 144.659 71.9482 144.115L73.6104 143.002C73.2577 142.475 72.9128 141.943 72.5757 141.405L70.8808 142.467C70.5335 141.913 70.1943 141.353 69.8634 140.788L71.5897 139.777C71.2694 139.23 70.9571 138.678 70.653 138.12L68.8968 139.078C68.5839 138.504 68.2793 137.925 67.9833 137.341L69.7677 136.437C69.4812 135.871 69.2031 135.301 68.9333 134.726L67.1223 135.576C66.8445 134.984 66.5755 134.387 66.3152 133.785L68.1513 132.991C67.8999 132.41 67.657 131.824 67.4227 131.234L65.5634 131.972C65.322 131.364 65.0896 130.752 64.8662 130.135L66.7472 129.454C66.5317 128.859 66.3249 128.26 66.127 127.656L64.2262 128.28C64.0225 127.659 63.8279 127.034 63.6425 126.405L65.5615 125.84C65.3824 125.232 65.2122 124.621 65.0511 124.005L63.1159 124.512C62.9505 123.881 62.7945 123.246 62.6478 122.607L64.5975 122.16C64.4558 121.542 64.3231 120.921 64.1996 120.297L62.2372 120.686C62.1105 120.045 61.9933 119.402 61.8856 118.755L63.8587 118.426C63.7548 117.802 63.66 117.175 63.5746 116.545L61.5925 116.814C61.5047 116.166 61.4264 115.515 61.3579 114.862L63.3471 114.653C63.2812 114.025 63.2245 113.394 63.1771 112.76L61.1826 112.909C61.1339 112.258 61.0949 111.603 61.0656 110.947L63.0637 110.858C63.0355 110.226 63.0166 109.592 63.0071 108.956L61.0073 108.986C61.0024 108.658 61 108.329 61 108C61 107.671 61.0024 107.342 61.0073 107.014L63.0071 107.044C63.0166 106.408 63.0355 105.774 63.0637 105.142L61.0656 105.053C61.0949 104.397 61.134 103.742 61.1826 103.091L63.1771 103.24C63.2245 102.606 63.2812 101.975 63.3471 101.347L61.3579 101.138C61.4264 100.485 61.5047 99.8339 61.5925 99.1863L63.5746 99.455C63.6601 98.8249 63.7548 98.1978 63.8587 97.5738L61.8856 97.2453C61.9933 96.5984 62.1106 95.9547 62.2372 95.3144L64.1996 95.7026C64.3231 95.0786 64.4558 94.4578 64.5975 93.8405L62.6478 93.3927C62.7945 92.7541 62.9506 92.119 63.1159 91.4877L65.0511 91.9945C65.2122 91.3793 65.3824 90.7678 65.5615 90.1602L63.6425 89.5947C63.8279 88.9657 64.0225 88.3408 64.2262 87.7199L66.127 88.3436C66.3249 87.7403 66.5317 87.1411 66.7472 86.546L64.8662 85.8648C65.0896 85.2481 65.322 84.6357 65.5634 84.0278L67.4227 84.7659C67.657 84.1758 67.8999 83.5901 68.1513 83.009L66.3152 82.2147C66.5755 81.6131 66.8445 81.0163 67.1223 80.4243L68.9333 81.274C69.2031 80.699 69.4812 80.1288 69.7677 79.5635L67.9833 78.6592C68.2793 78.0751 68.5839 77.496 68.8968 76.9222L70.653 77.88C70.9571 77.3223 71.2694 76.7698 71.5898 76.2225L69.8634 75.212C70.1943 74.6467 70.5335 74.0869 70.8808 73.5327L72.5757 74.5948C72.9128 74.057 73.2577 73.5245 73.6104 72.9977L71.9482 71.885C72.3127 71.3407 72.6851 70.8021 73.0654 70.2696L74.6931 71.4319C75.0619 70.9154 75.4384 70.4046 75.8222 69.8999L74.2302 68.6891C74.6266 68.1679 75.0307 67.6529 75.4423 67.1441L76.9971 68.4022C77.3964 67.9088 77.8029 67.4215 78.2166 66.9405L76.7002 65.6363C77.1271 65.14 77.5614 64.6502 78.0028 64.1671L79.4793 65.5162C79.9073 65.0477 80.3424 64.5857 80.7843 64.1303L79.349 62.7375C79.8049 62.2678 80.2678 61.8049 80.7375 61.349L82.1303 62.7843C82.5857 62.3424 83.0477 61.9074 83.5162 61.4793L82.1671 60.0028C82.6502 59.5614 83.14 59.1271 83.6363 58.7002L84.9405 60.2166C85.4215 59.8029 85.9088 59.3964 86.4022 58.9971L85.1441 57.4423C85.6529 57.0307 86.1679 56.6266 86.6891 56.2302L87.8999 57.8222C88.4046 57.4384 88.9154 57.0619 89.4319 56.6931L88.2696 55.0654C88.8021 54.6851 89.3406 54.3127 89.885 53.9482L90.9977 55.6104C91.5245 55.2577 92.057 54.9128 92.5948 54.5757L91.5327 52.8808C92.0869 52.5335 92.6467 52.1943 93.212 51.8634L94.2225 53.5897C94.7698 53.2694 95.3223 52.9571 95.88 52.653L94.9222 50.8968C95.496 50.5839 96.0751 50.2793 96.6593 49.9833L97.5635 51.7677C98.1288 51.4812 98.6991 51.2031 99.274 50.9333L98.4244 49.1223C99.0163 48.8445 99.6132 48.5755 100.215 48.3152L101.009 50.1513C101.59 49.8999 102.176 49.657 102.766 49.4227L102.028 47.5634C102.636 47.322 103.248 47.0896 103.865 46.8662L104.546 48.7472C105.141 48.5317 105.74 48.3249 106.344 48.127L105.72 46.2262C106.341 46.0225 106.966 45.8279 107.595 45.6425L108.16 47.5615C108.768 47.3824 109.379 47.2122 109.995 47.0511L109.488 45.1159C110.119 44.9505 110.754 44.7945 111.393 44.6478L111.84 46.5975C112.458 46.4558 113.079 46.323 113.703 46.1996L113.314 44.2372C113.955 44.1105 114.598 43.9933 115.245 43.8856L115.574 45.8587C116.198 45.7548 116.825 45.66 117.455 45.5746L117.186 43.5925C117.834 43.5047 118.485 43.4264 119.138 43.3579L119.347 45.3471C119.975 45.2812 120.606 45.2245 121.24 45.1771L121.091 43.1826C121.742 43.1339 122.397 43.0949 123.053 43.0656L123.142 45.0637C123.774 45.0355 124.408 45.0166 125.044 45.0071L125.014 43.0073C125.342 43.0024 125.671 43 126 43C126.329 43 126.658 43.0024 126.986 43.0073L126.956 45.0071C127.592 45.0166 128.226 45.0355 128.858 45.0637L128.947 43.0656C129.603 43.0949 130.258 43.134 130.909 43.1826L130.76 45.1771C131.394 45.2245 132.025 45.2812 132.653 45.3471L132.862 43.3579C133.515 43.4264 134.166 43.5047 134.814 43.5925L134.545 45.5746C135.175 45.6601 135.802 45.7548 136.426 45.8587L136.755 43.8856C137.402 43.9933 138.045 44.1106 138.686 44.2372L138.297 46.1996C138.921 46.3231 139.542 46.4558 140.16 46.5975L140.607 44.6478C141.246 44.7945 141.881 44.9506 142.512 45.1159L142.006 47.0511C142.621 47.2122 143.232 47.3824 143.84 47.5615L144.405 45.6425C145.034 45.8279 145.659 46.0225 146.28 46.2262L145.656 48.127C146.26 48.3249 146.859 48.5317 147.454 48.7472L148.135 46.8662C148.752 47.0896 149.364 47.322 149.972 47.5634L149.234 49.4227C149.824 49.657 150.41 49.8999 150.991 50.1513L151.785 48.3152C152.387 48.5755 152.984 48.8445 153.576 49.1223L152.726 50.9333C153.301 51.2031 153.871 51.4812 154.437 51.7677L155.341 49.9833C155.925 50.2793 156.504 50.5839 157.078 50.8968L156.12 52.653C156.678 52.9571 157.23 53.2694 157.778 53.5898L158.788 51.8634C159.353 52.1943 159.913 52.5335 160.467 52.8808L159.405 54.5757C159.943 54.9128 160.475 55.2577 161.002 55.6104L162.115 53.9482C162.659 54.3127 163.198 54.6851 163.73 55.0654L162.568 56.6931C163.085 57.0619 163.595 57.4384 164.1 57.8222L165.311 56.2302C165.832 56.6266 166.347 57.0307 166.856 57.4423L165.598 58.9971C166.091 59.3964 166.579 59.8029 167.059 60.2166L168.364 58.7002C168.86 59.1271 169.35 59.5614 169.833 60.0028L168.484 61.4793C168.952 61.9074 169.414 62.3424 169.87 62.7843L171.263 61.349C171.732 61.8049 172.195 62.2678 172.651 62.7375L171.216 64.1303C171.658 64.5857 172.093 65.0477 172.521 65.5162L173.997 64.1671C174.439 64.6502 174.873 65.14 175.3 65.6363L173.783 66.9405C174.197 67.4215 174.604 67.9088 175.003 68.4022L176.558 67.1441C176.969 67.6529 177.373 68.1679 177.77 68.6891L176.178 69.8999C176.562 70.4046 176.938 70.9154 177.307 71.4319L178.935 70.2696C179.315 70.8021 179.687 71.3406 180.052 71.885L178.39 72.9977C178.742 73.5245 179.087 74.057 179.424 74.5948L181.119 73.5327C181.467 74.0869 181.806 74.6467 182.137 75.212L180.41 76.2225C180.731 76.7698 181.043 77.3223 181.347 77.88L183.103 76.9222C183.416 77.496 183.721 78.0751 184.017 78.6593L182.232 79.5635C182.519 80.1288 182.797 80.6991 183.067 81.274L184.878 80.4244C185.155 81.0163 185.425 81.6132 185.685 82.2147L183.849 83.009C184.1 83.5902 184.343 84.1758 184.577 84.7659L186.437 84.0278C186.678 84.6357 186.91 85.2481 187.134 85.8649L185.253 86.5461C185.468 87.1411 185.675 87.7404 185.873 88.3436L187.774 87.72C187.978 88.3408 188.172 88.9658 188.357 89.5947L186.439 90.1602C186.618 90.7679 186.788 91.3794 186.949 91.9945L188.884 91.4878C189.049 92.1191 189.206 92.7541 189.352 93.3928L187.402 93.8405C187.544 94.4578 187.677 95.0786 187.8 95.7027L189.763 95.3145C189.889 95.9548 190.007 96.5984 190.114 97.2453L188.141 97.5738C188.245 98.1978 188.34 98.8249 188.425 99.455L190.408 99.1863C190.495 99.834 190.574 100.485 190.642 101.138L188.653 101.347C188.719 101.975 188.776 102.606 188.823 103.24L190.817 103.091C190.866 103.742 190.905 104.397 190.934 105.053L188.936 105.142C188.965 105.774 188.983 106.408 188.993 107.044L190.993 107.014C190.998 107.342 191 107.671 191 108ZM182.994 107.133C182.769 92.0459 176.682 78.3791 166.91 68.3088C166.51 67.8965 166.103 67.4903 165.691 67.0902C155.621 57.318 141.954 51.2314 126.867 51.0064C126.579 51.0022 126.29 51 126 51C125.71 51 125.422 51.0022 125.133 51.0064C110.046 51.2314 96.3791 57.318 86.3088 67.0902C85.8965 67.4903 85.4903 67.8965 85.0902 68.3088C75.318 78.3791 69.2314 92.0459 69.0064 107.133C69.0022 107.421 69 107.71 69 108C69 108.29 69.0022 108.578 69.0064 108.867C69.2314 123.954 75.318 137.621 85.0902 147.691C85.4903 148.103 85.8965 148.51 86.3088 148.91C96.3791 158.682 110.046 164.769 125.133 164.994C125.421 164.998 125.71 165 126 165C126.29 165 126.578 164.998 126.867 164.994C141.954 164.769 155.621 158.682 165.691 148.91C166.103 148.51 166.51 148.103 166.91 147.691C176.682 137.621 182.769 123.954 182.994 108.867C182.998 108.579 183 108.29 183 108C183 107.71 182.998 107.422 182.994 107.133Z" fill="white"/>
<path d="M60.504 201.727H70.087V213.105C68.7057 214.116 67.2318 214.85 65.6655 215.306C64.1115 215.762 62.4835 215.991 60.7815 215.991C58.5615 215.991 56.5388 215.645 54.7135 214.955C52.9005 214.252 51.3465 213.29 50.0515 212.069C48.7565 210.835 47.7575 209.38 47.0545 207.703C46.3515 206.013 46 204.181 46 202.208C46 200.198 46.333 198.354 46.999 196.677C47.665 194.987 48.6147 193.532 49.848 192.311C51.0937 191.09 52.5922 190.14 54.3435 189.462C56.1072 188.783 58.0743 188.444 60.245 188.444C61.3673 188.444 62.4218 188.537 63.4085 188.722C64.3952 188.907 65.3017 189.159 66.128 189.48C66.9667 189.801 67.7313 190.183 68.422 190.627C69.1127 191.071 69.7293 191.552 70.272 192.07L68.459 194.827C68.1753 195.258 67.8053 195.523 67.349 195.622C66.905 195.721 66.424 195.61 65.906 195.289C65.4127 194.993 64.944 194.74 64.5 194.531C64.0683 194.309 63.6243 194.13 63.168 193.994C62.7117 193.858 62.2307 193.76 61.725 193.698C61.2193 193.636 60.652 193.606 60.023 193.606C58.8513 193.606 57.7968 193.815 56.8595 194.235C55.9222 194.642 55.1205 195.221 54.4545 195.973C53.8008 196.726 53.2952 197.632 52.9375 198.693C52.5798 199.741 52.401 200.913 52.401 202.208C52.401 203.639 52.5983 204.909 52.993 206.019C53.3877 207.129 53.9427 208.066 54.658 208.831C55.3857 209.596 56.249 210.182 57.248 210.589C58.2593 210.983 59.3755 211.181 60.5965 211.181C61.3488 211.181 62.0272 211.107 62.6315 210.959C63.2482 210.811 63.8463 210.613 64.426 210.367V206.278H61.762C61.3673 206.278 61.059 206.173 60.837 205.964C60.615 205.754 60.504 205.489 60.504 205.168V201.727Z" fill="white"/>
<path d="M82.2525 196.214C83.7078 196.214 85.0336 196.442 86.23 196.899C87.4263 197.355 88.45 198.009 89.301 198.86C90.1643 199.711 90.8303 200.747 91.299 201.968C91.78 203.176 92.0205 204.539 92.0205 206.056C92.0205 207.585 91.78 208.967 91.299 210.2C90.8303 211.421 90.1643 212.463 89.301 213.327C88.45 214.178 87.4263 214.837 86.23 215.306C85.0336 215.762 83.7078 215.991 82.2525 215.991C80.7848 215.991 79.4467 215.762 78.238 215.306C77.0417 214.837 76.0057 214.178 75.13 213.327C74.2667 212.463 73.5945 211.421 73.1135 210.2C72.6448 208.967 72.4105 207.585 72.4105 206.056C72.4105 204.539 72.6448 203.176 73.1135 201.968C73.5945 200.747 74.2667 199.711 75.13 198.86C76.0057 198.009 77.0417 197.355 78.238 196.899C79.4467 196.442 80.7848 196.214 82.2525 196.214ZM82.2525 211.736C83.5722 211.736 84.5403 211.273 85.157 210.348C85.786 209.411 86.1005 207.992 86.1005 206.093C86.1005 204.194 85.786 202.782 85.157 201.857C84.5403 200.932 83.5722 200.469 82.2525 200.469C80.8958 200.469 79.903 200.932 79.274 201.857C78.645 202.782 78.3305 204.194 78.3305 206.093C78.3305 207.992 78.645 209.411 79.274 210.348C79.903 211.273 80.8958 211.736 82.2525 211.736Z" fill="white"/>
<path d="M103.752 196.214C105.207 196.214 106.533 196.442 107.729 196.899C108.925 197.355 109.949 198.009 110.8 198.86C111.663 199.711 112.329 200.747 112.798 201.968C113.279 203.176 113.52 204.539 113.52 206.056C113.52 207.585 113.279 208.967 112.798 210.2C112.329 211.421 111.663 212.463 110.8 213.327C109.949 214.178 108.925 214.837 107.729 215.306C106.533 215.762 105.207 215.991 103.752 215.991C102.284 215.991 100.946 215.762 99.737 215.306C98.5407 214.837 97.5047 214.178 96.629 213.327C95.7657 212.463 95.0935 211.421 94.6125 210.2C94.1438 208.967 93.9095 207.585 93.9095 206.056C93.9095 204.539 94.1438 203.176 94.6125 201.968C95.0935 200.747 95.7657 199.711 96.629 198.86C97.5047 198.009 98.5407 197.355 99.737 196.899C100.946 196.442 102.284 196.214 103.752 196.214ZM103.752 211.736C105.071 211.736 106.039 211.273 106.656 210.348C107.285 209.411 107.6 207.992 107.6 206.093C107.6 204.194 107.285 202.782 106.656 201.857C106.039 200.932 105.071 200.469 103.752 200.469C102.395 200.469 101.402 200.932 100.773 201.857C100.144 202.782 99.8295 204.194 99.8295 206.093C99.8295 207.992 100.144 209.411 100.773 210.348C101.402 211.273 102.395 211.736 103.752 211.736Z" fill="white"/>
<path d="M128.044 201.653C127.612 201.172 127.144 200.839 126.638 200.654C126.132 200.457 125.602 200.358 125.047 200.358C124.517 200.358 124.03 200.463 123.586 200.673C123.142 200.882 122.753 201.221 122.42 201.69C122.099 202.146 121.847 202.745 121.662 203.485C121.477 204.225 121.384 205.119 121.384 206.167C121.384 207.178 121.458 208.029 121.606 208.72C121.754 209.411 121.958 209.972 122.217 210.404C122.488 210.823 122.809 211.125 123.179 211.31C123.549 211.495 123.962 211.588 124.418 211.588C124.837 211.588 125.214 211.551 125.547 211.477C125.892 211.39 126.206 211.273 126.49 211.125C126.774 210.977 127.039 210.792 127.286 210.57C127.545 210.336 127.797 210.07 128.044 209.774V201.653ZM133.779 188V215.695H130.227C129.512 215.695 129.043 215.374 128.821 214.733L128.377 213.271C127.995 213.678 127.594 214.048 127.175 214.381C126.755 214.714 126.299 215.004 125.806 215.251C125.325 215.485 124.8 215.664 124.233 215.787C123.678 215.923 123.074 215.991 122.42 215.991C121.421 215.991 120.496 215.769 119.645 215.325C118.794 214.881 118.06 214.239 117.444 213.401C116.827 212.562 116.34 211.538 115.982 210.33C115.637 209.108 115.464 207.721 115.464 206.167C115.464 204.736 115.661 203.411 116.056 202.19C116.451 200.956 117.006 199.896 117.721 199.007C118.449 198.107 119.318 197.404 120.33 196.899C121.341 196.393 122.457 196.14 123.678 196.14C124.677 196.14 125.516 196.282 126.194 196.566C126.872 196.849 127.489 197.232 128.044 197.713V188H133.779Z" fill="white"/>
<path d="M158.466 211.292C158.589 211.292 158.694 211.335 158.781 211.421L159.521 212.217C158.978 212.796 158.386 213.32 157.745 213.789C157.116 214.245 156.419 214.64 155.654 214.973C154.902 215.294 154.069 215.54 153.157 215.713C152.256 215.898 151.263 215.991 150.178 215.991C148.365 215.991 146.7 215.676 145.183 215.047C143.678 214.406 142.383 213.505 141.298 212.346C140.213 211.174 139.368 209.762 138.764 208.11C138.172 206.457 137.876 204.619 137.876 202.597C137.876 200.611 138.184 198.798 138.801 197.157C139.417 195.517 140.281 194.111 141.391 192.94C142.501 191.755 143.833 190.843 145.387 190.202C146.941 189.548 148.655 189.221 150.53 189.221C152.318 189.221 153.903 189.499 155.284 190.054C156.665 190.609 157.923 191.392 159.058 192.403L158.485 193.236C158.386 193.384 158.232 193.458 158.022 193.458C157.874 193.458 157.634 193.322 157.301 193.051C156.968 192.779 156.505 192.483 155.913 192.163C155.321 191.83 154.581 191.527 153.693 191.256C152.817 190.985 151.763 190.849 150.53 190.849C148.951 190.849 147.502 191.12 146.182 191.663C144.875 192.206 143.746 192.983 142.797 193.994C141.859 195.005 141.125 196.239 140.595 197.694C140.065 199.149 139.8 200.784 139.8 202.597C139.8 204.447 140.065 206.099 140.595 207.555C141.138 209.01 141.878 210.243 142.815 211.255C143.752 212.254 144.856 213.024 146.127 213.567C147.409 214.097 148.791 214.363 150.271 214.363C151.208 214.363 152.04 214.301 152.768 214.178C153.508 214.054 154.186 213.869 154.803 213.623C155.42 213.376 155.993 213.074 156.524 212.716C157.054 212.358 157.578 211.939 158.096 211.458C158.158 211.409 158.219 211.372 158.281 211.347C158.343 211.31 158.404 211.292 158.466 211.292Z" fill="white"/>
<path d="M170.677 196.991C171.996 196.991 173.174 197.219 174.21 197.676C175.259 198.12 176.14 198.755 176.856 199.581C177.571 200.407 178.114 201.406 178.484 202.578C178.866 203.737 179.057 205.039 179.057 206.482C179.057 207.925 178.866 209.226 178.484 210.385C178.114 211.544 177.571 212.537 176.856 213.364C176.14 214.19 175.259 214.825 174.21 215.269C173.174 215.713 171.996 215.935 170.677 215.935C169.357 215.935 168.173 215.713 167.125 215.269C166.089 214.825 165.207 214.19 164.479 213.364C163.764 212.537 163.215 211.544 162.833 210.385C162.463 209.226 162.278 207.925 162.278 206.482C162.278 205.039 162.463 203.737 162.833 202.578C163.215 201.406 163.764 200.407 164.479 199.581C165.207 198.755 166.089 198.12 167.125 197.676C168.173 197.219 169.357 196.991 170.677 196.991ZM170.677 214.548C171.774 214.548 172.73 214.363 173.544 213.993C174.371 213.61 175.055 213.068 175.598 212.365C176.153 211.661 176.566 210.817 176.837 209.83C177.109 208.831 177.244 207.715 177.244 206.482C177.244 205.261 177.109 204.151 176.837 203.152C176.566 202.153 176.153 201.302 175.598 200.599C175.055 199.883 174.371 199.334 173.544 198.952C172.73 198.57 171.774 198.379 170.677 198.379C169.579 198.379 168.617 198.57 167.791 198.952C166.977 199.334 166.292 199.883 165.737 200.599C165.195 201.302 164.781 202.153 164.498 203.152C164.226 204.151 164.091 205.261 164.091 206.482C164.091 207.715 164.226 208.831 164.498 209.83C164.781 210.817 165.195 211.661 165.737 212.365C166.292 213.068 166.977 213.61 167.791 213.993C168.617 214.363 169.579 214.548 170.677 214.548Z" fill="white"/>
<path d="M185.981 197.287V215.695H184.223V197.287H185.981ZM186.739 190.942C186.739 191.164 186.69 191.373 186.591 191.571C186.505 191.756 186.388 191.922 186.24 192.07C186.092 192.218 185.919 192.335 185.722 192.422C185.524 192.508 185.315 192.551 185.093 192.551C184.871 192.551 184.661 192.508 184.464 192.422C184.266 192.335 184.094 192.218 183.946 192.07C183.798 191.922 183.68 191.756 183.594 191.571C183.508 191.373 183.465 191.164 183.465 190.942C183.465 190.72 183.508 190.51 183.594 190.312C183.68 190.103 183.798 189.924 183.946 189.776C184.094 189.628 184.266 189.511 184.464 189.425C184.661 189.338 184.871 189.295 185.093 189.295C185.315 189.295 185.524 189.338 185.722 189.425C185.919 189.511 186.092 189.628 186.24 189.776C186.388 189.924 186.505 190.103 186.591 190.312C186.69 190.51 186.739 190.72 186.739 190.942Z" fill="white"/>
<path d="M193.941 200.506C194.792 199.445 195.773 198.594 196.883 197.953C198.005 197.312 199.251 196.991 200.62 196.991C201.631 196.991 202.519 197.151 203.284 197.472C204.061 197.793 204.702 198.255 205.208 198.86C205.713 199.464 206.096 200.192 206.355 201.043C206.614 201.894 206.743 202.856 206.743 203.929V215.695H204.967V203.929C204.967 202.202 204.573 200.851 203.783 199.877C202.994 198.89 201.791 198.397 200.176 198.397C198.979 198.397 197.857 198.705 196.809 199.322C195.773 199.926 194.848 200.771 194.034 201.857V215.695H192.258V197.287H193.238C193.547 197.287 193.725 197.441 193.775 197.75L193.941 200.506Z" fill="white"/>
<defs>
<linearGradient id="paint0_linear" x1="-5.83383e-06" y1="261" x2="260.801" y2="10.1914" gradientUnits="userSpaceOnUse">
<stop stop-color="#4392D7"/>
<stop offset="1" stop-color="#00E3C6"/>
</linearGradient>
</defs>
</svg>
