<svg xmlns="http://www.w3.org/2000/svg" xmlns:xlink="http://www.w3.org/1999/xlink" viewBox="0 0 147.29 151.52"><defs><style>.a{fill:url(#a);}.b{fill:url(#b);}.c{fill:url(#c);}.d{fill:#1c79bd;}.e{fill:#f7982c;}.f{fill:#f8ec3b;}</style><linearGradient id="a" x1="403.55" y1="294.64" x2="440.37" y2="230.87" gradientUnits="userSpaceOnUse"><stop offset="0" stop-color="#faac4b"/><stop offset="1" stop-color="#f1ea4d"/></linearGradient><linearGradient id="b" x1="444.61" y1="375.04" x2="493.71" y2="290.01" gradientUnits="userSpaceOnUse"><stop offset="0" stop-color="#294199"/><stop offset="1" stop-color="#1c79bd"/></linearGradient><linearGradient id="c" x1="366.73" y1="358.42" x2="403.55" y2="294.64" gradientUnits="userSpaceOnUse"><stop offset="0" stop-color="#0098d6"/><stop offset="0.5" stop-color="#01b69b"/><stop offset="1" stop-color="#62ba46"/></linearGradient></defs><title>cp-logo</title><path class="a" d="M463,243.94L428.1,223.78a14.17,14.17,0,0,0-14.17,0L379,243.94a14.17,14.17,0,0,0-7.08,12.27v20.17l17.47-10.08a14.17,14.17,0,0,1,14.17,0l7.27,4.2,3.12-1.8a14.16,14.16,0,0,1,14.16,0l3.12,1.8,7.27-4.2a14.17,14.17,0,0,1,14.17,0l17.47,10.08V256.21A14.17,14.17,0,0,0,463,243.94Z" transform="translate(-347.37 -221.88)"/><path class="b" d="M487.57,286.46l-17.47-10.08v20.17A14.17,14.17,0,0,1,463,308.82l-7.27,4.2v3.6a14.16,14.16,0,0,1-7.08,12.26l-3.12,1.8v8.39a14.17,14.17,0,0,1-7.08,12.27L421,361.42l17.47,10.08a14.17,14.17,0,0,0,14.17,0l34.93-20.17a14.17,14.17,0,0,0,7.08-12.27V298.73A14.17,14.17,0,0,0,487.57,286.46Z" transform="translate(-347.37 -221.88)"/><path class="c" d="M396.46,339.07v-8.39l-3.12-1.8a14.16,14.16,0,0,1-7.08-12.26V313l-7.27-4.2a14.17,14.17,0,0,1-7.08-12.27V276.38l-17.46,10.08a14.17,14.17,0,0,0-7.08,12.27v40.33a14.17,14.17,0,0,0,7.08,12.27l34.93,20.17a14.17,14.17,0,0,0,14.17,0L421,361.42l-17.47-10.08A14.17,14.17,0,0,1,396.46,339.07Z" transform="translate(-347.37 -221.88)"/><path class="d" d="M428.09,340.76a14.16,14.16,0,0,1-14.16,0l-17.47-10.09v8.39a14.17,14.17,0,0,0,7.08,12.27L421,361.42l17.47-10.08a14.17,14.17,0,0,0,7.08-12.27v-8.39Z" transform="translate(-347.37 -221.88)"/><path class="e" d="M452.64,266.3a14.17,14.17,0,0,0-14.17,0l-7.27,4.2,17.47,10.09a14.16,14.16,0,0,1,7.08,12.26V313l7.27-4.2a14.17,14.17,0,0,0,7.08-12.27V276.38Z" transform="translate(-347.37 -221.88)"/><path class="f" d="M386.26,292.84a14.16,14.16,0,0,1,7.08-12.26l17.47-10.09-7.27-4.2a14.17,14.17,0,0,0-14.17,0l-17.47,10.08v20.17A14.17,14.17,0,0,0,379,308.82l7.27,4.2V292.84Z" transform="translate(-347.37 -221.88)"/></svg>