<svg width="978" height="336" xmlns="http://www.w3.org/2000/svg"><g fill="none" fill-rule="evenodd"><path fill="#FFF" d="M0 0h978v336H0z"/><text font-family="SpaceGrotesk-Bold, Space Grotesk" font-size="16" font-weight="bold" fill="#333"><tspan x="219.272" y="264">Small</tspan>  <tspan x="208.128" y="283" font-family="SpaceGrotesk-Regular, Space Grotesk" font-weight="normal">&lt; 992px</tspan></text><text font-family="SpaceGrotesk-Bold, Space Grotesk" font-size="16" font-weight="bold" fill="#333"><tspan x="461.544" y="264">Medium</tspan>  <tspan x="456.288" y="283" font-family="SpaceGrotesk-Regular, Space Grotesk" font-weight="normal">&lt; 1200px</tspan></text><text font-family="SpaceGrotesk-Bold, Space Grotesk" font-size="16" font-weight="bold" fill="#333"><tspan x="777.288" y="264">Large</tspan>  <tspan x="758.328" y="283" font-family="SpaceGrotesk-Regular, Space Grotesk" font-weight="normal">&gt;= 1200px</tspan></text><text font-family="SpaceGrotesk-Bold, Space Grotesk" font-size="16" font-weight="bold" fill="#333"><tspan x="74.044" y="264">Tiny</tspan>  <tspan x="59.06" y="283" font-family="SpaceGrotesk-Regular, Space Grotesk" font-weight="normal">&lt; 768px</tspan></text><g fill="#6C84FA"><path d="M792.203 160.077c.455-.55.76-1.314.677-2.077-.653.026-1.448.437-1.915.985-.42.488-.788 1.265-.69 2.011.73.057 1.475-.37 1.928-.919m2.481 9.306c-.54.793-1.104 1.583-1.99 1.6-.869.016-1.149-.516-2.144-.516-.995 0-1.306.5-2.13.532-.855.034-1.505-.856-2.052-1.645-1.117-1.614-1.969-4.562-.825-6.55.57-.988 1.586-1.612 2.69-1.63.84-.013 1.632.565 2.146.565.513 0 1.475-.7 2.488-.597.423.02 1.613.172 2.378 1.29-.063.04-1.42.829-1.406 2.474.017 1.967 1.726 2.622 1.746 2.63-.016.044-.274.933-.901 1.847z"/><path d="M686.005 18.5h207.99a7.505 7.505 0 0 1 7.505 7.503v143.994a7.506 7.506 0 0 1-7.505 7.503h-207.99a7.505 7.505 0 0 1-7.505-7.503V26.003a7.506 7.506 0 0 1 7.505-7.503zM677.5 169.997a8.505 8.505 0 0 0 8.505 8.503h207.99c4.695 0 8.505-3.808 8.505-8.503V26.003a8.505 8.505 0 0 0-8.505-8.503h-207.99c-4.695 0-8.505 3.808-8.505 8.503v143.994z" fill-rule="nonzero"/><path fill-rule="nonzero" d="M678.444 152l-.5 1H901.5l.5-1zM891 29.2l-.2 113.8-200.8-.2.2-113.8 200.8.2zM689.8 143l201.2.2.2-114.2-201.2-.2-.2 114.2zM752 214h75.8c1.104 0 2.2-.915 2.2-2v-3c0-.575-.39-.897-.915-.988a2.156 2.156 0 0 0-.562-.018c-.043.004.053 1 .053 1 .138-.013.247-.012.339.004.1.017.085 3.002.085 3.002 0 .49-.612 1-1.2 1H752c-.538 0-1-.456-1-1h-1c0 1.099.913 2 2 2z"/><path d="M828 213h-75.8c-.588 0-1.2-.51-1.2-1v-3c.177-.018.286-.02.386-.01.022.002.19-.984.19-.984a2.342 2.342 0 0 0-.661.006c-.526.091-.915.413-.915.988v3c0 1.085 1.096 2 2.2 2H828c1.087 0 2-.901 2-2h-1c0 .544-.462 1-1 1z" fill-rule="nonzero"/><path d="M765.996 178.285a118.98 118.98 0 0 1-.14 3.778c-.16 3.055-.428 6.108-.828 8.955-.585 4.173-1.403 7.532-2.479 9.765-.258.537-1.569 1.508-3.601 2.686-.553.32-1.153.653-1.793.996a113.805 113.805 0 0 1-5.655 2.8c-1.986.939-1.693 2.235.5 2.235h76.003c2.188 0 2.466-1.286.493-2.211a101.609 101.609 0 0 1-5.66-2.76 52.69 52.69 0 0 1-2.082-1.165c-1.855-1.099-3.044-2.02-3.3-2.574-1.021-2.205-1.71-5.603-2.11-9.856-.375-4.009-.457-8.243-.372-11.962.01-.457.02-.781.028-.952l-1-.04c-.007.176-.017.506-.028.969-.085 3.754-.003 8.025.377 12.078.408 4.358 1.117 7.85 2.197 10.183.377.815 1.651 1.802 3.698 3.015.644.381 1.355.778 2.123 1.187a102.638 102.638 0 0 0 5.715 2.787c.316.148.554.292.69.41.085-.191.104-.205.044-.188-.173.05-.45.079-.813.079H752c-.365 0-.643-.03-.818-.08-.065-.02-.049-.008-.026.095.198-.043.436-.189.764-.344.083-.037.251-.115.486-.224a114.785 114.785 0 0 0 5.22-2.6 62.1 62.1 0 0 0 1.822-1.013c2.238-1.297 3.617-2.318 4.002-3.117 1.13-2.347 1.97-5.793 2.568-10.06.404-2.879.674-5.96.836-9.04a119.976 119.976 0 0 0 .14-3.814l.005-.299-1-.008-.004.29zM791 25a1 1 0 1 0 0-2 1 1 0 0 0 0 2z"/></g><g transform="translate(378 84)" fill="#6C84FA"><path d="M196 1.5c4.142 0 7.5 3.36 7.5 7.505v105.99a7.503 7.503 0 0 1-7.502 7.505.5.5 0 1 0-.006 1 8.505 8.505 0 0 0 8.508-8.505V9.005C204.5 4.309 200.694.5 196 .5h-10a.5.5 0 0 0 0 1h10zM31 .5c-4.694 0-8.5 3.809-8.5 8.505v105.99a8.503 8.503 0 0 0 8.502 8.505.5.5 0 0 0 .006-1 7.505 7.505 0 0 1-7.508-7.505V9.005A7.503 7.503 0 0 1 31 1.5h10a.5.5 0 1 0 0-1H31z" fill-rule="nonzero"/><path d="M196 10.2l-.2 105.8-163.8-.2.2-105.8 163.8.2zM31.8 116l164.2.2.2-106.2L32 9.8 31.8 116z" fill-rule="nonzero"/><path d="M31 .5h165v1H31z"/><circle cx="114" cy="6" r="1"/><path d="M131 123.2l-.2-.2v1.5c0 .72-.58 1.3-1.304 1.3H97.504a1.298 1.298 0 0 1-1.304-1.3V123l-.2.2h35zm-35.2-.4v1.7c0 .943.761 1.7 1.704 1.7h31.992c.945 0 1.704-.76 1.704-1.7v-1.7H95.8z" fill-rule="nonzero"/><path d="M2 122.5h221v1H2zM31 129h165v1H31z"/><path d="M1.08 122.5H.67l-.08.402c-.013.063-.03.171-.047.318-.122 1.078-.02 2.29.483 3.451.174.4.39.778.654 1.129.595.794 1.537 1.347 2.723 1.712.698.214 1.439.351 2.18.427a12.37 12.37 0 0 0 .997.061H33.5v-1H7.58a9.49 9.49 0 0 1-.896-.056c-.68-.07-1.358-.195-1.987-.388-1.002-.309-1.77-.76-2.217-1.356a4.56 4.56 0 0 1-.536-.927c-.423-.976-.512-2.021-.407-2.94a3.19 3.19 0 0 1 .033-.235l-.49.402H30.5v-1H1.08zM224 123.5l-.49-.402c.007.037.02.117.033.234.105.92.016 1.965-.407 2.941-.143.33-.32.64-.536.927-.448.597-1.215 1.047-2.217 1.356-.629.193-1.307.319-1.987.388a9.49 9.49 0 0 1-.896.056H192v1h25.5a12.37 12.37 0 0 0 .998-.06c.74-.077 1.481-.214 2.179-.428 1.186-.365 2.128-.918 2.723-1.712.264-.351.48-.73.654-1.129.503-1.161.605-2.373.483-3.451a4.077 4.077 0 0 0-.047-.318l-.08-.402H196v1h28z" fill-rule="nonzero"/></g><path d="M253 207a4 4 0 1 0-8 0 4 4 0 0 0 8 0zm-7 0a3 3 0 1 1 6 0 3 3 0 0 1-6 0zM201 75.4l.4-.4v126l-.4-.4h96l-.4.4V75l.4.4h-96zm96-.4v126h-96V75h96zM196 209.008a3.994 3.994 0 0 0 3.992 3.992h98.016a3.99 3.99 0 0 0 3.992-3.992V66.992A3.994 3.994 0 0 0 298.008 63h-98.016A3.99 3.99 0 0 0 196 66.992v142.016zM199.992 62h98.016A4.994 4.994 0 0 1 303 66.992v142.016a4.99 4.99 0 0 1-4.992 4.992h-98.016a4.994 4.994 0 0 1-4.992-4.992V66.992A4.99 4.99 0 0 1 199.992 62zM250 70a1 1 0 1 0 0-2 1 1 0 0 0 0 2zM74 122.4l.4-.4v80l-.4-.4h45l-.4.4v-80l.4.4H74zm45-.4v80H74v-80h45zm-32-5a1 1 0 1 0 0-2 1 1 0 0 0 0 2zm8.5-3a.5.5 0 1 0 0-1 .5.5 0 0 0 0 1zm-4.5 2.5c0-.276.222-.5.51-.5h7.98a.51.51 0 0 1 .51.5c0 .276-.222.5-.51.5h-7.98a.51.51 0 0 1-.51-.5zm8.5 91a4 4 0 1 0-8 0 4 4 0 0 0 8 0zm-7 0a3 3 0 1 1 6 0 3 3 0 0 1-6 0zM72 206c0 3.862 3.139 7 7.006 7h33.988a6.997 6.997 0 0 0 7.006-7v-90c0-3.862-3.139-7-7.006-7H79.006A6.997 6.997 0 0 0 72 116v90zm7.006-98h33.988c4.422 0 8.006 3.588 8.006 8v90c0 4.418-3.576 8-8.006 8H79.006c-4.422 0-8.006-3.588-8.006-8v-90c0-4.418 3.576-8 8.006-8zM70 122.49a.5.5 0 0 1 .5-.49h.5v4h-.5a.492.492 0 0 1-.5-.49v-3.02zm0 9.01c0-.276.232-.5.5-.5h.5v8h-.5c-.276 0-.5-.23-.5-.5v-7zm0 10c0-.276.232-.5.5-.5h.5v8h-.5c-.276 0-.5-.23-.5-.5v-7z" fill="#6C84FA" fill-rule="nonzero"/></g></svg>